%TF.GenerationSoftware,KiCad,Pcbnew,8.0.7-8.0.7-0~ubuntu24.04.1*%
%TF.CreationDate,2025-01-05T15:57:20-05:00*%
%TF.ProjectId,3xHDMI,33784844-4d49-42e6-9b69-6361645f7063,v1*%
%TF.SameCoordinates,Original*%
%TF.FileFunction,Paste,Top*%
%TF.FilePolarity,Positive*%
%FSLAX46Y46*%
G04 Gerber Fmt 4.6, Leading zero omitted, Abs format (unit mm)*
G04 Created by KiCad (PCBNEW 8.0.7-8.0.7-0~ubuntu24.04.1) date 2025-01-05 15:57:20*
%MOMM*%
%LPD*%
G01*
G04 APERTURE LIST*
%ADD10C,0.120000*%
%ADD11R,0.864000X0.806000*%
%ADD12O,0.250000X1.600000*%
%ADD13R,0.806000X0.864000*%
%ADD14R,0.900000X0.800000*%
%ADD15R,0.800000X0.900000*%
%ADD16R,0.980000X2.470000*%
%ADD17R,3.600000X2.470000*%
%ADD18R,1.900000X1.500000*%
%ADD19R,1.300000X0.300000*%
%ADD20R,1.000000X0.900000*%
G04 APERTURE END LIST*
D10*
%TO.C,R36*%
X63700000Y-29805000D02*
X63700000Y-30595000D01*
X63650000Y-30645000D01*
X63422000Y-30645000D01*
X63422000Y-30265000D01*
X63092000Y-30265000D01*
X63092000Y-30645000D01*
X62850000Y-30645000D01*
X62800000Y-30595000D01*
X62800000Y-29805000D01*
X62850000Y-29755000D01*
X63650000Y-29755000D01*
X63700000Y-29805000D01*
G36*
X63700000Y-29805000D02*
G01*
X63700000Y-30595000D01*
X63650000Y-30645000D01*
X63422000Y-30645000D01*
X63422000Y-30265000D01*
X63092000Y-30265000D01*
X63092000Y-30645000D01*
X62850000Y-30645000D01*
X62800000Y-30595000D01*
X62800000Y-29805000D01*
X62850000Y-29755000D01*
X63650000Y-29755000D01*
X63700000Y-29805000D01*
G37*
X63092000Y-31715000D02*
X63422000Y-31715000D01*
X63422000Y-31345000D01*
X63650000Y-31345000D01*
X63700000Y-31395000D01*
X63700000Y-32195000D01*
X63650000Y-32245000D01*
X62850000Y-32245000D01*
X62800000Y-32195000D01*
X62800000Y-31395000D01*
X62850000Y-31345000D01*
X63092000Y-31345000D01*
X63092000Y-31715000D01*
G36*
X63092000Y-31715000D02*
G01*
X63422000Y-31715000D01*
X63422000Y-31345000D01*
X63650000Y-31345000D01*
X63700000Y-31395000D01*
X63700000Y-32195000D01*
X63650000Y-32245000D01*
X62850000Y-32245000D01*
X62800000Y-32195000D01*
X62800000Y-31395000D01*
X62850000Y-31345000D01*
X63092000Y-31345000D01*
X63092000Y-31715000D01*
G37*
%TO.C,R2*%
X42155000Y-21100000D02*
X42155000Y-21342000D01*
X41785000Y-21342000D01*
X41785000Y-21672000D01*
X42155000Y-21672000D01*
X42155000Y-21900000D01*
X42105000Y-21950000D01*
X41305000Y-21950000D01*
X41255000Y-21900000D01*
X41255000Y-21100000D01*
X41305000Y-21050000D01*
X42105000Y-21050000D01*
X42155000Y-21100000D01*
G36*
X42155000Y-21100000D02*
G01*
X42155000Y-21342000D01*
X41785000Y-21342000D01*
X41785000Y-21672000D01*
X42155000Y-21672000D01*
X42155000Y-21900000D01*
X42105000Y-21950000D01*
X41305000Y-21950000D01*
X41255000Y-21900000D01*
X41255000Y-21100000D01*
X41305000Y-21050000D01*
X42105000Y-21050000D01*
X42155000Y-21100000D01*
G37*
X43745000Y-21100000D02*
X43745000Y-21900000D01*
X43695000Y-21950000D01*
X42905000Y-21950000D01*
X42855000Y-21900000D01*
X42855000Y-21672000D01*
X43235000Y-21672000D01*
X43235000Y-21342000D01*
X42855000Y-21342000D01*
X42855000Y-21100000D01*
X42905000Y-21050000D01*
X43695000Y-21050000D01*
X43745000Y-21100000D01*
G36*
X43745000Y-21100000D02*
G01*
X43745000Y-21900000D01*
X43695000Y-21950000D01*
X42905000Y-21950000D01*
X42855000Y-21900000D01*
X42855000Y-21672000D01*
X43235000Y-21672000D01*
X43235000Y-21342000D01*
X42855000Y-21342000D01*
X42855000Y-21100000D01*
X42905000Y-21050000D01*
X43695000Y-21050000D01*
X43745000Y-21100000D01*
G37*
%TO.C,R27*%
X13155000Y-7100000D02*
X13155000Y-7342000D01*
X12785000Y-7342000D01*
X12785000Y-7672000D01*
X13155000Y-7672000D01*
X13155000Y-7900000D01*
X13105000Y-7950000D01*
X12305000Y-7950000D01*
X12255000Y-7900000D01*
X12255000Y-7100000D01*
X12305000Y-7050000D01*
X13105000Y-7050000D01*
X13155000Y-7100000D01*
G36*
X13155000Y-7100000D02*
G01*
X13155000Y-7342000D01*
X12785000Y-7342000D01*
X12785000Y-7672000D01*
X13155000Y-7672000D01*
X13155000Y-7900000D01*
X13105000Y-7950000D01*
X12305000Y-7950000D01*
X12255000Y-7900000D01*
X12255000Y-7100000D01*
X12305000Y-7050000D01*
X13105000Y-7050000D01*
X13155000Y-7100000D01*
G37*
X14745000Y-7100000D02*
X14745000Y-7900000D01*
X14695000Y-7950000D01*
X13905000Y-7950000D01*
X13855000Y-7900000D01*
X13855000Y-7672000D01*
X14235000Y-7672000D01*
X14235000Y-7342000D01*
X13855000Y-7342000D01*
X13855000Y-7100000D01*
X13905000Y-7050000D01*
X14695000Y-7050000D01*
X14745000Y-7100000D01*
G36*
X14745000Y-7100000D02*
G01*
X14745000Y-7900000D01*
X14695000Y-7950000D01*
X13905000Y-7950000D01*
X13855000Y-7900000D01*
X13855000Y-7672000D01*
X14235000Y-7672000D01*
X14235000Y-7342000D01*
X13855000Y-7342000D01*
X13855000Y-7100000D01*
X13905000Y-7050000D01*
X14695000Y-7050000D01*
X14745000Y-7100000D01*
G37*
%TO.C,R34*%
X33450000Y-18805000D02*
X33450000Y-19595000D01*
X33400000Y-19645000D01*
X33172000Y-19645000D01*
X33172000Y-19265000D01*
X32842000Y-19265000D01*
X32842000Y-19645000D01*
X32600000Y-19645000D01*
X32550000Y-19595000D01*
X32550000Y-18805000D01*
X32600000Y-18755000D01*
X33400000Y-18755000D01*
X33450000Y-18805000D01*
G36*
X33450000Y-18805000D02*
G01*
X33450000Y-19595000D01*
X33400000Y-19645000D01*
X33172000Y-19645000D01*
X33172000Y-19265000D01*
X32842000Y-19265000D01*
X32842000Y-19645000D01*
X32600000Y-19645000D01*
X32550000Y-19595000D01*
X32550000Y-18805000D01*
X32600000Y-18755000D01*
X33400000Y-18755000D01*
X33450000Y-18805000D01*
G37*
X32842000Y-20715000D02*
X33172000Y-20715000D01*
X33172000Y-20345000D01*
X33400000Y-20345000D01*
X33450000Y-20395000D01*
X33450000Y-21195000D01*
X33400000Y-21245000D01*
X32600000Y-21245000D01*
X32550000Y-21195000D01*
X32550000Y-20395000D01*
X32600000Y-20345000D01*
X32842000Y-20345000D01*
X32842000Y-20715000D01*
G36*
X32842000Y-20715000D02*
G01*
X33172000Y-20715000D01*
X33172000Y-20345000D01*
X33400000Y-20345000D01*
X33450000Y-20395000D01*
X33450000Y-21195000D01*
X33400000Y-21245000D01*
X32600000Y-21245000D01*
X32550000Y-21195000D01*
X32550000Y-20395000D01*
X32600000Y-20345000D01*
X32842000Y-20345000D01*
X32842000Y-20715000D01*
G37*
%TO.C,R19*%
X90450000Y-20558000D02*
X90450000Y-21348000D01*
X90400000Y-21398000D01*
X90172000Y-21398000D01*
X90172000Y-21018000D01*
X89842000Y-21018000D01*
X89842000Y-21398000D01*
X89600000Y-21398000D01*
X89550000Y-21348000D01*
X89550000Y-20558000D01*
X89600000Y-20508000D01*
X90400000Y-20508000D01*
X90450000Y-20558000D01*
G36*
X90450000Y-20558000D02*
G01*
X90450000Y-21348000D01*
X90400000Y-21398000D01*
X90172000Y-21398000D01*
X90172000Y-21018000D01*
X89842000Y-21018000D01*
X89842000Y-21398000D01*
X89600000Y-21398000D01*
X89550000Y-21348000D01*
X89550000Y-20558000D01*
X89600000Y-20508000D01*
X90400000Y-20508000D01*
X90450000Y-20558000D01*
G37*
X89842000Y-22468000D02*
X90172000Y-22468000D01*
X90172000Y-22098000D01*
X90400000Y-22098000D01*
X90450000Y-22148000D01*
X90450000Y-22948000D01*
X90400000Y-22998000D01*
X89600000Y-22998000D01*
X89550000Y-22948000D01*
X89550000Y-22148000D01*
X89600000Y-22098000D01*
X89842000Y-22098000D01*
X89842000Y-22468000D01*
G36*
X89842000Y-22468000D02*
G01*
X90172000Y-22468000D01*
X90172000Y-22098000D01*
X90400000Y-22098000D01*
X90450000Y-22148000D01*
X90450000Y-22948000D01*
X90400000Y-22998000D01*
X89600000Y-22998000D01*
X89550000Y-22948000D01*
X89550000Y-22148000D01*
X89600000Y-22098000D01*
X89842000Y-22098000D01*
X89842000Y-22468000D01*
G37*
%TO.C,R3*%
X67155000Y-21400000D02*
X67155000Y-21642000D01*
X66785000Y-21642000D01*
X66785000Y-21972000D01*
X67155000Y-21972000D01*
X67155000Y-22200000D01*
X67105000Y-22250000D01*
X66305000Y-22250000D01*
X66255000Y-22200000D01*
X66255000Y-21400000D01*
X66305000Y-21350000D01*
X67105000Y-21350000D01*
X67155000Y-21400000D01*
G36*
X67155000Y-21400000D02*
G01*
X67155000Y-21642000D01*
X66785000Y-21642000D01*
X66785000Y-21972000D01*
X67155000Y-21972000D01*
X67155000Y-22200000D01*
X67105000Y-22250000D01*
X66305000Y-22250000D01*
X66255000Y-22200000D01*
X66255000Y-21400000D01*
X66305000Y-21350000D01*
X67105000Y-21350000D01*
X67155000Y-21400000D01*
G37*
X68745000Y-21400000D02*
X68745000Y-22200000D01*
X68695000Y-22250000D01*
X67905000Y-22250000D01*
X67855000Y-22200000D01*
X67855000Y-21972000D01*
X68235000Y-21972000D01*
X68235000Y-21642000D01*
X67855000Y-21642000D01*
X67855000Y-21400000D01*
X67905000Y-21350000D01*
X68695000Y-21350000D01*
X68745000Y-21400000D01*
G36*
X68745000Y-21400000D02*
G01*
X68745000Y-22200000D01*
X68695000Y-22250000D01*
X67905000Y-22250000D01*
X67855000Y-22200000D01*
X67855000Y-21972000D01*
X68235000Y-21972000D01*
X68235000Y-21642000D01*
X67855000Y-21642000D01*
X67855000Y-21400000D01*
X67905000Y-21350000D01*
X68695000Y-21350000D01*
X68745000Y-21400000D01*
G37*
%TO.C,R6*%
X60855000Y-9100000D02*
X60855000Y-9342000D01*
X60485000Y-9342000D01*
X60485000Y-9672000D01*
X60855000Y-9672000D01*
X60855000Y-9900000D01*
X60805000Y-9950000D01*
X60005000Y-9950000D01*
X59955000Y-9900000D01*
X59955000Y-9100000D01*
X60005000Y-9050000D01*
X60805000Y-9050000D01*
X60855000Y-9100000D01*
G36*
X60855000Y-9100000D02*
G01*
X60855000Y-9342000D01*
X60485000Y-9342000D01*
X60485000Y-9672000D01*
X60855000Y-9672000D01*
X60855000Y-9900000D01*
X60805000Y-9950000D01*
X60005000Y-9950000D01*
X59955000Y-9900000D01*
X59955000Y-9100000D01*
X60005000Y-9050000D01*
X60805000Y-9050000D01*
X60855000Y-9100000D01*
G37*
X62445000Y-9100000D02*
X62445000Y-9900000D01*
X62395000Y-9950000D01*
X61605000Y-9950000D01*
X61555000Y-9900000D01*
X61555000Y-9672000D01*
X61935000Y-9672000D01*
X61935000Y-9342000D01*
X61555000Y-9342000D01*
X61555000Y-9100000D01*
X61605000Y-9050000D01*
X62395000Y-9050000D01*
X62445000Y-9100000D01*
G36*
X62445000Y-9100000D02*
G01*
X62445000Y-9900000D01*
X62395000Y-9950000D01*
X61605000Y-9950000D01*
X61555000Y-9900000D01*
X61555000Y-9672000D01*
X61935000Y-9672000D01*
X61935000Y-9342000D01*
X61555000Y-9342000D01*
X61555000Y-9100000D01*
X61605000Y-9050000D01*
X62395000Y-9050000D01*
X62445000Y-9100000D01*
G37*
%TO.C,R8*%
X35450000Y-18805000D02*
X35450000Y-19595000D01*
X35400000Y-19645000D01*
X35172000Y-19645000D01*
X35172000Y-19265000D01*
X34842000Y-19265000D01*
X34842000Y-19645000D01*
X34600000Y-19645000D01*
X34550000Y-19595000D01*
X34550000Y-18805000D01*
X34600000Y-18755000D01*
X35400000Y-18755000D01*
X35450000Y-18805000D01*
G36*
X35450000Y-18805000D02*
G01*
X35450000Y-19595000D01*
X35400000Y-19645000D01*
X35172000Y-19645000D01*
X35172000Y-19265000D01*
X34842000Y-19265000D01*
X34842000Y-19645000D01*
X34600000Y-19645000D01*
X34550000Y-19595000D01*
X34550000Y-18805000D01*
X34600000Y-18755000D01*
X35400000Y-18755000D01*
X35450000Y-18805000D01*
G37*
X34842000Y-20715000D02*
X35172000Y-20715000D01*
X35172000Y-20345000D01*
X35400000Y-20345000D01*
X35450000Y-20395000D01*
X35450000Y-21195000D01*
X35400000Y-21245000D01*
X34600000Y-21245000D01*
X34550000Y-21195000D01*
X34550000Y-20395000D01*
X34600000Y-20345000D01*
X34842000Y-20345000D01*
X34842000Y-20715000D01*
G36*
X34842000Y-20715000D02*
G01*
X35172000Y-20715000D01*
X35172000Y-20345000D01*
X35400000Y-20345000D01*
X35450000Y-20395000D01*
X35450000Y-21195000D01*
X35400000Y-21245000D01*
X34600000Y-21245000D01*
X34550000Y-21195000D01*
X34550000Y-20395000D01*
X34600000Y-20345000D01*
X34842000Y-20345000D01*
X34842000Y-20715000D01*
G37*
%TO.C,R7*%
X37653000Y-18805000D02*
X37653000Y-19595000D01*
X37603000Y-19645000D01*
X37375000Y-19645000D01*
X37375000Y-19265000D01*
X37045000Y-19265000D01*
X37045000Y-19645000D01*
X36803000Y-19645000D01*
X36753000Y-19595000D01*
X36753000Y-18805000D01*
X36803000Y-18755000D01*
X37603000Y-18755000D01*
X37653000Y-18805000D01*
G36*
X37653000Y-18805000D02*
G01*
X37653000Y-19595000D01*
X37603000Y-19645000D01*
X37375000Y-19645000D01*
X37375000Y-19265000D01*
X37045000Y-19265000D01*
X37045000Y-19645000D01*
X36803000Y-19645000D01*
X36753000Y-19595000D01*
X36753000Y-18805000D01*
X36803000Y-18755000D01*
X37603000Y-18755000D01*
X37653000Y-18805000D01*
G37*
X37045000Y-20715000D02*
X37375000Y-20715000D01*
X37375000Y-20345000D01*
X37603000Y-20345000D01*
X37653000Y-20395000D01*
X37653000Y-21195000D01*
X37603000Y-21245000D01*
X36803000Y-21245000D01*
X36753000Y-21195000D01*
X36753000Y-20395000D01*
X36803000Y-20345000D01*
X37045000Y-20345000D01*
X37045000Y-20715000D01*
G36*
X37045000Y-20715000D02*
G01*
X37375000Y-20715000D01*
X37375000Y-20345000D01*
X37603000Y-20345000D01*
X37653000Y-20395000D01*
X37653000Y-21195000D01*
X37603000Y-21245000D01*
X36803000Y-21245000D01*
X36753000Y-21195000D01*
X36753000Y-20395000D01*
X36803000Y-20345000D01*
X37045000Y-20345000D01*
X37045000Y-20715000D01*
G37*
%TO.C,R38*%
X7655000Y-11100000D02*
X7655000Y-11342000D01*
X7285000Y-11342000D01*
X7285000Y-11672000D01*
X7655000Y-11672000D01*
X7655000Y-11900000D01*
X7605000Y-11950000D01*
X6805000Y-11950000D01*
X6755000Y-11900000D01*
X6755000Y-11100000D01*
X6805000Y-11050000D01*
X7605000Y-11050000D01*
X7655000Y-11100000D01*
G36*
X7655000Y-11100000D02*
G01*
X7655000Y-11342000D01*
X7285000Y-11342000D01*
X7285000Y-11672000D01*
X7655000Y-11672000D01*
X7655000Y-11900000D01*
X7605000Y-11950000D01*
X6805000Y-11950000D01*
X6755000Y-11900000D01*
X6755000Y-11100000D01*
X6805000Y-11050000D01*
X7605000Y-11050000D01*
X7655000Y-11100000D01*
G37*
X9245000Y-11100000D02*
X9245000Y-11900000D01*
X9195000Y-11950000D01*
X8405000Y-11950000D01*
X8355000Y-11900000D01*
X8355000Y-11672000D01*
X8735000Y-11672000D01*
X8735000Y-11342000D01*
X8355000Y-11342000D01*
X8355000Y-11100000D01*
X8405000Y-11050000D01*
X9195000Y-11050000D01*
X9245000Y-11100000D01*
G36*
X9245000Y-11100000D02*
G01*
X9245000Y-11900000D01*
X9195000Y-11950000D01*
X8405000Y-11950000D01*
X8355000Y-11900000D01*
X8355000Y-11672000D01*
X8735000Y-11672000D01*
X8735000Y-11342000D01*
X8355000Y-11342000D01*
X8355000Y-11100000D01*
X8405000Y-11050000D01*
X9195000Y-11050000D01*
X9245000Y-11100000D01*
G37*
%TO.C,R1*%
X7645000Y-7100000D02*
X7645000Y-7328000D01*
X7265000Y-7328000D01*
X7265000Y-7658000D01*
X7645000Y-7658000D01*
X7645000Y-7900000D01*
X7595000Y-7950000D01*
X6805000Y-7950000D01*
X6755000Y-7900000D01*
X6755000Y-7100000D01*
X6805000Y-7050000D01*
X7595000Y-7050000D01*
X7645000Y-7100000D01*
G36*
X7645000Y-7100000D02*
G01*
X7645000Y-7328000D01*
X7265000Y-7328000D01*
X7265000Y-7658000D01*
X7645000Y-7658000D01*
X7645000Y-7900000D01*
X7595000Y-7950000D01*
X6805000Y-7950000D01*
X6755000Y-7900000D01*
X6755000Y-7100000D01*
X6805000Y-7050000D01*
X7595000Y-7050000D01*
X7645000Y-7100000D01*
G37*
X9245000Y-7100000D02*
X9245000Y-7900000D01*
X9195000Y-7950000D01*
X8395000Y-7950000D01*
X8345000Y-7900000D01*
X8345000Y-7658000D01*
X8715000Y-7658000D01*
X8715000Y-7328000D01*
X8345000Y-7328000D01*
X8345000Y-7100000D01*
X8395000Y-7050000D01*
X9195000Y-7050000D01*
X9245000Y-7100000D01*
G36*
X9245000Y-7100000D02*
G01*
X9245000Y-7900000D01*
X9195000Y-7950000D01*
X8395000Y-7950000D01*
X8345000Y-7900000D01*
X8345000Y-7658000D01*
X8715000Y-7658000D01*
X8715000Y-7328000D01*
X8345000Y-7328000D01*
X8345000Y-7100000D01*
X8395000Y-7050000D01*
X9195000Y-7050000D01*
X9245000Y-7100000D01*
G37*
%TO.C,R35*%
X58450000Y-29805000D02*
X58450000Y-30595000D01*
X58400000Y-30645000D01*
X58172000Y-30645000D01*
X58172000Y-30265000D01*
X57842000Y-30265000D01*
X57842000Y-30645000D01*
X57600000Y-30645000D01*
X57550000Y-30595000D01*
X57550000Y-29805000D01*
X57600000Y-29755000D01*
X58400000Y-29755000D01*
X58450000Y-29805000D01*
G36*
X58450000Y-29805000D02*
G01*
X58450000Y-30595000D01*
X58400000Y-30645000D01*
X58172000Y-30645000D01*
X58172000Y-30265000D01*
X57842000Y-30265000D01*
X57842000Y-30645000D01*
X57600000Y-30645000D01*
X57550000Y-30595000D01*
X57550000Y-29805000D01*
X57600000Y-29755000D01*
X58400000Y-29755000D01*
X58450000Y-29805000D01*
G37*
X57842000Y-31715000D02*
X58172000Y-31715000D01*
X58172000Y-31345000D01*
X58400000Y-31345000D01*
X58450000Y-31395000D01*
X58450000Y-32195000D01*
X58400000Y-32245000D01*
X57600000Y-32245000D01*
X57550000Y-32195000D01*
X57550000Y-31395000D01*
X57600000Y-31345000D01*
X57842000Y-31345000D01*
X57842000Y-31715000D01*
G36*
X57842000Y-31715000D02*
G01*
X58172000Y-31715000D01*
X58172000Y-31345000D01*
X58400000Y-31345000D01*
X58450000Y-31395000D01*
X58450000Y-32195000D01*
X58400000Y-32245000D01*
X57600000Y-32245000D01*
X57550000Y-32195000D01*
X57550000Y-31395000D01*
X57600000Y-31345000D01*
X57842000Y-31345000D01*
X57842000Y-31715000D01*
G37*
%TO.C,R4*%
X7645000Y-9100000D02*
X7645000Y-9328000D01*
X7265000Y-9328000D01*
X7265000Y-9658000D01*
X7645000Y-9658000D01*
X7645000Y-9900000D01*
X7595000Y-9950000D01*
X6805000Y-9950000D01*
X6755000Y-9900000D01*
X6755000Y-9100000D01*
X6805000Y-9050000D01*
X7595000Y-9050000D01*
X7645000Y-9100000D01*
G36*
X7645000Y-9100000D02*
G01*
X7645000Y-9328000D01*
X7265000Y-9328000D01*
X7265000Y-9658000D01*
X7645000Y-9658000D01*
X7645000Y-9900000D01*
X7595000Y-9950000D01*
X6805000Y-9950000D01*
X6755000Y-9900000D01*
X6755000Y-9100000D01*
X6805000Y-9050000D01*
X7595000Y-9050000D01*
X7645000Y-9100000D01*
G37*
X9245000Y-9100000D02*
X9245000Y-9900000D01*
X9195000Y-9950000D01*
X8395000Y-9950000D01*
X8345000Y-9900000D01*
X8345000Y-9658000D01*
X8715000Y-9658000D01*
X8715000Y-9328000D01*
X8345000Y-9328000D01*
X8345000Y-9100000D01*
X8395000Y-9050000D01*
X9195000Y-9050000D01*
X9245000Y-9100000D01*
G36*
X9245000Y-9100000D02*
G01*
X9245000Y-9900000D01*
X9195000Y-9950000D01*
X8395000Y-9950000D01*
X8345000Y-9900000D01*
X8345000Y-9658000D01*
X8715000Y-9658000D01*
X8715000Y-9328000D01*
X8345000Y-9328000D01*
X8345000Y-9100000D01*
X8395000Y-9050000D01*
X9195000Y-9050000D01*
X9245000Y-9100000D01*
G37*
%TO.C,R37*%
X7645000Y-13100000D02*
X7645000Y-13328000D01*
X7265000Y-13328000D01*
X7265000Y-13658000D01*
X7645000Y-13658000D01*
X7645000Y-13900000D01*
X7595000Y-13950000D01*
X6805000Y-13950000D01*
X6755000Y-13900000D01*
X6755000Y-13100000D01*
X6805000Y-13050000D01*
X7595000Y-13050000D01*
X7645000Y-13100000D01*
G36*
X7645000Y-13100000D02*
G01*
X7645000Y-13328000D01*
X7265000Y-13328000D01*
X7265000Y-13658000D01*
X7645000Y-13658000D01*
X7645000Y-13900000D01*
X7595000Y-13950000D01*
X6805000Y-13950000D01*
X6755000Y-13900000D01*
X6755000Y-13100000D01*
X6805000Y-13050000D01*
X7595000Y-13050000D01*
X7645000Y-13100000D01*
G37*
X9245000Y-13100000D02*
X9245000Y-13900000D01*
X9195000Y-13950000D01*
X8395000Y-13950000D01*
X8345000Y-13900000D01*
X8345000Y-13658000D01*
X8715000Y-13658000D01*
X8715000Y-13328000D01*
X8345000Y-13328000D01*
X8345000Y-13100000D01*
X8395000Y-13050000D01*
X9195000Y-13050000D01*
X9245000Y-13100000D01*
G36*
X9245000Y-13100000D02*
G01*
X9245000Y-13900000D01*
X9195000Y-13950000D01*
X8395000Y-13950000D01*
X8345000Y-13900000D01*
X8345000Y-13658000D01*
X8715000Y-13658000D01*
X8715000Y-13328000D01*
X8345000Y-13328000D01*
X8345000Y-13100000D01*
X8395000Y-13050000D01*
X9195000Y-13050000D01*
X9245000Y-13100000D01*
G37*
%TO.C,R13*%
X88655000Y-29600000D02*
X88655000Y-29842000D01*
X88285000Y-29842000D01*
X88285000Y-30172000D01*
X88655000Y-30172000D01*
X88655000Y-30400000D01*
X88605000Y-30450000D01*
X87805000Y-30450000D01*
X87755000Y-30400000D01*
X87755000Y-29600000D01*
X87805000Y-29550000D01*
X88605000Y-29550000D01*
X88655000Y-29600000D01*
G36*
X88655000Y-29600000D02*
G01*
X88655000Y-29842000D01*
X88285000Y-29842000D01*
X88285000Y-30172000D01*
X88655000Y-30172000D01*
X88655000Y-30400000D01*
X88605000Y-30450000D01*
X87805000Y-30450000D01*
X87755000Y-30400000D01*
X87755000Y-29600000D01*
X87805000Y-29550000D01*
X88605000Y-29550000D01*
X88655000Y-29600000D01*
G37*
X90245000Y-29600000D02*
X90245000Y-30400000D01*
X90195000Y-30450000D01*
X89405000Y-30450000D01*
X89355000Y-30400000D01*
X89355000Y-30172000D01*
X89735000Y-30172000D01*
X89735000Y-29842000D01*
X89355000Y-29842000D01*
X89355000Y-29600000D01*
X89405000Y-29550000D01*
X90195000Y-29550000D01*
X90245000Y-29600000D01*
G36*
X90245000Y-29600000D02*
G01*
X90245000Y-30400000D01*
X90195000Y-30450000D01*
X89405000Y-30450000D01*
X89355000Y-30400000D01*
X89355000Y-30172000D01*
X89735000Y-30172000D01*
X89735000Y-29842000D01*
X89355000Y-29842000D01*
X89355000Y-29600000D01*
X89405000Y-29550000D01*
X90195000Y-29550000D01*
X90245000Y-29600000D01*
G37*
%TO.C,R18*%
X88655000Y-25100000D02*
X88655000Y-25342000D01*
X88285000Y-25342000D01*
X88285000Y-25672000D01*
X88655000Y-25672000D01*
X88655000Y-25900000D01*
X88605000Y-25950000D01*
X87805000Y-25950000D01*
X87755000Y-25900000D01*
X87755000Y-25100000D01*
X87805000Y-25050000D01*
X88605000Y-25050000D01*
X88655000Y-25100000D01*
G36*
X88655000Y-25100000D02*
G01*
X88655000Y-25342000D01*
X88285000Y-25342000D01*
X88285000Y-25672000D01*
X88655000Y-25672000D01*
X88655000Y-25900000D01*
X88605000Y-25950000D01*
X87805000Y-25950000D01*
X87755000Y-25900000D01*
X87755000Y-25100000D01*
X87805000Y-25050000D01*
X88605000Y-25050000D01*
X88655000Y-25100000D01*
G37*
X90245000Y-25100000D02*
X90245000Y-25900000D01*
X90195000Y-25950000D01*
X89405000Y-25950000D01*
X89355000Y-25900000D01*
X89355000Y-25672000D01*
X89735000Y-25672000D01*
X89735000Y-25342000D01*
X89355000Y-25342000D01*
X89355000Y-25100000D01*
X89405000Y-25050000D01*
X90195000Y-25050000D01*
X90245000Y-25100000D01*
G36*
X90245000Y-25100000D02*
G01*
X90245000Y-25900000D01*
X90195000Y-25950000D01*
X89405000Y-25950000D01*
X89355000Y-25900000D01*
X89355000Y-25672000D01*
X89735000Y-25672000D01*
X89735000Y-25342000D01*
X89355000Y-25342000D01*
X89355000Y-25100000D01*
X89405000Y-25050000D01*
X90195000Y-25050000D01*
X90245000Y-25100000D01*
G37*
%TO.C,R26*%
X16155000Y-21600000D02*
X16155000Y-21842000D01*
X15785000Y-21842000D01*
X15785000Y-22172000D01*
X16155000Y-22172000D01*
X16155000Y-22400000D01*
X16105000Y-22450000D01*
X15305000Y-22450000D01*
X15255000Y-22400000D01*
X15255000Y-21600000D01*
X15305000Y-21550000D01*
X16105000Y-21550000D01*
X16155000Y-21600000D01*
G36*
X16155000Y-21600000D02*
G01*
X16155000Y-21842000D01*
X15785000Y-21842000D01*
X15785000Y-22172000D01*
X16155000Y-22172000D01*
X16155000Y-22400000D01*
X16105000Y-22450000D01*
X15305000Y-22450000D01*
X15255000Y-22400000D01*
X15255000Y-21600000D01*
X15305000Y-21550000D01*
X16105000Y-21550000D01*
X16155000Y-21600000D01*
G37*
X17745000Y-21600000D02*
X17745000Y-22400000D01*
X17695000Y-22450000D01*
X16905000Y-22450000D01*
X16855000Y-22400000D01*
X16855000Y-22172000D01*
X17235000Y-22172000D01*
X17235000Y-21842000D01*
X16855000Y-21842000D01*
X16855000Y-21600000D01*
X16905000Y-21550000D01*
X17695000Y-21550000D01*
X17745000Y-21600000D01*
G36*
X17745000Y-21600000D02*
G01*
X17745000Y-22400000D01*
X17695000Y-22450000D01*
X16905000Y-22450000D01*
X16855000Y-22400000D01*
X16855000Y-22172000D01*
X17235000Y-22172000D01*
X17235000Y-21842000D01*
X16855000Y-21842000D01*
X16855000Y-21600000D01*
X16905000Y-21550000D01*
X17695000Y-21550000D01*
X17745000Y-21600000D01*
G37*
%TO.C,J5*%
X93186500Y-26400000D02*
X91896500Y-26400000D01*
X91896500Y-26100000D01*
X93186500Y-26100000D01*
X93186500Y-26400000D01*
G36*
X93186500Y-26400000D02*
G01*
X91896500Y-26400000D01*
X91896500Y-26100000D01*
X93186500Y-26100000D01*
X93186500Y-26400000D01*
G37*
X93186500Y-26900000D02*
X91896500Y-26900000D01*
X91896500Y-26600000D01*
X93186500Y-26600000D01*
X93186500Y-26900000D01*
G36*
X93186500Y-26900000D02*
G01*
X91896500Y-26900000D01*
X91896500Y-26600000D01*
X93186500Y-26600000D01*
X93186500Y-26900000D01*
G37*
X93186500Y-27400000D02*
X91896500Y-27400000D01*
X91896500Y-27100000D01*
X93186500Y-27100000D01*
X93186500Y-27400000D01*
G36*
X93186500Y-27400000D02*
G01*
X91896500Y-27400000D01*
X91896500Y-27100000D01*
X93186500Y-27100000D01*
X93186500Y-27400000D01*
G37*
X93186500Y-27900000D02*
X91896500Y-27900000D01*
X91896500Y-27600000D01*
X93186500Y-27600000D01*
X93186500Y-27900000D01*
G36*
X93186500Y-27900000D02*
G01*
X91896500Y-27900000D01*
X91896500Y-27600000D01*
X93186500Y-27600000D01*
X93186500Y-27900000D01*
G37*
X93186500Y-28400000D02*
X91896500Y-28400000D01*
X91896500Y-28100000D01*
X93186500Y-28100000D01*
X93186500Y-28400000D01*
G36*
X93186500Y-28400000D02*
G01*
X91896500Y-28400000D01*
X91896500Y-28100000D01*
X93186500Y-28100000D01*
X93186500Y-28400000D01*
G37*
X93186500Y-28900000D02*
X91896500Y-28900000D01*
X91896500Y-28600000D01*
X93186500Y-28600000D01*
X93186500Y-28900000D01*
G36*
X93186500Y-28900000D02*
G01*
X91896500Y-28900000D01*
X91896500Y-28600000D01*
X93186500Y-28600000D01*
X93186500Y-28900000D01*
G37*
X93186500Y-29900000D02*
X91896500Y-29900000D01*
X91896500Y-29600000D01*
X93186500Y-29600000D01*
X93186500Y-29900000D01*
G36*
X93186500Y-29900000D02*
G01*
X91896500Y-29900000D01*
X91896500Y-29600000D01*
X93186500Y-29600000D01*
X93186500Y-29900000D01*
G37*
X93221500Y-29430000D02*
X91931500Y-29430000D01*
X91931500Y-29130000D01*
X93221500Y-29130000D01*
X93221500Y-29430000D01*
G36*
X93221500Y-29430000D02*
G01*
X91931500Y-29430000D01*
X91931500Y-29130000D01*
X93221500Y-29130000D01*
X93221500Y-29430000D01*
G37*
X93136500Y-25050000D02*
X91946500Y-25050000D01*
X91946500Y-24550000D01*
X93136500Y-24550000D01*
X93136500Y-25050000D01*
G36*
X93136500Y-25050000D02*
G01*
X91946500Y-25050000D01*
X91946500Y-24550000D01*
X93136500Y-24550000D01*
X93136500Y-25050000D01*
G37*
X93136500Y-25850000D02*
X91946500Y-25850000D01*
X91946500Y-25350000D01*
X93136500Y-25350000D01*
X93136500Y-25850000D01*
G36*
X93136500Y-25850000D02*
G01*
X91946500Y-25850000D01*
X91946500Y-25350000D01*
X93136500Y-25350000D01*
X93136500Y-25850000D01*
G37*
X93136500Y-30650000D02*
X91946500Y-30650000D01*
X91946500Y-30150000D01*
X93136500Y-30150000D01*
X93136500Y-30650000D01*
G36*
X93136500Y-30650000D02*
G01*
X91946500Y-30650000D01*
X91946500Y-30150000D01*
X93136500Y-30150000D01*
X93136500Y-30650000D01*
G37*
X93136500Y-31450000D02*
X91946500Y-31450000D01*
X91946500Y-30950000D01*
X93136500Y-30950000D01*
X93136500Y-31450000D01*
G36*
X93136500Y-31450000D02*
G01*
X91946500Y-31450000D01*
X91946500Y-30950000D01*
X93136500Y-30950000D01*
X93136500Y-31450000D01*
G37*
X93708500Y-23092000D02*
X93820500Y-23128000D01*
X93923500Y-23185000D01*
X94013500Y-23260000D01*
X94087500Y-23352000D01*
X94141500Y-23456000D01*
X94174500Y-23569000D01*
X94184500Y-23686000D01*
X94171500Y-23803000D01*
X94136500Y-23915000D01*
X94079500Y-24019000D01*
X94004500Y-24109000D01*
X93912500Y-24182000D01*
X93808500Y-24236000D01*
X93695500Y-24269000D01*
X93591500Y-24280000D01*
X92791500Y-24280000D01*
X92674500Y-24267000D01*
X92562500Y-24231000D01*
X92459500Y-24175000D01*
X92369500Y-24099000D01*
X92295500Y-24007000D01*
X92241500Y-23903000D01*
X92208500Y-23790000D01*
X92198500Y-23673000D01*
X92211500Y-23556000D01*
X92246500Y-23444000D01*
X92303500Y-23341000D01*
X92378500Y-23251000D01*
X92470500Y-23177000D01*
X92574500Y-23123000D01*
X92687500Y-23090000D01*
X92791500Y-23080000D01*
X93591500Y-23080000D01*
X93708500Y-23092000D01*
G36*
X93708500Y-23092000D02*
G01*
X93820500Y-23128000D01*
X93923500Y-23185000D01*
X94013500Y-23260000D01*
X94087500Y-23352000D01*
X94141500Y-23456000D01*
X94174500Y-23569000D01*
X94184500Y-23686000D01*
X94171500Y-23803000D01*
X94136500Y-23915000D01*
X94079500Y-24019000D01*
X94004500Y-24109000D01*
X93912500Y-24182000D01*
X93808500Y-24236000D01*
X93695500Y-24269000D01*
X93591500Y-24280000D01*
X92791500Y-24280000D01*
X92674500Y-24267000D01*
X92562500Y-24231000D01*
X92459500Y-24175000D01*
X92369500Y-24099000D01*
X92295500Y-24007000D01*
X92241500Y-23903000D01*
X92208500Y-23790000D01*
X92198500Y-23673000D01*
X92211500Y-23556000D01*
X92246500Y-23444000D01*
X92303500Y-23341000D01*
X92378500Y-23251000D01*
X92470500Y-23177000D01*
X92574500Y-23123000D01*
X92687500Y-23090000D01*
X92791500Y-23080000D01*
X93591500Y-23080000D01*
X93708500Y-23092000D01*
G37*
X93708500Y-31731000D02*
X93821500Y-31765000D01*
X93924500Y-31821000D01*
X94015500Y-31895000D01*
X94090500Y-31986000D01*
X94145500Y-32090000D01*
X94180500Y-32203000D01*
X94191500Y-32320000D01*
X94180500Y-32437000D01*
X94145500Y-32549000D01*
X94090500Y-32653000D01*
X94015500Y-32744000D01*
X93924500Y-32819000D01*
X93821500Y-32874000D01*
X93708500Y-32908000D01*
X93591500Y-32920000D01*
X92791500Y-32920000D01*
X92674500Y-32908000D01*
X92561500Y-32874000D01*
X92458500Y-32819000D01*
X92367500Y-32744000D01*
X92292500Y-32653000D01*
X92237500Y-32549000D01*
X92203500Y-32437000D01*
X92191500Y-32320000D01*
X92203500Y-32203000D01*
X92237500Y-32090000D01*
X92292500Y-31986000D01*
X92367500Y-31895000D01*
X92458500Y-31821000D01*
X92561500Y-31765000D01*
X92674500Y-31731000D01*
X92791500Y-31720000D01*
X93591500Y-31720000D01*
X93708500Y-31731000D01*
G36*
X93708500Y-31731000D02*
G01*
X93821500Y-31765000D01*
X93924500Y-31821000D01*
X94015500Y-31895000D01*
X94090500Y-31986000D01*
X94145500Y-32090000D01*
X94180500Y-32203000D01*
X94191500Y-32320000D01*
X94180500Y-32437000D01*
X94145500Y-32549000D01*
X94090500Y-32653000D01*
X94015500Y-32744000D01*
X93924500Y-32819000D01*
X93821500Y-32874000D01*
X93708500Y-32908000D01*
X93591500Y-32920000D01*
X92791500Y-32920000D01*
X92674500Y-32908000D01*
X92561500Y-32874000D01*
X92458500Y-32819000D01*
X92367500Y-32744000D01*
X92292500Y-32653000D01*
X92237500Y-32549000D01*
X92203500Y-32437000D01*
X92191500Y-32320000D01*
X92203500Y-32203000D01*
X92237500Y-32090000D01*
X92292500Y-31986000D01*
X92367500Y-31895000D01*
X92458500Y-31821000D01*
X92561500Y-31765000D01*
X92674500Y-31731000D01*
X92791500Y-31720000D01*
X93591500Y-31720000D01*
X93708500Y-31731000D01*
G37*
X97788500Y-23092000D02*
X97900500Y-23128000D01*
X98003500Y-23185000D01*
X98093500Y-23260000D01*
X98167500Y-23352000D01*
X98221500Y-23456000D01*
X98254500Y-23569000D01*
X98264500Y-23686000D01*
X98252500Y-23803000D01*
X98216500Y-23915000D01*
X98160500Y-24019000D01*
X98084500Y-24109000D01*
X97992500Y-24182000D01*
X97888500Y-24236000D01*
X97775500Y-24269000D01*
X97671500Y-24280000D01*
X97071500Y-24280000D01*
X96954500Y-24267000D01*
X96842500Y-24231000D01*
X96739500Y-24175000D01*
X96649500Y-24099000D01*
X96575500Y-24007000D01*
X96521500Y-23903000D01*
X96488500Y-23790000D01*
X96478500Y-23673000D01*
X96491500Y-23556000D01*
X96526500Y-23444000D01*
X96583500Y-23341000D01*
X96659500Y-23251000D01*
X96750500Y-23177000D01*
X96855500Y-23123000D01*
X96968500Y-23090000D01*
X97071500Y-23080000D01*
X97671500Y-23080000D01*
X97788500Y-23092000D01*
G36*
X97788500Y-23092000D02*
G01*
X97900500Y-23128000D01*
X98003500Y-23185000D01*
X98093500Y-23260000D01*
X98167500Y-23352000D01*
X98221500Y-23456000D01*
X98254500Y-23569000D01*
X98264500Y-23686000D01*
X98252500Y-23803000D01*
X98216500Y-23915000D01*
X98160500Y-24019000D01*
X98084500Y-24109000D01*
X97992500Y-24182000D01*
X97888500Y-24236000D01*
X97775500Y-24269000D01*
X97671500Y-24280000D01*
X97071500Y-24280000D01*
X96954500Y-24267000D01*
X96842500Y-24231000D01*
X96739500Y-24175000D01*
X96649500Y-24099000D01*
X96575500Y-24007000D01*
X96521500Y-23903000D01*
X96488500Y-23790000D01*
X96478500Y-23673000D01*
X96491500Y-23556000D01*
X96526500Y-23444000D01*
X96583500Y-23341000D01*
X96659500Y-23251000D01*
X96750500Y-23177000D01*
X96855500Y-23123000D01*
X96968500Y-23090000D01*
X97071500Y-23080000D01*
X97671500Y-23080000D01*
X97788500Y-23092000D01*
G37*
X97788500Y-31731000D02*
X97901500Y-31765000D01*
X98005500Y-31821000D01*
X98095500Y-31895000D01*
X98170500Y-31986000D01*
X98226500Y-32090000D01*
X98260500Y-32203000D01*
X98271500Y-32320000D01*
X98260500Y-32437000D01*
X98226500Y-32549000D01*
X98170500Y-32653000D01*
X98095500Y-32744000D01*
X98005500Y-32819000D01*
X97901500Y-32874000D01*
X97788500Y-32908000D01*
X97671500Y-32920000D01*
X97071500Y-32920000D01*
X96954500Y-32908000D01*
X96842500Y-32874000D01*
X96738500Y-32819000D01*
X96647500Y-32744000D01*
X96572500Y-32653000D01*
X96517500Y-32549000D01*
X96483500Y-32437000D01*
X96471500Y-32320000D01*
X96483500Y-32203000D01*
X96517500Y-32090000D01*
X96572500Y-31986000D01*
X96647500Y-31895000D01*
X96738500Y-31821000D01*
X96842500Y-31765000D01*
X96954500Y-31731000D01*
X97071500Y-31720000D01*
X97671500Y-31720000D01*
X97788500Y-31731000D01*
G36*
X97788500Y-31731000D02*
G01*
X97901500Y-31765000D01*
X98005500Y-31821000D01*
X98095500Y-31895000D01*
X98170500Y-31986000D01*
X98226500Y-32090000D01*
X98260500Y-32203000D01*
X98271500Y-32320000D01*
X98260500Y-32437000D01*
X98226500Y-32549000D01*
X98170500Y-32653000D01*
X98095500Y-32744000D01*
X98005500Y-32819000D01*
X97901500Y-32874000D01*
X97788500Y-32908000D01*
X97671500Y-32920000D01*
X97071500Y-32920000D01*
X96954500Y-32908000D01*
X96842500Y-32874000D01*
X96738500Y-32819000D01*
X96647500Y-32744000D01*
X96572500Y-32653000D01*
X96517500Y-32549000D01*
X96483500Y-32437000D01*
X96471500Y-32320000D01*
X96483500Y-32203000D01*
X96517500Y-32090000D01*
X96572500Y-31986000D01*
X96647500Y-31895000D01*
X96738500Y-31821000D01*
X96842500Y-31765000D01*
X96954500Y-31731000D01*
X97071500Y-31720000D01*
X97671500Y-31720000D01*
X97788500Y-31731000D01*
G37*
%TD*%
D11*
%TO.C,R36*%
X63250000Y-30247000D03*
X63250000Y-31753000D03*
%TD*%
D12*
%TO.C,J4*%
X27501000Y-24721000D03*
X27001000Y-24721000D03*
X26500000Y-24721000D03*
X26000000Y-24721000D03*
X25499000Y-24721000D03*
X24999000Y-24721000D03*
X24501000Y-24721000D03*
X24001000Y-24721000D03*
X23500000Y-24721000D03*
X23000000Y-24721000D03*
X22500000Y-24721000D03*
X21999000Y-24721000D03*
X21501000Y-24721000D03*
X21001000Y-24721000D03*
X20501000Y-24721000D03*
X20000000Y-24721000D03*
X19500000Y-24721000D03*
X19000000Y-24721000D03*
X18499000Y-24721000D03*
%TD*%
D13*
%TO.C,R2*%
X43253000Y-21500000D03*
X41747000Y-21500000D03*
%TD*%
D14*
%TO.C,C11*%
X59750000Y-31700000D03*
X59750000Y-30300000D03*
%TD*%
D15*
%TO.C,C9*%
X85000000Y-13800000D03*
X83600000Y-13800000D03*
%TD*%
D13*
%TO.C,R27*%
X14253000Y-7500000D03*
X12747000Y-7500000D03*
%TD*%
D11*
%TO.C,R34*%
X33000000Y-19247000D03*
X33000000Y-20753000D03*
%TD*%
%TO.C,R19*%
X90000000Y-21000000D03*
X90000000Y-22506000D03*
%TD*%
D15*
%TO.C,C1*%
X36800000Y-23000000D03*
X38200000Y-23000000D03*
%TD*%
D16*
%TO.C,U2*%
X87900000Y-17735000D03*
X90200000Y-17735000D03*
X92500000Y-17735000D03*
D17*
X90200000Y-12065000D03*
%TD*%
D13*
%TO.C,R3*%
X68253000Y-21800000D03*
X66747000Y-21800000D03*
%TD*%
%TO.C,R6*%
X61953000Y-9500000D03*
X60447000Y-9500000D03*
%TD*%
D18*
%TO.C,SW3*%
X5000000Y-28000000D03*
X13000000Y-28000000D03*
%TD*%
D11*
%TO.C,R8*%
X35000000Y-19247000D03*
X35000000Y-20753000D03*
%TD*%
%TO.C,R7*%
X37203000Y-19247000D03*
X37203000Y-20753000D03*
%TD*%
D13*
%TO.C,R38*%
X8753000Y-11500000D03*
X7247000Y-11500000D03*
%TD*%
D15*
%TO.C,C8*%
X85000000Y-11900000D03*
X83600000Y-11900000D03*
%TD*%
D18*
%TO.C,SW4*%
X5000000Y-33000000D03*
X13000000Y-33000000D03*
%TD*%
D14*
%TO.C,C10*%
X31000000Y-20700000D03*
X31000000Y-19300000D03*
%TD*%
D13*
%TO.C,R1*%
X7247000Y-7500000D03*
X8753000Y-7500000D03*
%TD*%
D12*
%TO.C,J3*%
X52501000Y-24721000D03*
X52001000Y-24721000D03*
X51500000Y-24721000D03*
X51000000Y-24721000D03*
X50499000Y-24721000D03*
X49999000Y-24721000D03*
X49501000Y-24721000D03*
X49001000Y-24721000D03*
X48500000Y-24721000D03*
X48000000Y-24721000D03*
X47500000Y-24721000D03*
X46999000Y-24721000D03*
X46501000Y-24721000D03*
X46001000Y-24721000D03*
X45501000Y-24721000D03*
X45000000Y-24721000D03*
X44500000Y-24721000D03*
X44000000Y-24721000D03*
X43499000Y-24721000D03*
%TD*%
D11*
%TO.C,R35*%
X58000000Y-30247000D03*
X58000000Y-31753000D03*
%TD*%
D13*
%TO.C,R4*%
X7247000Y-9500000D03*
X8753000Y-9500000D03*
%TD*%
%TO.C,R37*%
X7247000Y-13500000D03*
X8753000Y-13500000D03*
%TD*%
D12*
%TO.C,J1*%
X77501000Y-24721000D03*
X77001000Y-24721000D03*
X76500000Y-24721000D03*
X76000000Y-24721000D03*
X75499000Y-24721000D03*
X74999000Y-24721000D03*
X74501000Y-24721000D03*
X74001000Y-24721000D03*
X73500000Y-24721000D03*
X73000000Y-24721000D03*
X72500000Y-24721000D03*
X71999000Y-24721000D03*
X71501000Y-24721000D03*
X71001000Y-24721000D03*
X70501000Y-24721000D03*
X70000000Y-24721000D03*
X69500000Y-24721000D03*
X69000000Y-24721000D03*
X68499000Y-24721000D03*
%TD*%
D18*
%TO.C,SW2*%
X5000000Y-23000000D03*
X13000000Y-23000000D03*
%TD*%
D13*
%TO.C,R13*%
X89753000Y-30000000D03*
X88247000Y-30000000D03*
%TD*%
D15*
%TO.C,C6*%
X95400000Y-11800000D03*
X96800000Y-11800000D03*
%TD*%
D13*
%TO.C,R18*%
X89753000Y-25500000D03*
X88247000Y-25500000D03*
%TD*%
D18*
%TO.C,SW1*%
X5000000Y-18000000D03*
X13000000Y-18000000D03*
%TD*%
D13*
%TO.C,R26*%
X17253000Y-22000000D03*
X15747000Y-22000000D03*
%TD*%
D19*
%TO.C,J5*%
X92541500Y-31350000D03*
X92541500Y-30550000D03*
X92541500Y-29250000D03*
X92541500Y-28250000D03*
X92541500Y-27750000D03*
X92541500Y-26750000D03*
X92541500Y-25450000D03*
X92541500Y-24650000D03*
X92541500Y-24950000D03*
X92541500Y-25750000D03*
X92541500Y-26250000D03*
X92541500Y-27250000D03*
X92541500Y-28750000D03*
X92541500Y-29750000D03*
X92541500Y-30250000D03*
X92541500Y-31050000D03*
%TD*%
D14*
%TO.C,C12*%
X61500000Y-31700000D03*
X61500000Y-30300000D03*
%TD*%
D15*
%TO.C,C2*%
X34700000Y-23000000D03*
X33300000Y-23000000D03*
%TD*%
D20*
%TO.C,D4*%
X88000000Y-22603000D03*
X88000000Y-20903000D03*
%TD*%
D15*
%TO.C,C7*%
X95400000Y-13700000D03*
X96800000Y-13700000D03*
%TD*%
M02*
