M48
INCH
T1C0.0118
T2C0.0236
T3C0.0276
T4C0.0315
T5C0.0354
T6C0.0472
%
G90
G05
T1
X0.1049Y-0.0928
X0.1049Y-0.9928
X0.1049Y-1.0928
X0.1049Y-1.1928
X0.1049Y-1.2928
X0.1969Y-1.3514
X0.1969Y-0.6693
X0.1969Y-0.8661
X0.1969Y-1.063
X0.2049Y-0.0928
X0.2049Y-0.4928
X0.2049Y-0.5928
X0.2049Y-0.7928
X0.2049Y-0.9928
X0.2553Y-1.2801
X0.2617Y-0.8071
X0.2853Y-0.4921
X0.3406Y-0.4921
X0.374Y-0.374
X0.4049Y-1.0928
X0.437Y-0.374
X0.5315Y-0.3543
X0.5669Y-0.5709
X0.5906Y-0.7677
X0.5906Y-0.8465
X0.6049Y-1.0928
X0.689Y-0.9055
X0.7049Y-1.0928
X0.7049Y-1.1928
X0.7049Y-1.2928
X0.7283Y-0.9055
X0.7677Y-1.0433
X0.8009Y-0.5771
X0.8049Y-1.1928
X0.8231Y-0.5548
X0.8858Y-1.0433
X0.8937Y-0.5512
X0.9049Y-1.0928
X0.9252Y-0.622
X0.9252Y-1.1417
X0.9449Y-1.0433
X0.9646Y-1.1811
X0.9882Y-0.6299
X0.9882Y-0.5512
X1.0039Y-1.0433
X1.0049Y-1.0928
X1.0197Y-0.5512
X1.0473Y-0.6299
X1.0551Y-0.5623
X1.063Y-1.0433
X1.1049Y-0.2928
X1.1049Y-1.0928
X1.1049Y-1.1928
X1.1049Y-1.2928
X1.2049Y-0.1928
X1.2049Y-0.4928
X1.2049Y-0.5928
X1.2049Y-0.6928
X1.2049Y-1.0928
X1.2598Y-0.7578
X1.2992Y-0.8526
X1.3049Y-0.3928
X1.3049Y-0.4928
X1.3049Y-0.5928
X1.3049Y-0.6928
X1.3049Y-1.1928
X1.3937Y-1.0039
X1.4049Y-1.1928
X1.4213Y-0.9803
X1.4567Y-0.2795
X1.4843Y-0.9449
X1.5049Y-1.2928
X1.6049Y-0.7928
X1.6299Y-0.4252
X1.6339Y-0.8858
X1.6457Y-0.4724
X1.6457Y-0.6693
X1.7049Y-0.5928
X1.7049Y-0.7928
X1.7049Y-1.1928
X1.7049Y-1.2928
X1.7086Y-0.8858
X1.7362Y-0.9055
X1.752Y-1.0433
X1.7946Y-0.2369
X1.8049Y-1.1928
X1.8049Y-1.2928
X1.8542Y-0.5401
X1.8701Y-1.0433
X1.8753Y-0.2389
X1.8858Y-0.5413
X1.9049Y-1.2928
X1.9134Y-0.5591
X1.9291Y-1.0433
X1.9449Y-0.5591
X1.9724Y-0.5433
X1.9882Y-1.0433
X2.0039Y-0.5398
X2.0049Y-1.1928
X2.0305Y-0.5229
X2.0472Y-1.0433
X2.0634Y-0.5224
X2.1049Y-0.2928
X2.1049Y-0.3928
X2.1049Y-0.8928
X2.1049Y-0.9928
X2.1049Y-1.1928
X2.1049Y-1.2928
X2.1457Y-0.1772
X2.2049Y-0.2928
X2.2049Y-0.3928
X2.2049Y-0.4928
X2.2049Y-0.5928
X2.2049Y-0.7928
X2.2049Y-0.8928
X2.3049Y-0.8928
X2.3049Y-0.9928
X2.3049Y-1.2928
X2.33Y-0.2369
X2.3522Y-0.4134
X2.3522Y-0.5906
X2.3522Y-0.7874
X2.3819Y-0.315
X2.3819Y-1.1908
X2.4049Y-0.8928
X2.4049Y-1.2928
X2.5049Y-0.6928
X2.5049Y-0.8928
X2.5049Y-0.9928
X2.5049Y-1.2928
X2.5827Y-0.5512
X2.6049Y-0.6928
X2.6181Y-0.8858
X2.622Y-0.5906
X2.6299Y-0.7874
X2.7049Y-1.1928
X2.7049Y-1.2928
X2.7204Y-0.9055
X2.7362Y-1.0433
X2.7598Y-0.248
X2.8049Y-1.1928
X2.8049Y-1.2928
X2.8425Y-0.7008
X2.8543Y-1.0433
X2.874Y-0.7008
X2.9049Y-0.2928
X2.9049Y-1.1928
X2.9049Y-1.2928
X2.9055Y-0.7008
X2.9134Y-1.0433
X2.937Y-0.7008
X2.9724Y-1.0433
X2.9843Y-0.7008
X3.0049Y-0.1928
X3.0049Y-0.2928
X3.0049Y-0.4928
X3.0049Y-1.1928
X3.0049Y-1.2928
X3.0156Y-0.7047
X3.0315Y-1.0433
X3.0482Y-0.7051
X3.0795Y-0.7087
X3.1049Y-0.1928
X3.1049Y-0.2928
X3.1049Y-0.4928
X3.1049Y-0.7928
X3.1049Y-0.8928
X3.1049Y-0.9928
X3.1049Y-1.1928
X3.1049Y-1.2928
X3.2049Y-0.1928
X3.2049Y-0.3928
X3.2049Y-0.4928
X3.2913Y-0.5118
X3.3049Y-0.1928
X3.3049Y-0.2928
X3.3049Y-0.7928
X3.3049Y-0.8928
X3.3049Y-0.9928
X3.3049Y-1.0928
X3.3049Y-1.1928
X3.3049Y-1.2928
X3.3268Y-0.4134
X3.3268Y-0.6496
X3.3465Y-0.5906
X3.4049Y-0.1928
X3.4049Y-0.8928
X3.4049Y-0.9928
X3.4049Y-1.0928
X3.4049Y-1.1928
X3.4049Y-1.2928
X3.4646Y-1.0433
X3.4646Y-1.2205
X3.4843Y-0.8465
X3.4887Y-0.7087
X3.5049Y-0.0928
X3.5049Y-0.1928
X3.5049Y-0.2928
X3.5049Y-0.3928
X3.5049Y-1.2928
X3.531Y-1.0926
X3.5532Y-1.0703
X3.6049Y-1.2928
X3.6417Y-0.374
X3.6614Y-0.8661
X3.685Y-0.8268
X3.8049Y-0.9928
X3.8049Y-1.0928
X3.8049Y-1.1928
X3.8189Y-0.4331
X3.8268Y-0.3386
T4
X0.372Y-0.1102
X0.372Y-0.189
X0.4508Y-0.1102
X0.4508Y-0.189
X0.5295Y-0.1102
X0.5295Y-0.189
X0.6083Y-0.1102
X0.6083Y-0.189
X0.687Y-0.1102
X0.687Y-0.189
X0.7657Y-0.1102
X0.7657Y-0.189
X0.8445Y-0.1102
X0.8445Y-0.189
X0.9232Y-0.1102
X0.9232Y-0.189
X1.002Y-0.1102
X1.002Y-0.189
X1.0807Y-0.1102
X1.0807Y-0.189
X1.2992Y-0.1102
X1.2992Y-0.189
X1.378Y-0.1102
X1.378Y-0.189
X1.4567Y-0.1102
X1.4567Y-0.189
X1.5354Y-0.1102
X1.5354Y-0.189
X1.6142Y-0.1102
X1.6142Y-0.189
X1.6929Y-0.1102
X1.6929Y-0.189
X1.7717Y-0.1102
X1.7717Y-0.189
X1.8504Y-0.1102
X1.8504Y-0.189
X1.9291Y-0.1102
X1.9291Y-0.189
X2.0079Y-0.1102
X2.0079Y-0.189
X2.2244Y-0.1102
X2.2244Y-0.189
X2.3031Y-0.1102
X2.3031Y-0.189
X2.3819Y-0.1102
X2.3819Y-0.189
X2.4606Y-0.1102
X2.4606Y-0.189
X2.5394Y-0.1102
X2.5394Y-0.189
X2.6181Y-0.1102
X2.6181Y-0.189
X2.6969Y-0.1102
X2.6969Y-0.189
X2.7756Y-0.1102
X2.7756Y-0.189
X2.8543Y-0.1102
X2.8543Y-0.189
X2.9331Y-0.1102
X2.9331Y-0.189
T6
X0.0787Y-0.1937
X0.0787Y-0.2937
X0.0787Y-0.3937
X0.0787Y-0.4937
X0.0787Y-0.5937
X0.0787Y-0.6937
X0.0787Y-0.7937
X0.0787Y-0.8937
X3.6008Y-0.0787
X3.6008Y-0.2362
X3.7008Y-0.0787
X3.7008Y-0.2362
X3.8008Y-0.0787
X3.8008Y-0.2362
T2
G00X1.3022Y-1.032
M15
G01X1.3022Y-1.0084
M16
G05
G00X1.3022Y-1.3076
M15
G01X1.3022Y-1.284
M16
G05
G00X1.4912Y-1.2288
M15
G01X1.4912Y-1.2052
M16
G05
T3
G00X3.6493Y-0.9323
M15
G01X3.6886Y-0.9323
M16
G05
G00X3.6493Y-1.2724
M15
G01X3.6886Y-1.2724
M16
G05
G00X3.8197Y-0.9323
M15
G01X3.8473Y-0.9323
M16
G05
G00X3.8197Y-1.2724
M15
G01X3.8473Y-1.2724
M16
G05
T5
G00X0.6201Y-0.9677
M15
G01X0.6201Y-1.0386
M16
G05
G00X0.6201Y-1.2157
M15
G01X0.6201Y-1.263
M16
G05
G00X1.1909Y-0.9677
M15
G01X1.1909Y-1.0386
M16
G05
G00X1.1909Y-1.2157
M15
G01X1.1909Y-1.263
M16
G05
G00X1.6044Y-0.9677
M15
G01X1.6044Y-1.0386
M16
G05
G00X1.6044Y-1.2157
M15
G01X1.6044Y-1.263
M16
G05
G00X2.1752Y-0.9677
M15
G01X2.1752Y-1.0386
M16
G05
G00X2.1752Y-1.2157
M15
G01X2.1752Y-1.263
M16
G05
G00X2.5886Y-0.9677
M15
G01X2.5886Y-1.0386
M16
G05
G00X2.5886Y-1.2157
M15
G01X2.5886Y-1.263
M16
G05
G00X3.1594Y-0.9677
M15
G01X3.1594Y-1.0386
M16
G05
G00X3.1594Y-1.2157
M15
G01X3.1594Y-1.263
M16
G05
M30
