%TF.GenerationSoftware,KiCad,Pcbnew,8.0.7-8.0.7-0~ubuntu24.04.1*%
%TF.CreationDate,2025-01-05T15:57:20-05:00*%
%TF.ProjectId,3xHDMI,33784844-4d49-42e6-9b69-6361645f7063,v1*%
%TF.SameCoordinates,Original*%
%TF.FileFunction,Soldermask,Bot*%
%TF.FilePolarity,Negative*%
%FSLAX46Y46*%
G04 Gerber Fmt 4.6, Leading zero omitted, Abs format (unit mm)*
G04 Created by KiCad (PCBNEW 8.0.7-8.0.7-0~ubuntu24.04.1) date 2025-01-05 15:57:20*
%MOMM*%
%LPD*%
G01*
G04 APERTURE LIST*
G04 Aperture macros list*
%AMRoundRect*
0 Rectangle with rounded corners*
0 $1 Rounding radius*
0 $2 $3 $4 $5 $6 $7 $8 $9 X,Y pos of 4 corners*
0 Add a 4 corners polygon primitive as box body*
4,1,4,$2,$3,$4,$5,$6,$7,$8,$9,$2,$3,0*
0 Add four circle primitives for the rounded corners*
1,1,$1+$1,$2,$3*
1,1,$1+$1,$4,$5*
1,1,$1+$1,$6,$7*
1,1,$1+$1,$8,$9*
0 Add four rect primitives between the rounded corners*
20,1,$1+$1,$2,$3,$4,$5,0*
20,1,$1+$1,$4,$5,$6,$7,0*
20,1,$1+$1,$6,$7,$8,$9,0*
20,1,$1+$1,$8,$9,$2,$3,0*%
G04 Aperture macros list end*
%ADD10O,1.600000X2.800000*%
%ADD11O,1.600000X3.400000*%
%ADD12RoundRect,0.050000X-0.787500X-0.900000X0.787500X-0.900000X0.787500X0.900000X-0.787500X0.900000X0*%
%ADD13C,1.900000*%
%ADD14RoundRect,0.050000X-0.675000X0.675000X-0.675000X-0.675000X0.675000X-0.675000X0.675000X0.675000X0*%
%ADD15O,1.450000X1.450000*%
%ADD16RoundRect,0.050000X-0.900000X0.900000X-0.900000X-0.900000X0.900000X-0.900000X0.900000X0.900000X0*%
%ADD17C,0.800000*%
%ADD18O,2.100000X1.300000*%
%ADD19O,1.900000X1.300000*%
%ADD20RoundRect,0.050000X-0.403000X-0.432000X0.403000X-0.432000X0.403000X0.432000X-0.403000X0.432000X0*%
%ADD21O,2.071000X0.702000*%
%ADD22RoundRect,0.050000X-0.500000X-0.400000X0.500000X-0.400000X0.500000X0.400000X-0.500000X0.400000X0*%
%ADD23RoundRect,0.050000X0.325000X0.400000X-0.325000X0.400000X-0.325000X-0.400000X0.325000X-0.400000X0*%
%ADD24RoundRect,0.050000X0.250000X0.400000X-0.250000X0.400000X-0.250000X-0.400000X0.250000X-0.400000X0*%
%ADD25RoundRect,0.050000X0.403000X0.432000X-0.403000X0.432000X-0.403000X-0.432000X0.403000X-0.432000X0*%
%ADD26C,1.300000*%
%ADD27O,1.300000X1.900000*%
%ADD28RoundRect,0.050000X0.400000X0.450000X-0.400000X0.450000X-0.400000X-0.450000X0.400000X-0.450000X0*%
%ADD29RoundRect,0.050000X-0.325000X-0.400000X0.325000X-0.400000X0.325000X0.400000X-0.325000X0.400000X0*%
%ADD30RoundRect,0.050000X-0.250000X-0.400000X0.250000X-0.400000X0.250000X0.400000X-0.250000X0.400000X0*%
%ADD31RoundRect,0.050000X0.400000X-0.500000X0.400000X0.500000X-0.400000X0.500000X-0.400000X-0.500000X0*%
%ADD32RoundRect,0.050000X-0.450000X0.400000X-0.450000X-0.400000X0.450000X-0.400000X0.450000X0.400000X0*%
%ADD33RoundRect,0.050000X-0.432000X0.403000X-0.432000X-0.403000X0.432000X-0.403000X0.432000X0.403000X0*%
%ADD34RoundRect,0.050000X-1.000000X1.000000X-1.000000X-1.000000X1.000000X-1.000000X1.000000X1.000000X0*%
%ADD35RoundRect,0.050000X0.450000X-0.400000X0.450000X0.400000X-0.450000X0.400000X-0.450000X-0.400000X0*%
%ADD36RoundRect,0.050000X0.432000X-0.403000X0.432000X0.403000X-0.432000X0.403000X-0.432000X-0.403000X0*%
%ADD37RoundRect,0.050000X-0.650000X2.750000X-0.650000X-2.750000X0.650000X-2.750000X0.650000X2.750000X0*%
G04 APERTURE END LIST*
D10*
%TO.C,J4*%
X30249000Y-31479000D03*
X15751000Y-31479000D03*
D11*
X30249000Y-25480000D03*
X15751000Y-25480000D03*
%TD*%
D12*
%TO.C,J6*%
X91460000Y-6000000D03*
D13*
X94000000Y-6000000D03*
X96540000Y-6000000D03*
%TD*%
D14*
%TO.C,J7*%
X27450000Y-2800000D03*
D15*
X27450000Y-4800000D03*
X25450000Y-2800000D03*
X25450000Y-4800000D03*
X23450000Y-2800000D03*
X23450000Y-4800000D03*
X21450000Y-2800000D03*
X21450000Y-4800000D03*
X19450000Y-2800000D03*
X19450000Y-4800000D03*
X17450000Y-2800000D03*
X17450000Y-4800000D03*
X15450000Y-2800000D03*
X15450000Y-4800000D03*
X13450000Y-2800000D03*
X13450000Y-4800000D03*
X11450000Y-2800000D03*
X11450000Y-4800000D03*
X9450000Y-2800000D03*
X9450000Y-4800000D03*
%TD*%
D14*
%TO.C,J8*%
X51000000Y-2800000D03*
D15*
X51000000Y-4800000D03*
X49000000Y-2800000D03*
X49000000Y-4800000D03*
X47000000Y-2800000D03*
X47000000Y-4800000D03*
X45000000Y-2800000D03*
X45000000Y-4800000D03*
X43000000Y-2800000D03*
X43000000Y-4800000D03*
X41000000Y-2800000D03*
X41000000Y-4800000D03*
X39000000Y-2800000D03*
X39000000Y-4800000D03*
X37000000Y-2800000D03*
X37000000Y-4800000D03*
X35000000Y-2800000D03*
X35000000Y-4800000D03*
X33000000Y-2800000D03*
X33000000Y-4800000D03*
%TD*%
D12*
%TO.C,J10*%
X91460000Y-2000000D03*
D13*
X94000000Y-2000000D03*
X96540000Y-2000000D03*
%TD*%
D14*
%TO.C,J9*%
X74500000Y-2800000D03*
D15*
X74500000Y-4800000D03*
X72500000Y-2800000D03*
X72500000Y-4800000D03*
X70500000Y-2800000D03*
X70500000Y-4800000D03*
X68500000Y-2800000D03*
X68500000Y-4800000D03*
X66500000Y-2800000D03*
X66500000Y-4800000D03*
X64500000Y-2800000D03*
X64500000Y-4800000D03*
X62500000Y-2800000D03*
X62500000Y-4800000D03*
X60500000Y-2800000D03*
X60500000Y-4800000D03*
X58500000Y-2800000D03*
X58500000Y-4800000D03*
X56500000Y-2800000D03*
X56500000Y-4800000D03*
%TD*%
D10*
%TO.C,J3*%
X55249000Y-31479000D03*
X40751000Y-31479000D03*
D11*
X55249000Y-25480000D03*
X40751000Y-25480000D03*
%TD*%
D16*
%TO.C,P1*%
X2000000Y-4920000D03*
D13*
X2000000Y-7460000D03*
X2000000Y-10000000D03*
X2000000Y-12540000D03*
X2000000Y-15080000D03*
X2000000Y-17620000D03*
X2000000Y-20160000D03*
X2000000Y-22700000D03*
%TD*%
D10*
%TO.C,J1*%
X80249000Y-31479000D03*
X65751000Y-31479000D03*
D11*
X80249000Y-25480000D03*
X65751000Y-25480000D03*
%TD*%
D17*
%TO.C,J5*%
X93721500Y-30890000D03*
X93721500Y-25110000D03*
D18*
X93191500Y-32320000D03*
X93191500Y-23680000D03*
D19*
X97371500Y-32320000D03*
X97371500Y-23680000D03*
%TD*%
D20*
%TO.C,R21*%
X34247000Y-16000000D03*
X35753000Y-16000000D03*
%TD*%
D21*
%TO.C,U1*%
X91764000Y-21945000D03*
X91764000Y-20675000D03*
X91764000Y-19405000D03*
X91764000Y-18135000D03*
X91764000Y-16865000D03*
X91764000Y-15595000D03*
X91764000Y-14325000D03*
X91764000Y-13055000D03*
X97236000Y-13055000D03*
X97236000Y-14325000D03*
X97236000Y-15595000D03*
X97236000Y-16865000D03*
X97236000Y-18135000D03*
X97236000Y-19405000D03*
X97236000Y-20675000D03*
X97236000Y-21945000D03*
%TD*%
D22*
%TO.C,Q1*%
X63350000Y-15950000D03*
X63350000Y-14050000D03*
X65650000Y-15000000D03*
%TD*%
%TO.C,Q8*%
X38350000Y-22450000D03*
X38350000Y-20550000D03*
X40650000Y-21500000D03*
%TD*%
D23*
%TO.C,RN2*%
X78600000Y-16900000D03*
D24*
X77800000Y-16900000D03*
X77000000Y-16900000D03*
D23*
X76200000Y-16900000D03*
X76200000Y-15100000D03*
D24*
X77000000Y-15100000D03*
X77800000Y-15100000D03*
D23*
X78600000Y-15100000D03*
%TD*%
D20*
%TO.C,R23*%
X34247000Y-13000000D03*
X35753000Y-13000000D03*
%TD*%
%TO.C,R32*%
X7247000Y-13500000D03*
X8753000Y-13500000D03*
%TD*%
%TO.C,R12*%
X59747000Y-14000000D03*
X61253000Y-14000000D03*
%TD*%
D25*
%TO.C,R5*%
X42753000Y-7500000D03*
X41247000Y-7500000D03*
%TD*%
D20*
%TO.C,R31*%
X7247000Y-15500000D03*
X8753000Y-15500000D03*
%TD*%
D26*
%TO.C,J2*%
X35476000Y-32912500D03*
X35476000Y-26912500D03*
D27*
X37876000Y-30912500D03*
X33076000Y-32912500D03*
X33076000Y-25912500D03*
%TD*%
D20*
%TO.C,R16*%
X59747000Y-9500000D03*
X61253000Y-9500000D03*
%TD*%
D28*
%TO.C,C3*%
X94100000Y-10400000D03*
X92700000Y-10400000D03*
%TD*%
D20*
%TO.C,R24*%
X34247000Y-11000000D03*
X35753000Y-11000000D03*
%TD*%
D29*
%TO.C,RN4*%
X50800000Y-15100000D03*
D30*
X51600000Y-15100000D03*
X52400000Y-15100000D03*
D29*
X53200000Y-15100000D03*
X53200000Y-16900000D03*
D30*
X52400000Y-16900000D03*
X51600000Y-16900000D03*
D29*
X50800000Y-16900000D03*
%TD*%
D31*
%TO.C,Q9*%
X9950000Y-29150000D03*
X8050000Y-29150000D03*
X9000000Y-26850000D03*
%TD*%
D32*
%TO.C,C4*%
X83462500Y-9300000D03*
X83462500Y-10700000D03*
%TD*%
D33*
%TO.C,R45*%
X9000000Y-23247000D03*
X9000000Y-24753000D03*
%TD*%
D34*
%TO.C,D1*%
X80500000Y-7800000D03*
X80500000Y-3200000D03*
%TD*%
D25*
%TO.C,R25*%
X44253000Y-12000000D03*
X42747000Y-12000000D03*
%TD*%
D22*
%TO.C,Q2*%
X63350000Y-11450000D03*
X63350000Y-9550000D03*
X65650000Y-10500000D03*
%TD*%
D20*
%TO.C,R9*%
X59747000Y-21000000D03*
X61253000Y-21000000D03*
%TD*%
%TO.C,R20*%
X34247000Y-18000000D03*
X35753000Y-18000000D03*
%TD*%
D22*
%TO.C,Q7*%
X63350000Y-20950000D03*
X63350000Y-19050000D03*
X65650000Y-20000000D03*
%TD*%
D20*
%TO.C,R41*%
X34247000Y-20500000D03*
X35753000Y-20500000D03*
%TD*%
D29*
%TO.C,RN5*%
X21100000Y-15100000D03*
D30*
X21900000Y-15100000D03*
X22700000Y-15100000D03*
D29*
X23500000Y-15100000D03*
X23500000Y-16900000D03*
D30*
X22700000Y-16900000D03*
X21900000Y-16900000D03*
D29*
X21100000Y-16900000D03*
%TD*%
D20*
%TO.C,R11*%
X59747000Y-16000000D03*
X61253000Y-16000000D03*
%TD*%
%TO.C,R29*%
X7247000Y-18500000D03*
X8753000Y-18500000D03*
%TD*%
D22*
%TO.C,Q5*%
X11350000Y-20450000D03*
X11350000Y-18550000D03*
X13650000Y-19500000D03*
%TD*%
D25*
%TO.C,R14*%
X69253000Y-15000000D03*
X67747000Y-15000000D03*
%TD*%
%TO.C,R33*%
X17753000Y-14500000D03*
X16247000Y-14500000D03*
%TD*%
D35*
%TO.C,C5*%
X83462500Y-17900000D03*
X83462500Y-16500000D03*
%TD*%
D29*
%TO.C,RN6*%
X25050000Y-15100000D03*
D30*
X25850000Y-15100000D03*
X26650000Y-15100000D03*
D29*
X27450000Y-15100000D03*
X27450000Y-16900000D03*
D30*
X26650000Y-16900000D03*
X25850000Y-16900000D03*
D29*
X25050000Y-16900000D03*
%TD*%
D23*
%TO.C,RN1*%
X74600000Y-16900000D03*
D24*
X73800000Y-16900000D03*
X73000000Y-16900000D03*
D23*
X72200000Y-16900000D03*
X72200000Y-15100000D03*
D24*
X73000000Y-15100000D03*
X73800000Y-15100000D03*
D23*
X74600000Y-15100000D03*
%TD*%
D25*
%TO.C,R30*%
X17753000Y-19500000D03*
X16247000Y-19500000D03*
%TD*%
D29*
%TO.C,RN3*%
X46800000Y-15100000D03*
D30*
X47600000Y-15100000D03*
X48400000Y-15100000D03*
D29*
X49200000Y-15100000D03*
X49200000Y-16900000D03*
D30*
X48400000Y-16900000D03*
X47600000Y-16900000D03*
D29*
X46800000Y-16900000D03*
%TD*%
D20*
%TO.C,R15*%
X59747000Y-11500000D03*
X61253000Y-11500000D03*
%TD*%
D36*
%TO.C,R43*%
X10000000Y-33253000D03*
X10000000Y-31747000D03*
%TD*%
D20*
%TO.C,R10*%
X59747000Y-19000000D03*
X61253000Y-19000000D03*
%TD*%
D36*
%TO.C,R44*%
X8000000Y-33253000D03*
X8000000Y-31747000D03*
%TD*%
D25*
%TO.C,R17*%
X69253000Y-10500000D03*
X67747000Y-10500000D03*
%TD*%
D37*
%TO.C,X1*%
X87462500Y-18053000D03*
X87462500Y-8947000D03*
%TD*%
D22*
%TO.C,Q3*%
X38350000Y-17950000D03*
X38350000Y-16050000D03*
X40650000Y-17000000D03*
%TD*%
D25*
%TO.C,R39*%
X69253000Y-20000000D03*
X67747000Y-20000000D03*
%TD*%
%TO.C,R22*%
X44253000Y-17000000D03*
X42747000Y-17000000D03*
%TD*%
%TO.C,R42*%
X44253000Y-21500000D03*
X42747000Y-21500000D03*
%TD*%
D20*
%TO.C,R40*%
X34247000Y-22500000D03*
X35753000Y-22500000D03*
%TD*%
D22*
%TO.C,Q4*%
X38350000Y-12950000D03*
X38350000Y-11050000D03*
X40650000Y-12000000D03*
%TD*%
D20*
%TO.C,R28*%
X7247000Y-20500000D03*
X8753000Y-20500000D03*
%TD*%
D22*
%TO.C,Q6*%
X11350000Y-15450000D03*
X11350000Y-13550000D03*
X13650000Y-14500000D03*
%TD*%
M02*
