%TF.GenerationSoftware,KiCad,Pcbnew,8.0.7-8.0.7-0~ubuntu24.04.1*%
%TF.CreationDate,2025-01-05T15:57:20-05:00*%
%TF.ProjectId,3xHDMI,33784844-4d49-42e6-9b69-6361645f7063,v1*%
%TF.SameCoordinates,Original*%
%TF.FileFunction,Copper,L1,Top*%
%TF.FilePolarity,Positive*%
%FSLAX46Y46*%
G04 Gerber Fmt 4.6, Leading zero omitted, Abs format (unit mm)*
G04 Created by KiCad (PCBNEW 8.0.7-8.0.7-0~ubuntu24.04.1) date 2025-01-05 15:57:20*
%MOMM*%
%LPD*%
G01*
G04 APERTURE LIST*
%TA.AperFunction,SMDPad,CuDef*%
%ADD10R,0.864000X0.806000*%
%TD*%
%TA.AperFunction,SMDPad,CuDef*%
%ADD11O,0.250000X1.600000*%
%TD*%
%TA.AperFunction,ComponentPad*%
%ADD12O,1.500000X2.700000*%
%TD*%
%TA.AperFunction,ComponentPad*%
%ADD13O,1.500000X3.300000*%
%TD*%
%TA.AperFunction,SMDPad,CuDef*%
%ADD14R,0.806000X0.864000*%
%TD*%
%TA.AperFunction,SMDPad,CuDef*%
%ADD15R,0.900000X0.800000*%
%TD*%
%TA.AperFunction,SMDPad,CuDef*%
%ADD16R,0.800000X0.900000*%
%TD*%
%TA.AperFunction,ComponentPad*%
%ADD17R,1.575000X1.800000*%
%TD*%
%TA.AperFunction,ComponentPad*%
%ADD18C,1.800000*%
%TD*%
%TA.AperFunction,ComponentPad*%
%ADD19R,1.350000X1.350000*%
%TD*%
%TA.AperFunction,ComponentPad*%
%ADD20O,1.350000X1.350000*%
%TD*%
%TA.AperFunction,SMDPad,CuDef*%
%ADD21R,0.980000X2.470000*%
%TD*%
%TA.AperFunction,SMDPad,CuDef*%
%ADD22R,3.600000X2.470000*%
%TD*%
%TA.AperFunction,SMDPad,CuDef*%
%ADD23R,1.900000X1.500000*%
%TD*%
%TA.AperFunction,ComponentPad*%
%ADD24R,1.800000X1.800000*%
%TD*%
%TA.AperFunction,ComponentPad*%
%ADD25O,2.000000X1.200000*%
%TD*%
%TA.AperFunction,ComponentPad*%
%ADD26O,1.800000X1.200000*%
%TD*%
%TA.AperFunction,SMDPad,CuDef*%
%ADD27R,1.300000X0.300000*%
%TD*%
%TA.AperFunction,SMDPad,CuDef*%
%ADD28R,1.000000X0.900000*%
%TD*%
%TA.AperFunction,ComponentPad*%
%ADD29O,1.200000X1.800000*%
%TD*%
%TA.AperFunction,ViaPad*%
%ADD30C,0.600000*%
%TD*%
%TA.AperFunction,Conductor*%
%ADD31C,1.000000*%
%TD*%
%TA.AperFunction,Conductor*%
%ADD32C,0.200000*%
%TD*%
%TA.AperFunction,Conductor*%
%ADD33C,0.800000*%
%TD*%
%TA.AperFunction,Conductor*%
%ADD34C,0.600000*%
%TD*%
%TA.AperFunction,Conductor*%
%ADD35C,0.400000*%
%TD*%
%TA.AperFunction,Conductor*%
%ADD36C,0.276400*%
%TD*%
%TA.AperFunction,Conductor*%
%ADD37C,0.212600*%
%TD*%
G04 APERTURE END LIST*
D10*
%TO.P,R36,1*%
%TO.N,GND*%
X63250000Y-30247000D03*
%TO.P,R36,2*%
%TO.N,Net-(C12-Pad1)*%
X63250000Y-31753000D03*
%TD*%
D11*
%TO.P,J4,1,D2+*%
%TO.N,/HDMI2_D2+*%
X27501000Y-24721000D03*
%TO.P,J4,2,D2_SHIELD*%
%TO.N,GND*%
X27001000Y-24721000D03*
%TO.P,J4,3,D2-*%
%TO.N,/HDMI2_D2-*%
X26500000Y-24721000D03*
%TO.P,J4,4,D1+*%
%TO.N,/HDMI2_D1+*%
X26000000Y-24721000D03*
%TO.P,J4,5,D1_SHIELD*%
%TO.N,GND*%
X25499000Y-24721000D03*
%TO.P,J4,6,D1-*%
%TO.N,/HDMI2_D1-*%
X24999000Y-24721000D03*
%TO.P,J4,7,D0+*%
%TO.N,/HDMI2_D0+*%
X24501000Y-24721000D03*
%TO.P,J4,8,D0_SHIELD*%
%TO.N,GND*%
X24001000Y-24721000D03*
%TO.P,J4,9,D0-*%
%TO.N,/HDMI2_D0-*%
X23500000Y-24721000D03*
%TO.P,J4,10,CK+*%
%TO.N,/HDMI2_CK+*%
X23000000Y-24721000D03*
%TO.P,J4,11,CK_SHIELD*%
%TO.N,GND*%
X22500000Y-24721000D03*
%TO.P,J4,12,CK-*%
%TO.N,/HDMI2_CK-*%
X21999000Y-24721000D03*
%TO.P,J4,13,CEC*%
%TO.N,/HDMI2_CEC*%
X21501000Y-24721000D03*
%TO.P,J4,14,HEC*%
%TO.N,unconnected-(J4-HEC-Pad14)*%
X21001000Y-24721000D03*
%TO.P,J4,15,I2C-CLK*%
%TO.N,/SCL2*%
X20501000Y-24721000D03*
%TO.P,J4,16,I2C_DATA*%
%TO.N,/SDA2*%
X20000000Y-24721000D03*
%TO.P,J4,17,GND*%
%TO.N,GND*%
X19500000Y-24721000D03*
%TO.P,J4,18,+5V*%
%TO.N,Net-(D1-K)*%
X19000000Y-24721000D03*
%TO.P,J4,19,HOT_PLUG_DET*%
%TO.N,/HPD2*%
X18499000Y-24721000D03*
D12*
%TO.P,J4,20,SHD*%
%TO.N,Net-(C10-Pad1)*%
X30249000Y-31479000D03*
%TO.P,J4,21,SHD*%
X15751000Y-31479000D03*
D13*
%TO.P,J4,22,SHD*%
X30249000Y-25480000D03*
%TO.P,J4,23,SHD*%
X15751000Y-25480000D03*
%TD*%
D14*
%TO.P,R2,1*%
%TO.N,/HPD1*%
X43253000Y-21500000D03*
%TO.P,R2,2*%
%TO.N,GND*%
X41747000Y-21500000D03*
%TD*%
D15*
%TO.P,C11,1*%
%TO.N,Net-(C11-Pad1)*%
X59750000Y-31700000D03*
%TO.P,C11,2*%
%TO.N,GND*%
X59750000Y-30300000D03*
%TD*%
D16*
%TO.P,C9,1*%
%TO.N,+3V3*%
X85000000Y-13800000D03*
%TO.P,C9,2*%
%TO.N,GND*%
X83600000Y-13800000D03*
%TD*%
D14*
%TO.P,R27,1*%
%TO.N,/HDMI2_CEC*%
X14253000Y-7500000D03*
%TO.P,R27,2*%
%TO.N,+3V3*%
X12747000Y-7500000D03*
%TD*%
D10*
%TO.P,R34,1*%
%TO.N,GND*%
X33000000Y-19247000D03*
%TO.P,R34,2*%
%TO.N,Net-(C10-Pad1)*%
X33000000Y-20753000D03*
%TD*%
D17*
%TO.P,J6,1,1*%
%TO.N,+3V3*%
X91460000Y-6000000D03*
D18*
%TO.P,J6,2,2*%
%TO.N,+5V*%
X94000000Y-6000000D03*
%TO.P,J6,3,3*%
%TO.N,GND*%
X96540000Y-6000000D03*
%TD*%
D19*
%TO.P,J7,1,Pin_1*%
%TO.N,+5V*%
X27450000Y-2800000D03*
D20*
%TO.P,J7,2,Pin_2*%
X27450000Y-4800000D03*
%TO.P,J7,3,Pin_3*%
%TO.N,GND*%
X25450000Y-2800000D03*
%TO.P,J7,4,Pin_4*%
X25450000Y-4800000D03*
%TO.P,J7,5,Pin_5*%
%TO.N,/HDMI2_CK+*%
X23450000Y-2800000D03*
%TO.P,J7,6,Pin_6*%
%TO.N,/HDMI2_D1+*%
X23450000Y-4800000D03*
%TO.P,J7,7,Pin_7*%
%TO.N,/HDMI2_D2+*%
X21450000Y-2800000D03*
%TO.P,J7,8,Pin_8*%
%TO.N,/HDMI2_D0-*%
X21450000Y-4800000D03*
%TO.P,J7,9,Pin_9*%
%TO.N,unconnected-(J7-Pin_9-Pad9)*%
X19450000Y-2800000D03*
%TO.P,J7,10,Pin_10*%
%TO.N,/HDMI2_D0+*%
X19450000Y-4800000D03*
%TO.P,J7,11,Pin_11*%
%TO.N,GND*%
X17450000Y-2800000D03*
%TO.P,J7,12,Pin_12*%
%TO.N,/HDMI2_CK-*%
X17450000Y-4800000D03*
%TO.P,J7,13,Pin_13*%
%TO.N,/HDMI2_CEC*%
X15450000Y-2800000D03*
%TO.P,J7,14,Pin_14*%
%TO.N,/HDMI2_HPD*%
X15450000Y-4800000D03*
%TO.P,J7,15,Pin_15*%
%TO.N,/HDMI2_SCL*%
X13450000Y-2800000D03*
%TO.P,J7,16,Pin_16*%
%TO.N,/HDMI2_SDA*%
X13450000Y-4800000D03*
%TO.P,J7,17,Pin_17*%
%TO.N,/PL_KEY2*%
X11450000Y-2800000D03*
%TO.P,J7,18,Pin_18*%
%TO.N,/PL_KEY3*%
X11450000Y-4800000D03*
%TO.P,J7,19,Pin_19*%
%TO.N,/PL_KEY0*%
X9450000Y-2800000D03*
%TO.P,J7,20,Pin_20*%
%TO.N,/PL_KEY1*%
X9450000Y-4800000D03*
%TD*%
D19*
%TO.P,J8,1,Pin_1*%
%TO.N,+5V*%
X51000000Y-2800000D03*
D20*
%TO.P,J8,2,Pin_2*%
X51000000Y-4800000D03*
%TO.P,J8,3,Pin_3*%
%TO.N,GND*%
X49000000Y-2800000D03*
%TO.P,J8,4,Pin_4*%
X49000000Y-4800000D03*
%TO.P,J8,5,Pin_5*%
%TO.N,/HDMI1_HPD*%
X47000000Y-2800000D03*
%TO.P,J8,6,Pin_6*%
%TO.N,/HDMI1_D2-*%
X47000000Y-4800000D03*
%TO.P,J8,7,Pin_7*%
%TO.N,/HDMI1_D1-*%
X45000000Y-2800000D03*
%TO.P,J8,8,Pin_8*%
%TO.N,/HDMI1_D2+*%
X45000000Y-4800000D03*
%TO.P,J8,9,Pin_9*%
%TO.N,unconnected-(J8-Pin_9-Pad9)*%
X43000000Y-2800000D03*
%TO.P,J8,10,Pin_10*%
%TO.N,/HDMI1_CEC*%
X43000000Y-4800000D03*
%TO.P,J8,11,Pin_11*%
%TO.N,GND*%
X41000000Y-2800000D03*
%TO.P,J8,12,Pin_12*%
%TO.N,/HDMI1_SDA*%
X41000000Y-4800000D03*
%TO.P,J8,13,Pin_13*%
%TO.N,/HDMI1_D1+*%
X39000000Y-2800000D03*
%TO.P,J8,14,Pin_14*%
%TO.N,/HDMI1_SCL*%
X39000000Y-4800000D03*
%TO.P,J8,15,Pin_15*%
%TO.N,/HDMI1_D0+*%
X37000000Y-2800000D03*
%TO.P,J8,16,Pin_16*%
%TO.N,/HDMI1_CK+*%
X37000000Y-4800000D03*
%TO.P,J8,17,Pin_17*%
%TO.N,/HDMI1_D0-*%
X35000000Y-2800000D03*
%TO.P,J8,18,Pin_18*%
%TO.N,/HDMI2_D2-*%
X35000000Y-4800000D03*
%TO.P,J8,19,Pin_19*%
%TO.N,/HDMI1_CK-*%
X33000000Y-2800000D03*
%TO.P,J8,20,Pin_20*%
%TO.N,/HDMI2_D1-*%
X33000000Y-4800000D03*
%TD*%
D10*
%TO.P,R19,1*%
%TO.N,+3V3*%
X90000000Y-21000000D03*
%TO.P,R19,2*%
%TO.N,Net-(D4-A)*%
X90000000Y-22506000D03*
%TD*%
D16*
%TO.P,C1,1*%
%TO.N,Net-(C1-Pad1)*%
X36800000Y-23000000D03*
%TO.P,C1,2*%
%TO.N,GND*%
X38200000Y-23000000D03*
%TD*%
D21*
%TO.P,U2,1,ADJ(GND)*%
%TO.N,GND*%
X87900000Y-17735000D03*
%TO.P,U2,2,VOUT(TAB)*%
%TO.N,+3V3*%
X90200000Y-17735000D03*
%TO.P,U2,3,VIN*%
%TO.N,+5V*%
X92500000Y-17735000D03*
D22*
%TO.P,U2,4,TAB*%
%TO.N,+3V3*%
X90200000Y-12065000D03*
%TD*%
D14*
%TO.P,R3,1*%
%TO.N,/HPD0*%
X68253000Y-21800000D03*
%TO.P,R3,2*%
%TO.N,GND*%
X66747000Y-21800000D03*
%TD*%
%TO.P,R6,1*%
%TO.N,/HDMI0_CEC*%
X61953000Y-9500000D03*
%TO.P,R6,2*%
%TO.N,+3V3*%
X60447000Y-9500000D03*
%TD*%
D23*
%TO.P,SW3,1,1*%
%TO.N,GND*%
X5000000Y-28000000D03*
%TO.P,SW3,2,2*%
%TO.N,/PL_KEY2*%
X13000000Y-28000000D03*
%TD*%
D10*
%TO.P,R8,1*%
%TO.N,/AUDIO_L*%
X35000000Y-19247000D03*
%TO.P,R8,2*%
%TO.N,Net-(C2-Pad1)*%
X35000000Y-20753000D03*
%TD*%
%TO.P,R7,1*%
%TO.N,/AUDIO_R*%
X37203000Y-19247000D03*
%TO.P,R7,2*%
%TO.N,Net-(C1-Pad1)*%
X37203000Y-20753000D03*
%TD*%
D17*
%TO.P,J10,1,1*%
%TO.N,/TXD*%
X91460000Y-2000000D03*
D18*
%TO.P,J10,2,2*%
%TO.N,/RXD*%
X94000000Y-2000000D03*
%TO.P,J10,3,3*%
%TO.N,GND*%
X96540000Y-2000000D03*
%TD*%
D14*
%TO.P,R38,1*%
%TO.N,/PL_KEY3*%
X8753000Y-11500000D03*
%TO.P,R38,2*%
%TO.N,+3V3*%
X7247000Y-11500000D03*
%TD*%
D16*
%TO.P,C8,1*%
%TO.N,+3V3*%
X85000000Y-11900000D03*
%TO.P,C8,2*%
%TO.N,GND*%
X83600000Y-11900000D03*
%TD*%
D19*
%TO.P,J9,1,Pin_1*%
%TO.N,+5V*%
X74500000Y-2800000D03*
D20*
%TO.P,J9,2,Pin_2*%
X74500000Y-4800000D03*
%TO.P,J9,3,Pin_3*%
%TO.N,GND*%
X72500000Y-2800000D03*
%TO.P,J9,4,Pin_4*%
X72500000Y-4800000D03*
%TO.P,J9,5,Pin_5*%
%TO.N,/HDMI0_SCL*%
X70500000Y-2800000D03*
%TO.P,J9,6,Pin_6*%
%TO.N,/HDMI0_D2-*%
X70500000Y-4800000D03*
%TO.P,J9,7,Pin_7*%
%TO.N,/HDMI0_D1-*%
X68500000Y-2800000D03*
%TO.P,J9,8,Pin_8*%
%TO.N,/HDMI0_D2+*%
X68500000Y-4800000D03*
%TO.P,J9,9,Pin_9*%
%TO.N,unconnected-(J9-Pin_9-Pad9)*%
X66500000Y-2800000D03*
%TO.P,J9,10,Pin_10*%
%TO.N,/HDMI0_D1+*%
X66500000Y-4800000D03*
%TO.P,J9,11,Pin_11*%
%TO.N,GND*%
X64500000Y-2800000D03*
%TO.P,J9,12,Pin_12*%
%TO.N,/HDMI0_SDA*%
X64500000Y-4800000D03*
%TO.P,J9,13,Pin_13*%
%TO.N,/HDMI0_HPD*%
X62500000Y-2800000D03*
%TO.P,J9,14,Pin_14*%
%TO.N,/HDMI0_D0-*%
X62500000Y-4800000D03*
%TO.P,J9,15,Pin_15*%
%TO.N,/HDMI0_D0+*%
X60500000Y-2800000D03*
%TO.P,J9,16,Pin_16*%
%TO.N,/HDMI0_CEC*%
X60500000Y-4800000D03*
%TO.P,J9,17,Pin_17*%
%TO.N,/AUDIO_R*%
X58500000Y-2800000D03*
%TO.P,J9,18,Pin_18*%
%TO.N,/HDMI0_CK-*%
X58500000Y-4800000D03*
%TO.P,J9,19,Pin_19*%
%TO.N,/AUDIO_L*%
X56500000Y-2800000D03*
%TO.P,J9,20,Pin_20*%
%TO.N,/HDMI0_CK+*%
X56500000Y-4800000D03*
%TD*%
D23*
%TO.P,SW4,1,1*%
%TO.N,GND*%
X5000000Y-33000000D03*
%TO.P,SW4,2,2*%
%TO.N,/PL_KEY3*%
X13000000Y-33000000D03*
%TD*%
D15*
%TO.P,C10,1*%
%TO.N,Net-(C10-Pad1)*%
X31000000Y-20700000D03*
%TO.P,C10,2*%
%TO.N,GND*%
X31000000Y-19300000D03*
%TD*%
D14*
%TO.P,R1,1*%
%TO.N,/PL_KEY0*%
X7247000Y-7500000D03*
%TO.P,R1,2*%
%TO.N,+3V3*%
X8753000Y-7500000D03*
%TD*%
D11*
%TO.P,J3,1,D2+*%
%TO.N,/HDMI1_D2+*%
X52501000Y-24721000D03*
%TO.P,J3,2,D2_SHIELD*%
%TO.N,GND*%
X52001000Y-24721000D03*
%TO.P,J3,3,D2-*%
%TO.N,/HDMI1_D2-*%
X51500000Y-24721000D03*
%TO.P,J3,4,D1+*%
%TO.N,/HDMI1_D1+*%
X51000000Y-24721000D03*
%TO.P,J3,5,D1_SHIELD*%
%TO.N,GND*%
X50499000Y-24721000D03*
%TO.P,J3,6,D1-*%
%TO.N,/HDMI1_D1-*%
X49999000Y-24721000D03*
%TO.P,J3,7,D0+*%
%TO.N,/HDMI1_D0+*%
X49501000Y-24721000D03*
%TO.P,J3,8,D0_SHIELD*%
%TO.N,GND*%
X49001000Y-24721000D03*
%TO.P,J3,9,D0-*%
%TO.N,/HDMI1_D0-*%
X48500000Y-24721000D03*
%TO.P,J3,10,CK+*%
%TO.N,/HDMI1_CK+*%
X48000000Y-24721000D03*
%TO.P,J3,11,CK_SHIELD*%
%TO.N,GND*%
X47500000Y-24721000D03*
%TO.P,J3,12,CK-*%
%TO.N,/HDMI1_CK-*%
X46999000Y-24721000D03*
%TO.P,J3,13,CEC*%
%TO.N,/HDMI1_CEC*%
X46501000Y-24721000D03*
%TO.P,J3,14,HEC*%
%TO.N,unconnected-(J3-HEC-Pad14)*%
X46001000Y-24721000D03*
%TO.P,J3,15,I2C-CLK*%
%TO.N,/SCL1*%
X45501000Y-24721000D03*
%TO.P,J3,16,I2C_DATA*%
%TO.N,/SDA1*%
X45000000Y-24721000D03*
%TO.P,J3,17,GND*%
%TO.N,GND*%
X44500000Y-24721000D03*
%TO.P,J3,18,+5V*%
%TO.N,Net-(D1-K)*%
X44000000Y-24721000D03*
%TO.P,J3,19,HOT_PLUG_DET*%
%TO.N,/HPD1*%
X43499000Y-24721000D03*
D12*
%TO.P,J3,20,SHD*%
%TO.N,Net-(C11-Pad1)*%
X55249000Y-31479000D03*
%TO.P,J3,21,SHD*%
X40751000Y-31479000D03*
D13*
%TO.P,J3,22,SHD*%
X55249000Y-25480000D03*
%TO.P,J3,23,SHD*%
X40751000Y-25480000D03*
%TD*%
D10*
%TO.P,R35,1*%
%TO.N,GND*%
X58000000Y-30247000D03*
%TO.P,R35,2*%
%TO.N,Net-(C11-Pad1)*%
X58000000Y-31753000D03*
%TD*%
D24*
%TO.P,P1,1,1*%
%TO.N,/PL_KEY0*%
X2000000Y-4920000D03*
D18*
%TO.P,P1,2,2*%
%TO.N,/PL_KEY1*%
X2000000Y-7460000D03*
%TO.P,P1,3,3*%
%TO.N,/PL_KEY2*%
X2000000Y-10000000D03*
%TO.P,P1,4,4*%
%TO.N,/PL_KEY3*%
X2000000Y-12540000D03*
%TO.P,P1,5,5*%
%TO.N,/AUDIO_L*%
X2000000Y-15080000D03*
%TO.P,P1,6,6*%
%TO.N,/AUDIO_R*%
X2000000Y-17620000D03*
%TO.P,P1,7,7*%
%TO.N,+5V*%
X2000000Y-20160000D03*
%TO.P,P1,8,8*%
%TO.N,GND*%
X2000000Y-22700000D03*
%TD*%
D14*
%TO.P,R4,1*%
%TO.N,/PL_KEY1*%
X7247000Y-9500000D03*
%TO.P,R4,2*%
%TO.N,+3V3*%
X8753000Y-9500000D03*
%TD*%
%TO.P,R37,1*%
%TO.N,/PL_KEY2*%
X7247000Y-13500000D03*
%TO.P,R37,2*%
%TO.N,+3V3*%
X8753000Y-13500000D03*
%TD*%
D11*
%TO.P,J1,1,D2+*%
%TO.N,/HDMI0_D2+*%
X77501000Y-24721000D03*
%TO.P,J1,2,D2_SHIELD*%
%TO.N,GND*%
X77001000Y-24721000D03*
%TO.P,J1,3,D2-*%
%TO.N,/HDMI0_D2-*%
X76500000Y-24721000D03*
%TO.P,J1,4,D1+*%
%TO.N,/HDMI0_D1+*%
X76000000Y-24721000D03*
%TO.P,J1,5,D1_SHIELD*%
%TO.N,GND*%
X75499000Y-24721000D03*
%TO.P,J1,6,D1-*%
%TO.N,/HDMI0_D1-*%
X74999000Y-24721000D03*
%TO.P,J1,7,D0+*%
%TO.N,/HDMI0_D0+*%
X74501000Y-24721000D03*
%TO.P,J1,8,D0_SHIELD*%
%TO.N,GND*%
X74001000Y-24721000D03*
%TO.P,J1,9,D0-*%
%TO.N,/HDMI0_D0-*%
X73500000Y-24721000D03*
%TO.P,J1,10,CK+*%
%TO.N,/HDMI0_CK+*%
X73000000Y-24721000D03*
%TO.P,J1,11,CK_SHIELD*%
%TO.N,GND*%
X72500000Y-24721000D03*
%TO.P,J1,12,CK-*%
%TO.N,/HDMI0_CK-*%
X71999000Y-24721000D03*
%TO.P,J1,13,CEC*%
%TO.N,/HDMI0_CEC*%
X71501000Y-24721000D03*
%TO.P,J1,14,HEC*%
%TO.N,unconnected-(J1-HEC-Pad14)*%
X71001000Y-24721000D03*
%TO.P,J1,15,I2C-CLK*%
%TO.N,/SCL0*%
X70501000Y-24721000D03*
%TO.P,J1,16,I2C_DATA*%
%TO.N,/SDA0*%
X70000000Y-24721000D03*
%TO.P,J1,17,GND*%
%TO.N,GND*%
X69500000Y-24721000D03*
%TO.P,J1,18,+5V*%
%TO.N,Net-(D1-K)*%
X69000000Y-24721000D03*
%TO.P,J1,19,HOT_PLUG_DET*%
%TO.N,/HPD0*%
X68499000Y-24721000D03*
D12*
%TO.P,J1,20,SHD*%
%TO.N,Net-(C12-Pad1)*%
X80249000Y-31479000D03*
%TO.P,J1,21,SHD*%
X65751000Y-31479000D03*
D13*
%TO.P,J1,22,SHD*%
X80249000Y-25480000D03*
%TO.P,J1,23,SHD*%
X65751000Y-25480000D03*
%TD*%
D23*
%TO.P,SW2,1,1*%
%TO.N,GND*%
X5000000Y-23000000D03*
%TO.P,SW2,2,2*%
%TO.N,/PL_KEY1*%
X13000000Y-23000000D03*
%TD*%
D14*
%TO.P,R13,1*%
%TO.N,Net-(J5-CC1)*%
X89753000Y-30000000D03*
%TO.P,R13,2*%
%TO.N,GND*%
X88247000Y-30000000D03*
%TD*%
D16*
%TO.P,C6,1*%
%TO.N,+5V*%
X95400000Y-11800000D03*
%TO.P,C6,2*%
%TO.N,GND*%
X96800000Y-11800000D03*
%TD*%
D14*
%TO.P,R18,1*%
%TO.N,Net-(J5-CC2)*%
X89753000Y-25500000D03*
%TO.P,R18,2*%
%TO.N,GND*%
X88247000Y-25500000D03*
%TD*%
D23*
%TO.P,SW1,1,1*%
%TO.N,GND*%
X5000000Y-18000000D03*
%TO.P,SW1,2,2*%
%TO.N,/PL_KEY0*%
X13000000Y-18000000D03*
%TD*%
D14*
%TO.P,R26,1*%
%TO.N,/HPD2*%
X17253000Y-22000000D03*
%TO.P,R26,2*%
%TO.N,GND*%
X15747000Y-22000000D03*
%TD*%
D25*
%TO.P,J5,1,EP*%
%TO.N,GND*%
X93191500Y-32320000D03*
%TO.P,J5,2,EP*%
X93191500Y-23680000D03*
D26*
%TO.P,J5,3,EP*%
X97371500Y-32320000D03*
%TO.P,J5,4,EP*%
X97371500Y-23680000D03*
D27*
%TO.P,J5,A1,GND*%
X92541500Y-31350000D03*
%TO.P,J5,A4,VBUS*%
%TO.N,+5V*%
X92541500Y-30550000D03*
%TO.P,J5,A5,CC1*%
%TO.N,Net-(J5-CC1)*%
X92541500Y-29250000D03*
%TO.P,J5,A6,DP1*%
%TO.N,/D+*%
X92541500Y-28250000D03*
%TO.P,J5,A7,DN1*%
%TO.N,/D-*%
X92541500Y-27750000D03*
%TO.P,J5,A8,SUB1*%
%TO.N,unconnected-(J5-SUB1-PadA8)*%
X92541500Y-26750000D03*
%TO.P,J5,A9,VBUS*%
%TO.N,+5V*%
X92541500Y-25450000D03*
%TO.P,J5,A12,GND*%
%TO.N,GND*%
X92541500Y-24650000D03*
%TO.P,J5,B1,GND*%
X92541500Y-24950000D03*
%TO.P,J5,B4,VBUS*%
%TO.N,+5V*%
X92541500Y-25750000D03*
%TO.P,J5,B5,CC2*%
%TO.N,Net-(J5-CC2)*%
X92541500Y-26250000D03*
%TO.P,J5,B6,DP2*%
%TO.N,/D+*%
X92541500Y-27250000D03*
%TO.P,J5,B7,DN2*%
%TO.N,/D-*%
X92541500Y-28750000D03*
%TO.P,J5,B8,SUB2*%
%TO.N,unconnected-(J5-SUB2-PadB8)*%
X92541500Y-29750000D03*
%TO.P,J5,B9,VBUS*%
%TO.N,+5V*%
X92541500Y-30250000D03*
%TO.P,J5,B12,GND*%
%TO.N,GND*%
X92541500Y-31050000D03*
%TD*%
D15*
%TO.P,C12,1*%
%TO.N,Net-(C12-Pad1)*%
X61500000Y-31700000D03*
%TO.P,C12,2*%
%TO.N,GND*%
X61500000Y-30300000D03*
%TD*%
D16*
%TO.P,C2,1*%
%TO.N,Net-(C2-Pad1)*%
X34700000Y-23000000D03*
%TO.P,C2,2*%
%TO.N,GND*%
X33300000Y-23000000D03*
%TD*%
D28*
%TO.P,D4,1,A*%
%TO.N,Net-(D4-A)*%
X88000000Y-22603000D03*
%TO.P,D4,2,K*%
%TO.N,GND*%
X88000000Y-20903000D03*
%TD*%
D16*
%TO.P,C7,1*%
%TO.N,+5V*%
X95400000Y-13700000D03*
%TO.P,C7,2*%
%TO.N,GND*%
X96800000Y-13700000D03*
%TD*%
D29*
%TO.P,J2,2,2*%
%TO.N,Net-(C1-Pad1)*%
X37876000Y-30912500D03*
%TO.P,J2,3,3*%
%TO.N,GND*%
X33076000Y-32912500D03*
%TO.P,J2,4,4*%
%TO.N,Net-(C2-Pad1)*%
X33076000Y-25912500D03*
%TD*%
D30*
%TO.N,GND*%
X61085716Y-22676000D03*
X33000000Y-21656002D03*
X84500000Y-16500000D03*
X30605716Y-27756000D03*
X4999993Y-34324912D03*
X83945716Y-22676000D03*
X84500000Y-10500000D03*
X43305716Y-32836000D03*
X63625716Y-25216000D03*
X38225716Y-32836000D03*
X45845716Y-30296000D03*
X88000000Y-31000000D03*
X83945716Y-25216000D03*
X56005716Y-15056000D03*
X58545716Y-25216000D03*
X81405716Y-12516000D03*
X81405716Y-4896000D03*
X83945716Y-27756000D03*
X68705716Y-30296000D03*
X58545716Y-32836000D03*
X43305716Y-20136000D03*
X78865716Y-25216000D03*
X37700000Y-24000000D03*
X50500000Y-26500000D03*
X93000000Y-22000000D03*
X56005716Y-12516000D03*
X73785716Y-30296000D03*
X76325716Y-12516000D03*
X30605716Y-15056000D03*
X96645716Y-25216000D03*
X86485716Y-30296000D03*
X88000000Y-26500000D03*
X43305716Y-30296000D03*
X63625716Y-32836000D03*
X86485716Y-25216000D03*
X33145716Y-30296000D03*
X22985716Y-27756000D03*
X53465716Y-22676000D03*
X41500000Y-22500000D03*
X5000000Y-22000000D03*
X83945716Y-4896000D03*
X56005716Y-9976000D03*
X10285716Y-27756000D03*
X5000000Y-17000000D03*
X17905716Y-32836000D03*
X77001000Y-26499000D03*
X33145716Y-15056000D03*
X83945716Y-30296000D03*
X53465716Y-32836000D03*
X2665716Y-30296000D03*
X63625716Y-17596000D03*
X28065716Y-7436000D03*
X28065716Y-30296000D03*
X58545716Y-22676000D03*
X66165716Y-17596000D03*
X96645716Y-30296000D03*
X83945716Y-20136000D03*
X35685716Y-30296000D03*
X89025716Y-2356000D03*
X68705716Y-32836000D03*
X53465716Y-7436000D03*
X43305716Y-15056000D03*
X83945716Y-7436000D03*
X30605716Y-12516000D03*
X78865716Y-12516000D03*
X89025716Y-7436000D03*
X96645716Y-27756000D03*
X60500000Y-30247000D03*
X75500000Y-26500000D03*
X47500000Y-26500000D03*
X15000000Y-21500000D03*
X89025716Y-32836000D03*
X88500000Y-21500000D03*
X5205716Y-12516000D03*
X17905716Y-27756000D03*
X5205716Y-2356000D03*
X5205716Y-15056000D03*
X76325716Y-4896000D03*
X33145716Y-9976000D03*
X78865716Y-4896000D03*
X5000000Y-27000000D03*
X66500000Y-22500000D03*
X72500000Y-26500000D03*
X33145716Y-12516000D03*
X17905716Y-30296000D03*
X88612502Y-18000000D03*
X63625716Y-22676000D03*
X50925716Y-30296000D03*
X83600000Y-13000000D03*
X76325716Y-30296000D03*
X92500000Y-9500000D03*
X5205716Y-20136000D03*
X53465716Y-30296000D03*
X91565716Y-32836000D03*
X44500000Y-26500000D03*
X86485716Y-4896000D03*
X28065716Y-27756000D03*
X25525716Y-27756000D03*
X78865716Y-7436000D03*
X86485716Y-22676000D03*
X45845716Y-32836000D03*
X52000000Y-26500000D03*
X2665716Y-25216000D03*
X24000000Y-26500000D03*
X73785716Y-32836000D03*
X5205716Y-25216000D03*
X71245716Y-30296000D03*
X78865716Y-30296000D03*
X69500000Y-26500000D03*
X78865716Y-32836000D03*
X15365716Y-27756000D03*
X61085716Y-32836000D03*
X53465716Y-25216000D03*
X86485716Y-32836000D03*
X33145716Y-17596000D03*
X48385716Y-32836000D03*
X81405716Y-9976000D03*
X89025716Y-4896000D03*
X20445716Y-30296000D03*
X56005716Y-20136000D03*
X71245716Y-32836000D03*
X28065716Y-32836000D03*
X30605716Y-17596000D03*
X73785716Y-7436000D03*
X78865716Y-20136000D03*
X83945716Y-32836000D03*
X53465716Y-9976000D03*
X30605716Y-4896000D03*
X40765716Y-20136000D03*
X74000000Y-26500000D03*
X78865716Y-22676000D03*
X97000000Y-11000000D03*
X56005716Y-22676000D03*
X76325716Y-7436000D03*
X32000000Y-19247000D03*
X49000000Y-26500000D03*
X2665716Y-27756000D03*
X19500000Y-26500000D03*
X86485716Y-27756000D03*
X56005716Y-7436000D03*
X25500000Y-26500000D03*
X2665716Y-32836000D03*
X89025716Y-9976000D03*
X2665716Y-2356000D03*
X27000000Y-26500000D03*
X22500000Y-26500000D03*
X76325716Y-32836000D03*
%TO.N,Net-(D1-K)*%
X18500000Y-23000000D03*
X44099000Y-23000000D03*
X69099000Y-23000000D03*
%TO.N,/AUDIO_L*%
X35400000Y-25500000D03*
X54500000Y-4500000D03*
X23500000Y-29000000D03*
%TO.N,/AUDIO_R*%
X24500000Y-30000000D03*
X36100000Y-24900000D03*
%TO.N,+3V3*%
X59747000Y-15000000D03*
X6647000Y-20500000D03*
X93600000Y-21000000D03*
X13500000Y-9000000D03*
X59747000Y-20000000D03*
X6484735Y-32515265D03*
X85000000Y-15000000D03*
X8650000Y-12500000D03*
X11100000Y-9500000D03*
X59747000Y-10500000D03*
X7247000Y-12500000D03*
X9500000Y-9500000D03*
%TO.N,/D+*%
X90252271Y-27186585D03*
%TO.N,/D-*%
X89686585Y-27752271D03*
%TO.N,/HDMI0_D0+*%
X74600000Y-17800000D03*
%TO.N,/HDMI0_CK+*%
X59182842Y-6017158D03*
X73000000Y-17800000D03*
%TO.N,/SDA0*%
X66600000Y-15000000D03*
%TO.N,/HDMI0_D2+*%
X78218985Y-18000000D03*
X70100000Y-6300000D03*
%TO.N,/SCL0*%
X65600000Y-14000000D03*
%TO.N,/HDMI0_D1+*%
X76595946Y-17900000D03*
%TO.N,/HDMI0_CK-*%
X72200000Y-17800000D03*
%TO.N,/HDMI0_D0-*%
X73800000Y-17800000D03*
%TO.N,/HDMI0_D2-*%
X77423910Y-17909934D03*
%TO.N,/HDMI0_D1-*%
X75800000Y-17800000D03*
%TO.N,/HDMI1_D1-*%
X50099500Y-13800000D03*
%TO.N,/HDMI1_D2+*%
X47632842Y-6067158D03*
X52409561Y-13269136D03*
%TO.N,/HDMI1_CK+*%
X37000000Y-7100000D03*
X47899500Y-13747798D03*
%TO.N,/HDMI1_D0+*%
X49400500Y-14200000D03*
%TO.N,/HDMI1_D0-*%
X48600000Y-14200000D03*
%TO.N,/HDMI2_D1-*%
X25099501Y-16000000D03*
X25900000Y-14000000D03*
%TO.N,/HDMI1_CK-*%
X47097858Y-13718886D03*
%TO.N,/HDMI1_D1+*%
X50899500Y-13712077D03*
X45582842Y-6017158D03*
%TO.N,/HDMI0_CEC*%
X60500000Y-8000000D03*
%TO.N,/SDA1*%
X41800000Y-17000000D03*
%TO.N,/SCL1*%
X41800000Y-12000000D03*
%TO.N,/HDMI1_D2-*%
X51574365Y-13282470D03*
%TO.N,/HDMI2_CK+*%
X20907842Y-14092158D03*
%TO.N,/HDMI2_D2+*%
X26800000Y-14283230D03*
%TO.N,/HDMI2_D2-*%
X26600501Y-16000000D03*
%TO.N,/SDA2*%
X15000000Y-19500000D03*
%TO.N,/SCL2*%
X14400000Y-14500000D03*
%TO.N,/HDMI2_D0+*%
X22700000Y-14000000D03*
%TO.N,/HDMI2_D0-*%
X23500000Y-15800000D03*
%TO.N,/HDMI2_CK-*%
X20342155Y-14657845D03*
%TO.N,/HDMI2_D1+*%
X25100000Y-14000000D03*
%TO.N,/HDMI1_CEC*%
X41400000Y-10800000D03*
%TO.N,/TXD*%
X97200000Y-8600000D03*
%TO.N,/HPD0*%
X66800000Y-20000000D03*
%TO.N,/HPD1*%
X43399000Y-22500000D03*
%TO.N,/HPD2*%
X17500000Y-23000000D03*
%TD*%
D31*
%TO.N,+5V*%
X92500000Y-16200000D02*
X95400000Y-13300000D01*
D32*
X94300000Y-25800000D02*
X94290000Y-25810000D01*
D33*
X95200000Y-20435000D02*
X95200000Y-30000000D01*
D34*
X8476472Y-1175000D02*
X25825000Y-1175000D01*
D32*
X92687250Y-30395750D02*
X92541500Y-30250000D01*
X93600000Y-29700000D02*
X93800000Y-29700000D01*
D34*
X25825000Y-1175000D02*
X27450000Y-2800000D01*
D32*
X93041500Y-25450000D02*
X93401500Y-25810000D01*
X93500000Y-30100000D02*
X93500000Y-29700000D01*
X93531551Y-30090000D02*
X93700000Y-30090000D01*
X93401500Y-25810000D02*
X94290000Y-25810000D01*
X93700000Y-26300000D02*
X93600000Y-26200000D01*
D33*
X95200000Y-30000000D02*
X94800000Y-30400000D01*
D32*
X93700000Y-30090000D02*
X93800000Y-30190000D01*
X92541500Y-25750000D02*
X93391500Y-25750000D01*
X93700000Y-29921551D02*
X93700000Y-30090000D01*
D34*
X3400000Y-18760000D02*
X3400000Y-6251472D01*
D31*
X94000000Y-10400000D02*
X94000000Y-6000000D01*
D32*
X93491500Y-26300000D02*
X93700000Y-26300000D01*
D31*
X95400000Y-11800000D02*
X94000000Y-10400000D01*
X95400000Y-13300000D02*
X95400000Y-11800000D01*
D32*
X93700000Y-25891500D02*
X93700000Y-25810000D01*
D33*
X92500000Y-17735000D02*
X95200000Y-20435000D01*
D34*
X3400000Y-6251472D02*
X8476472Y-1175000D01*
D32*
X93600000Y-26200000D02*
X93600000Y-26008500D01*
X93401500Y-30190000D02*
X93800000Y-30190000D01*
X93451500Y-25810000D02*
X93700000Y-25810000D01*
X93391500Y-25800000D02*
X93591500Y-26000000D01*
X92591500Y-30200000D02*
X93400000Y-30200000D01*
X93491500Y-25800000D02*
X93491500Y-26300000D01*
X92595750Y-30304250D02*
X93317301Y-30304250D01*
X93391500Y-25750000D02*
X93451500Y-25810000D01*
X93591500Y-26000000D02*
X93700000Y-25891500D01*
X93451500Y-25810000D02*
X94290000Y-25810000D01*
X93041500Y-30550000D02*
X93401500Y-30190000D01*
X92541500Y-30250000D02*
X92595750Y-30304250D01*
X93500000Y-29700000D02*
X93600000Y-29700000D01*
X93317301Y-30304250D02*
X93531551Y-30090000D01*
X93600000Y-29700000D02*
X93600000Y-29821551D01*
X93600000Y-29821551D02*
X93700000Y-29921551D01*
X92591500Y-25800000D02*
X93391500Y-25800000D01*
D31*
X92500000Y-18150000D02*
X92500000Y-16200000D01*
D34*
X2000000Y-20160000D02*
X3400000Y-18760000D01*
D32*
X93700000Y-25810000D02*
X94290000Y-25810000D01*
D35*
%TO.N,GND*%
X33000000Y-19247000D02*
X31053000Y-19247000D01*
D32*
X49001000Y-24721000D02*
X49001000Y-26499000D01*
D35*
X33000000Y-21656002D02*
X33300000Y-21956002D01*
X33300000Y-21956002D02*
X33300000Y-23000000D01*
D32*
X49001000Y-26499000D02*
X49000000Y-26500000D01*
X24001000Y-26499000D02*
X24000000Y-26500000D01*
D35*
X92541500Y-24650000D02*
X92541500Y-24330000D01*
D32*
X22500000Y-24721000D02*
X22500000Y-26500000D01*
D35*
X88000000Y-21000000D02*
X88500000Y-21500000D01*
X41747000Y-21500000D02*
X41747000Y-22253000D01*
D32*
X72500000Y-26500000D02*
X72500000Y-24721000D01*
D35*
X92541500Y-31350000D02*
X92541500Y-31670000D01*
D32*
X19500000Y-24721000D02*
X19500000Y-26500000D01*
X69500000Y-24721000D02*
X69500000Y-26500000D01*
X52001000Y-24721000D02*
X52001000Y-26499000D01*
X74001000Y-24721000D02*
X74001000Y-26499000D01*
D35*
X88247000Y-30000000D02*
X88247000Y-30753000D01*
X96800000Y-13700000D02*
X96800000Y-11800000D01*
D32*
X77001000Y-24721000D02*
X77001000Y-26499000D01*
X44500000Y-24721000D02*
X44500000Y-26500000D01*
D35*
X88247000Y-25500000D02*
X88247000Y-26253000D01*
X41747000Y-22253000D02*
X41500000Y-22500000D01*
D32*
X75499000Y-24721000D02*
X75499000Y-26499000D01*
X50499000Y-24721000D02*
X50499000Y-26499000D01*
X47500000Y-24721000D02*
X47500000Y-26500000D01*
D35*
X88247000Y-26253000D02*
X88000000Y-26500000D01*
X58000000Y-30247000D02*
X63250000Y-30247000D01*
X92541500Y-24330000D02*
X93191500Y-23680000D01*
X96800000Y-11800000D02*
X96800000Y-11200000D01*
X5000000Y-34324905D02*
X4999993Y-34324912D01*
X5000000Y-33000000D02*
X5000000Y-34324905D01*
D32*
X15500000Y-22000000D02*
X15000000Y-21500000D01*
D35*
X5000000Y-18000000D02*
X5000000Y-17000000D01*
D32*
X25499000Y-24721000D02*
X25499000Y-26499000D01*
D35*
X96800000Y-11200000D02*
X97000000Y-11000000D01*
X87900000Y-17735000D02*
X88347502Y-17735000D01*
X92541500Y-31670000D02*
X93191500Y-32320000D01*
X38200000Y-23000000D02*
X38200000Y-23500000D01*
X88247000Y-30753000D02*
X88000000Y-31000000D01*
D32*
X74001000Y-26499000D02*
X74000000Y-26500000D01*
X75499000Y-26499000D02*
X75500000Y-26500000D01*
D35*
X5000000Y-28000000D02*
X5000000Y-27000000D01*
D32*
X24001000Y-24721000D02*
X24001000Y-26499000D01*
D35*
X38200000Y-23500000D02*
X37700000Y-24000000D01*
X83600000Y-11900000D02*
X83600000Y-13000000D01*
X66747000Y-21800000D02*
X66747000Y-22253000D01*
D32*
X27001000Y-26499000D02*
X27000000Y-26500000D01*
D35*
X5000000Y-23000000D02*
X5000000Y-22000000D01*
X83600000Y-13000000D02*
X83600000Y-13800000D01*
X66747000Y-22253000D02*
X66500000Y-22500000D01*
D32*
X27001000Y-24721000D02*
X27001000Y-26499000D01*
X25499000Y-26499000D02*
X25500000Y-26500000D01*
D35*
X88347502Y-17735000D02*
X88612502Y-18000000D01*
D32*
X50499000Y-26499000D02*
X50500000Y-26500000D01*
X52001000Y-26499000D02*
X52000000Y-26500000D01*
D35*
%TO.N,Net-(C1-Pad1)*%
X36900000Y-23000000D02*
X36900000Y-21156000D01*
X37876000Y-25876000D02*
X37876000Y-30912500D01*
X37203000Y-20853000D02*
X36900000Y-21156000D01*
X37000000Y-23030000D02*
X37000000Y-25000000D01*
X37000000Y-25000000D02*
X37876000Y-25876000D01*
D32*
%TO.N,/PL_KEY1*%
X8050000Y-18050000D02*
X8050000Y-10303000D01*
X9450000Y-4800000D02*
X7950000Y-6300000D01*
X8050000Y-10303000D02*
X7247000Y-9500000D01*
X13000000Y-23000000D02*
X8050000Y-18050000D01*
X7950000Y-6300000D02*
X7950000Y-8797000D01*
X7950000Y-8797000D02*
X7247000Y-9500000D01*
%TO.N,/PL_KEY0*%
X13000000Y-15181314D02*
X13000000Y-18000000D01*
X12425000Y-4396141D02*
X12425000Y-5203859D01*
X10500000Y-7128859D02*
X10500000Y-10318686D01*
X7247000Y-5003000D02*
X7247000Y-7500000D01*
X12425000Y-5203859D02*
X10500000Y-7128859D01*
X10500000Y-10318686D02*
X10000000Y-10818686D01*
X10000000Y-12181314D02*
X13000000Y-15181314D01*
X11853859Y-3825000D02*
X12425000Y-4396141D01*
X10475000Y-3825000D02*
X11853859Y-3825000D01*
X9450000Y-2800000D02*
X10475000Y-3825000D01*
X10000000Y-10818686D02*
X10000000Y-12181314D01*
X9450000Y-2800000D02*
X7247000Y-5003000D01*
%TO.N,Net-(D1-K)*%
X19000000Y-24721000D02*
X19000000Y-26151471D01*
X69000000Y-23099000D02*
X69000000Y-24721000D01*
X69000000Y-24721000D02*
X69000000Y-26151471D01*
X44000000Y-23099000D02*
X44099000Y-23000000D01*
X19000000Y-23500000D02*
X18500000Y-23000000D01*
X19000000Y-26151471D02*
X18900000Y-26251471D01*
X66801000Y-32699000D02*
X65500000Y-34000000D01*
X26112500Y-34112500D02*
X49887500Y-34112500D01*
X19000000Y-24721000D02*
X19000000Y-23500000D01*
X18900000Y-26251471D02*
X18900000Y-26900000D01*
X18900000Y-26900000D02*
X26112500Y-34112500D01*
X65500000Y-34000000D02*
X51151471Y-34000000D01*
X43900000Y-26748529D02*
X51151471Y-34000000D01*
X69000000Y-26151471D02*
X66801000Y-28350471D01*
X69099000Y-23000000D02*
X69000000Y-23099000D01*
X49887500Y-34112500D02*
X50575736Y-33424264D01*
X44000000Y-26000000D02*
X44000000Y-24721000D01*
X66801000Y-28350471D02*
X66801000Y-32699000D01*
X44000000Y-24721000D02*
X44000000Y-23099000D01*
X43900000Y-26748529D02*
X43900000Y-26100000D01*
X43900000Y-26100000D02*
X44000000Y-26000000D01*
%TO.N,/AUDIO_L*%
X35500000Y-21688000D02*
X35500000Y-25500000D01*
X23500000Y-29000000D02*
X32000000Y-29000000D01*
X35732000Y-19979000D02*
X35732000Y-21456000D01*
X54800000Y-4500000D02*
X54500000Y-4500000D01*
X35000000Y-19247000D02*
X35732000Y-19979000D01*
X35500000Y-25500000D02*
X32000000Y-29000000D01*
X56500000Y-2800000D02*
X54800000Y-4500000D01*
X35732000Y-21456000D02*
X35500000Y-21688000D01*
%TO.N,/AUDIO_R*%
X36132000Y-20289000D02*
X36132000Y-22250000D01*
X36132000Y-23750000D02*
X36132000Y-26224997D01*
X36426000Y-26518997D02*
X36426000Y-27574000D01*
X36100000Y-23718000D02*
X36132000Y-23750000D01*
X36426000Y-27574000D02*
X34500000Y-29500000D01*
X37174000Y-19247000D02*
X36132000Y-20289000D01*
X36132000Y-22250000D02*
X36100000Y-22282000D01*
X25000000Y-29500000D02*
X24500000Y-30000000D01*
X36100000Y-22282000D02*
X36100000Y-23718000D01*
X36132000Y-26224997D02*
X36426000Y-26518997D01*
X25000000Y-29500000D02*
X34500000Y-29500000D01*
D34*
%TO.N,+3V3*%
X90200000Y-7260000D02*
X91460000Y-6000000D01*
D35*
X90000000Y-21000000D02*
X90000000Y-17935000D01*
D32*
X8753000Y-13500000D02*
X8753000Y-12603000D01*
X13500000Y-8253000D02*
X12747000Y-7500000D01*
D34*
X8753000Y-7500000D02*
X8753000Y-9665000D01*
D32*
X7247000Y-11500000D02*
X7247000Y-12500000D01*
D35*
X6484735Y-32515265D02*
X6484735Y-20662265D01*
D34*
X85000000Y-13800000D02*
X85000000Y-15000000D01*
D31*
X90200000Y-11850000D02*
X90200000Y-18150000D01*
D34*
X90200000Y-12065000D02*
X90200000Y-7260000D01*
D32*
X8753000Y-9500000D02*
X9500000Y-9500000D01*
D31*
X85250000Y-11850000D02*
X90200000Y-11850000D01*
D35*
X59747000Y-20000000D02*
X59747000Y-15000000D01*
D32*
X13500000Y-9000000D02*
X13500000Y-8253000D01*
D34*
X85000000Y-11900000D02*
X85000000Y-13800000D01*
D32*
X11100000Y-9500000D02*
X13000000Y-9500000D01*
X13000000Y-9500000D02*
X13500000Y-9000000D01*
D35*
X93600000Y-21000000D02*
X90000000Y-21000000D01*
X6484735Y-20662265D02*
X6647000Y-20500000D01*
D32*
X60447000Y-9800000D02*
X59747000Y-10500000D01*
X8753000Y-12603000D02*
X8650000Y-12500000D01*
D35*
%TO.N,Net-(D4-A)*%
X88000000Y-22603000D02*
X89903000Y-22603000D01*
D36*
%TO.N,/D+*%
X90252271Y-27415405D02*
X90252271Y-27186585D01*
D32*
X91750000Y-28250000D02*
X92541500Y-28250000D01*
D36*
X91098666Y-28261800D02*
X90252271Y-27415405D01*
X91554699Y-28261800D02*
X91098666Y-28261800D01*
D32*
X92541500Y-27250000D02*
X91641500Y-27250000D01*
D36*
X91566499Y-28250000D02*
X91554699Y-28261800D01*
D32*
X91500000Y-28000000D02*
X91750000Y-28250000D01*
D36*
X92541500Y-28250000D02*
X91566499Y-28250000D01*
D32*
X91500000Y-27391500D02*
X91500000Y-28000000D01*
X91641500Y-27250000D02*
X91500000Y-27391500D01*
%TO.N,/D-*%
X92541500Y-28750000D02*
X93441500Y-28750000D01*
D36*
X89915405Y-27752271D02*
X89686585Y-27752271D01*
D32*
X93500000Y-27808500D02*
X93441500Y-27750000D01*
X93441500Y-28750000D02*
X93500000Y-28691500D01*
D36*
X92541500Y-28750000D02*
X91566499Y-28750000D01*
X91554699Y-28738200D02*
X90901334Y-28738200D01*
D32*
X93441500Y-27750000D02*
X92541500Y-27750000D01*
D36*
X91566499Y-28750000D02*
X91554699Y-28738200D01*
D32*
X93500000Y-28691500D02*
X93500000Y-27808500D01*
D36*
X90901334Y-28738200D02*
X89915405Y-27752271D01*
D35*
%TO.N,Net-(C10-Pad1)*%
X30249000Y-25480000D02*
X30249000Y-21451000D01*
X31000000Y-20700000D02*
X32947000Y-20700000D01*
X30249000Y-21451000D02*
X31000000Y-20700000D01*
%TO.N,Net-(C11-Pad1)*%
X59750000Y-31700000D02*
X55470000Y-31700000D01*
D32*
%TO.N,Net-(J5-CC1)*%
X90503000Y-29250000D02*
X92541500Y-29250000D01*
X89953000Y-29800000D02*
X90503000Y-29250000D01*
%TO.N,Net-(J5-CC2)*%
X90503000Y-26250000D02*
X89753000Y-25500000D01*
X92541500Y-26250000D02*
X90503000Y-26250000D01*
D37*
%TO.N,/HDMI0_D0+*%
X66400273Y-9115627D02*
X66192595Y-8907949D01*
X69228701Y-11944055D02*
X69021023Y-11736377D01*
X67814487Y-10529841D02*
X67606809Y-10322163D01*
X62906468Y-3818700D02*
X62102206Y-3818700D01*
X63481300Y-4393532D02*
X62906468Y-3818700D01*
X74501000Y-24721000D02*
X74501000Y-23921000D01*
X68813348Y-10529843D02*
X68813347Y-10529841D01*
X67606810Y-9323305D02*
X67399134Y-9115629D01*
X63481300Y-5197794D02*
X66192596Y-7909091D01*
X67399134Y-9115629D02*
X67399133Y-9115627D01*
X74406300Y-17548862D02*
X74206800Y-17349362D01*
X74501000Y-23921000D02*
X74206800Y-23626800D01*
X61083506Y-2800000D02*
X60500000Y-2800000D01*
X74206800Y-15923294D02*
X70227562Y-11944056D01*
X62102206Y-3818700D02*
X61083506Y-2800000D01*
X74206800Y-17349362D02*
X74206800Y-15923294D01*
X74206800Y-23626800D02*
X74206800Y-18250638D01*
X63481300Y-5197794D02*
X63481300Y-4393532D01*
X74206800Y-18250638D02*
X74406300Y-18051138D01*
X74406300Y-18051138D02*
X74406300Y-17548862D01*
X70227562Y-11944056D02*
X70227561Y-11944055D01*
X69021024Y-10737519D02*
X68813348Y-10529843D01*
X69021023Y-11736377D02*
G75*
G02*
X69020984Y-11528662I103877J103877D01*
G01*
X69021024Y-11528701D02*
G75*
G03*
X69021034Y-10737509I-395624J395601D01*
G01*
X67606810Y-10114487D02*
G75*
G03*
X67606806Y-9323309I-395610J395587D01*
G01*
X69436379Y-11944055D02*
G75*
G02*
X69228701Y-11944055I-103839J103834D01*
G01*
X68022165Y-10529841D02*
G75*
G02*
X67814487Y-10529841I-103839J103834D01*
G01*
X66607951Y-9115627D02*
G75*
G02*
X66400273Y-9115627I-103839J103834D01*
G01*
X68813347Y-10529841D02*
G75*
G03*
X68022165Y-10529841I-395591J-395592D01*
G01*
X67399133Y-9115627D02*
G75*
G03*
X66607951Y-9115627I-395591J-395592D01*
G01*
X67606809Y-10322163D02*
G75*
G02*
X67606784Y-10114461I103791J103863D01*
G01*
X66192596Y-8700273D02*
G75*
G03*
X66192578Y-7909109I-395596J395573D01*
G01*
X70227561Y-11944055D02*
G75*
G03*
X69436379Y-11944055I-395591J-395592D01*
G01*
X66192595Y-8907949D02*
G75*
G02*
X66192584Y-8700261I103805J103849D01*
G01*
D35*
%TO.N,Net-(C2-Pad1)*%
X35000000Y-20753000D02*
X34697000Y-21056000D01*
X34500000Y-24488500D02*
X33076000Y-25912500D01*
X34697000Y-22900000D02*
X34697000Y-21056000D01*
X34500000Y-22927000D02*
X34500000Y-24488500D01*
D37*
%TO.N,/HDMI0_CK+*%
X73000000Y-23921000D02*
X72705800Y-23626800D01*
X59245877Y-6054123D02*
X59219807Y-6054123D01*
X72705800Y-17448362D02*
X72705800Y-16614046D01*
X72705800Y-16614046D02*
X62785454Y-6693700D01*
X59219807Y-6054123D02*
X59182842Y-6017158D01*
X62785454Y-6693700D02*
X59885454Y-6693700D01*
X72705800Y-23626800D02*
X72705800Y-18151638D01*
X59885454Y-6693700D02*
X59245877Y-6054123D01*
X72806300Y-17548862D02*
X72705800Y-17448362D01*
X73000000Y-24721000D02*
X73000000Y-23921000D01*
X72705800Y-18151638D02*
X72806300Y-18051138D01*
X72806300Y-18051138D02*
X72806300Y-17548862D01*
D32*
%TO.N,/SDA0*%
X70000000Y-24721000D02*
X70000000Y-18117157D01*
X70000000Y-18117157D02*
X66882843Y-15000000D01*
X66882843Y-15000000D02*
X66600000Y-15000000D01*
D37*
%TO.N,/HDMI0_D2+*%
X77900000Y-15808246D02*
X77900000Y-17528586D01*
X71712859Y-9621105D02*
X71854282Y-9762528D01*
X74121477Y-11181195D02*
X73834179Y-11468494D01*
X72000158Y-9059876D02*
X71712860Y-9347175D01*
X72689442Y-10615510D02*
X72835317Y-10469632D01*
X77206800Y-23626800D02*
X77501000Y-23921000D01*
X69806300Y-6593700D02*
X69806300Y-7714546D01*
X71854281Y-10619967D02*
X71814470Y-10659777D01*
X73834178Y-11742424D02*
X77900000Y-15808246D01*
X73980057Y-10182336D02*
X74121478Y-10323757D01*
X78218985Y-18181015D02*
X77206800Y-19193200D01*
X69806300Y-7714546D02*
X70440069Y-8348315D01*
X77900000Y-17528586D02*
X78218985Y-17847571D01*
X71854282Y-9762528D02*
X71854281Y-9762528D01*
X72269633Y-11035319D02*
X72689442Y-10615510D01*
X78218985Y-17847571D02*
X78218985Y-18000000D01*
X70440069Y-8348315D02*
X70440067Y-8348314D01*
X77206800Y-19193200D02*
X77206800Y-23626800D01*
X71858738Y-8061017D02*
X72000159Y-8202438D01*
X72835317Y-10469632D02*
X73122617Y-10182335D01*
X71814470Y-10933709D02*
X71955891Y-11075130D01*
X72229823Y-11075130D02*
X72269633Y-11035319D01*
X70714001Y-8348316D02*
X71001298Y-8061016D01*
X77501000Y-23921000D02*
X77501000Y-24721000D01*
X78218985Y-18000000D02*
X78218985Y-18181015D01*
X70100000Y-6300000D02*
X69806300Y-6593700D01*
X73122617Y-10182335D02*
G75*
G02*
X73980021Y-10182372I428683J-428765D01*
G01*
X74121478Y-10323757D02*
G75*
G02*
X74121502Y-11181220I-428678J-428743D01*
G01*
X71001298Y-8061016D02*
G75*
G02*
X71858720Y-8061034I428702J-428684D01*
G01*
X73834179Y-11468494D02*
G75*
G03*
X73834137Y-11742465I136921J-137006D01*
G01*
X71854281Y-9762528D02*
G75*
G02*
X71854234Y-10619919I-428681J-428672D01*
G01*
X71712860Y-9347175D02*
G75*
G03*
X71712899Y-9621064I136940J-136925D01*
G01*
X71955891Y-11075130D02*
G75*
G03*
X72229823Y-11075130I136966J136967D01*
G01*
X71814470Y-10659777D02*
G75*
G03*
X71814513Y-10933666I136930J-136923D01*
G01*
X72000159Y-8202438D02*
G75*
G02*
X72000202Y-9059919I-428759J-428762D01*
G01*
X70440067Y-8348314D02*
G75*
G03*
X70713966Y-8348281I136933J137014D01*
G01*
D32*
%TO.N,/SCL0*%
X65600000Y-14000000D02*
X66448529Y-14000000D01*
X66448529Y-14000000D02*
X70501000Y-18052471D01*
X70501000Y-18052471D02*
X70501000Y-24721000D01*
D37*
%TO.N,/HDMI0_D1+*%
X75945800Y-20865375D02*
X76115800Y-20865375D01*
X75945800Y-22065375D02*
X76115800Y-22065375D01*
X76300000Y-17442562D02*
X76595946Y-17738508D01*
X66706300Y-7014546D02*
X67573575Y-7881821D01*
X69261720Y-9296035D02*
X69301529Y-9256223D01*
X76595946Y-18204054D02*
X75705800Y-19094200D01*
X66706300Y-5006300D02*
X66706300Y-7014546D01*
X76355800Y-22305375D02*
X76355800Y-22425375D01*
X67573575Y-7881821D02*
X67573573Y-7881820D01*
X75705800Y-20505375D02*
X75705800Y-20625375D01*
X72109927Y-12078762D02*
X72155717Y-12032969D01*
X76595946Y-17900000D02*
X76595946Y-18204054D01*
X73382717Y-13690964D02*
X76300000Y-16608246D01*
X70300389Y-10255083D02*
X70260579Y-10294894D01*
X68780112Y-7806655D02*
X68921533Y-7948076D01*
X72534189Y-12842436D02*
X72619043Y-12927289D01*
X72958455Y-12927290D02*
X73004196Y-12881546D01*
X70158969Y-9256224D02*
X70300390Y-9397645D01*
X75945800Y-19665375D02*
X76115800Y-19665375D01*
X68987788Y-9296034D02*
X68987786Y-9296033D01*
X76000000Y-23921000D02*
X76000000Y-24721000D01*
X68846365Y-9154611D02*
X68987788Y-9296034D01*
X75705800Y-22905375D02*
X75705800Y-23626800D01*
X73343608Y-12881547D02*
X73428460Y-12966399D01*
X70260579Y-10568826D02*
X71770515Y-12078761D01*
X73428460Y-13305811D02*
X73382716Y-13351552D01*
X76355800Y-21105375D02*
X76355800Y-21225375D01*
X72579981Y-12457234D02*
X72534188Y-12503024D01*
X76595946Y-17738508D02*
X76595946Y-17900000D01*
X76300000Y-16608246D02*
X76300000Y-17442562D01*
X76115800Y-21465375D02*
X75945800Y-21465375D01*
X72495129Y-12032970D02*
X72579981Y-12117822D01*
X68921532Y-8805514D02*
X68846366Y-8880681D01*
X76355800Y-19905375D02*
X76355800Y-20025375D01*
X76115800Y-22665375D02*
X75945800Y-22665375D01*
X67847507Y-7881822D02*
X67922672Y-7806654D01*
X76115800Y-20265375D02*
X75945800Y-20265375D01*
X75705800Y-21705375D02*
X75705800Y-21825375D01*
X75705800Y-23626800D02*
X76000000Y-23921000D01*
X75705800Y-19094200D02*
X75705800Y-19425375D01*
X73382716Y-13351552D02*
G75*
G03*
X73382674Y-13691007I169684J-169748D01*
G01*
X75705800Y-21825375D02*
G75*
G03*
X75945800Y-22065400I240000J-25D01*
G01*
X76115800Y-19665375D02*
G75*
G02*
X76355825Y-19905375I0J-240025D01*
G01*
X70300390Y-9397645D02*
G75*
G02*
X70300426Y-10255120I-428690J-428755D01*
G01*
X69301529Y-9256223D02*
G75*
G02*
X70158920Y-9256272I428671J-428677D01*
G01*
X76355800Y-20025375D02*
G75*
G02*
X76115800Y-20265400I-240000J-25D01*
G01*
X75945800Y-22665375D02*
G75*
G03*
X75705775Y-22905375I0J-240025D01*
G01*
X75945800Y-20265375D02*
G75*
G03*
X75705775Y-20505375I0J-240025D01*
G01*
X72155717Y-12032969D02*
G75*
G02*
X72495107Y-12032992I169683J-169731D01*
G01*
X75705800Y-19425375D02*
G75*
G03*
X75945800Y-19665400I240000J-25D01*
G01*
X75705800Y-20625375D02*
G75*
G03*
X75945800Y-20865400I240000J-25D01*
G01*
X71770515Y-12078761D02*
G75*
G03*
X72109905Y-12078741I169685J169661D01*
G01*
X76355800Y-21225375D02*
G75*
G02*
X76115800Y-21465400I-240000J-25D01*
G01*
X73004196Y-12881546D02*
G75*
G02*
X73343607Y-12881548I169704J-169754D01*
G01*
X73428460Y-12966399D02*
G75*
G02*
X73428455Y-13305806I-169660J-169701D01*
G01*
X68921533Y-7948076D02*
G75*
G02*
X68921538Y-8805519I-428733J-428724D01*
G01*
X70260579Y-10294894D02*
G75*
G03*
X70260539Y-10568866I136921J-137006D01*
G01*
X75945800Y-21465375D02*
G75*
G03*
X75705775Y-21705375I0J-240025D01*
G01*
X68987786Y-9296033D02*
G75*
G03*
X69261766Y-9296081I137014J136933D01*
G01*
X72579981Y-12117822D02*
G75*
G02*
X72579953Y-12457206I-169681J-169678D01*
G01*
X76115800Y-22065375D02*
G75*
G02*
X76355825Y-22305375I0J-240025D01*
G01*
X68846366Y-8880681D02*
G75*
G03*
X68846411Y-9154564I136934J-136919D01*
G01*
X72619043Y-12927289D02*
G75*
G03*
X72958405Y-12927241I169657J169689D01*
G01*
X76115800Y-20865375D02*
G75*
G02*
X76355825Y-21105375I0J-240025D01*
G01*
X76355800Y-22425375D02*
G75*
G02*
X76115800Y-22665400I-240000J-25D01*
G01*
X67573573Y-7881820D02*
G75*
G03*
X67847466Y-7881781I136927J136920D01*
G01*
X72534188Y-12503024D02*
G75*
G03*
X72534218Y-12842406I169712J-169676D01*
G01*
X67922672Y-7806654D02*
G75*
G02*
X68780120Y-7806646I428728J-428746D01*
G01*
%TO.N,/HDMI0_CK-*%
X72293200Y-23626800D02*
X71999000Y-23921000D01*
X62614546Y-7106300D02*
X64373754Y-8865508D01*
X65985956Y-10477709D02*
X66070810Y-10562564D01*
X66834484Y-11326237D02*
X72293200Y-16784954D01*
X58500000Y-6191754D02*
X59414546Y-7106300D01*
X71999000Y-23921000D02*
X71999000Y-24721000D01*
X65450006Y-10674249D02*
X65646545Y-10477709D01*
X64177214Y-9740869D02*
X64262066Y-9825721D01*
X58500000Y-4800000D02*
X58500000Y-6191754D01*
X66070810Y-10901975D02*
X65874240Y-11098544D01*
X64601478Y-9825721D02*
X64798017Y-9629181D01*
X59414546Y-7106300D02*
X62614546Y-7106300D01*
X65222282Y-10053447D02*
X65025742Y-10249986D01*
X65874240Y-11437955D02*
X65959092Y-11522807D01*
X65137428Y-9629181D02*
X65222282Y-9714036D01*
X64373754Y-9204919D02*
X64177214Y-9401458D01*
X72293200Y-16784954D02*
X72293200Y-23626800D01*
X65025742Y-10589397D02*
X65110594Y-10674249D01*
X66298504Y-11522807D02*
X66495073Y-11326237D01*
X66495073Y-11326237D02*
G75*
G02*
X66834484Y-11326236I169706J-169707D01*
G01*
X64798017Y-9629181D02*
G75*
G02*
X65137428Y-9629180I169706J-169707D01*
G01*
X65025742Y-10249986D02*
G75*
G03*
X65025733Y-10589406I169658J-169714D01*
G01*
X64262066Y-9825721D02*
G75*
G03*
X64601478Y-9825721I169706J169704D01*
G01*
X64177214Y-9401458D02*
G75*
G03*
X64177177Y-9740906I169686J-169742D01*
G01*
X65874240Y-11098544D02*
G75*
G03*
X65874289Y-11437905I169660J-169656D01*
G01*
X65222282Y-9714036D02*
G75*
G02*
X65222241Y-10053405I-169682J-169664D01*
G01*
X65959092Y-11522807D02*
G75*
G03*
X66298504Y-11522807I169706J169704D01*
G01*
X64373754Y-8865508D02*
G75*
G02*
X64373741Y-9204906I-169754J-169692D01*
G01*
X65110594Y-10674249D02*
G75*
G03*
X65450006Y-10674249I169706J169704D01*
G01*
X65646545Y-10477709D02*
G75*
G02*
X65985956Y-10477709I169705J-169707D01*
G01*
X66070810Y-10562564D02*
G75*
G02*
X66070841Y-10902005I-169710J-169736D01*
G01*
%TO.N,/HDMI0_D0-*%
X62500000Y-4800000D02*
X65900844Y-8200843D01*
X73794200Y-21503979D02*
X73794200Y-21623979D01*
X69935809Y-12235809D02*
X70680224Y-12980224D01*
X71495301Y-14201617D02*
X71528752Y-14168163D01*
X68729272Y-11029271D02*
X68521596Y-10821595D01*
X73384200Y-21263979D02*
X73554200Y-21263979D01*
X73794200Y-22703979D02*
X73794200Y-23626800D01*
X73144200Y-20903979D02*
X73144200Y-21023979D01*
X73554200Y-21863979D02*
X73384200Y-21863979D01*
X73384200Y-22463979D02*
X73554200Y-22463979D01*
X73794200Y-20303979D02*
X73794200Y-20423979D01*
X73384200Y-20063979D02*
X73554200Y-20063979D01*
X68936950Y-12235809D02*
X68729272Y-12028131D01*
X70646793Y-13353067D02*
X70680223Y-13319634D01*
X73794200Y-16094200D02*
X72292430Y-14592430D01*
X67315058Y-9615057D02*
X67107382Y-9407381D01*
X71528753Y-13828753D02*
X71443901Y-13743901D01*
X70731646Y-13777332D02*
X70646793Y-13692479D01*
X67107382Y-9407381D02*
X67107380Y-9407380D01*
X66108522Y-9407381D02*
X65900844Y-9199703D01*
X73500000Y-23921000D02*
X73500000Y-24721000D01*
X71104489Y-13743901D02*
X71071056Y-13777331D01*
X73554200Y-20663979D02*
X73384200Y-20663979D01*
X73554200Y-19463979D02*
X73384200Y-19463979D01*
X68521596Y-10821595D02*
X68521594Y-10821594D01*
X71580154Y-14625882D02*
X71495301Y-14541029D01*
X73794200Y-19223979D02*
X73794200Y-16094200D01*
X69935809Y-12235809D02*
X69935808Y-12235808D01*
X73144200Y-19703979D02*
X73144200Y-19823979D01*
X71953018Y-14592430D02*
X71919564Y-14625881D01*
X73794200Y-23626800D02*
X73500000Y-23921000D01*
X73144200Y-22103979D02*
X73144200Y-22223979D01*
X67522736Y-10821595D02*
X67315058Y-10613917D01*
X73554200Y-22463979D02*
G75*
G02*
X73794221Y-22703979I0J-240021D01*
G01*
X73554200Y-21263979D02*
G75*
G02*
X73794221Y-21503979I0J-240021D01*
G01*
X73384200Y-19463979D02*
G75*
G03*
X73144179Y-19703979I0J-240021D01*
G01*
X68313918Y-10821595D02*
G75*
G02*
X67522736Y-10821595I-395591J395592D01*
G01*
X73384200Y-21863979D02*
G75*
G03*
X73144179Y-22103979I0J-240021D01*
G01*
X73144200Y-22223979D02*
G75*
G03*
X73384200Y-22464000I240000J-21D01*
G01*
X71071056Y-13777331D02*
G75*
G02*
X70731695Y-13777283I-169656J169731D01*
G01*
X72292430Y-14592430D02*
G75*
G03*
X71953018Y-14592430I-169706J-169701D01*
G01*
X73554200Y-20063979D02*
G75*
G02*
X73794221Y-20303979I0J-240021D01*
G01*
X69935808Y-12235808D02*
G75*
G03*
X69728162Y-12235838I-103808J-103792D01*
G01*
X73794200Y-19223979D02*
G75*
G02*
X73554200Y-19464000I-240000J-21D01*
G01*
X73144200Y-19823979D02*
G75*
G03*
X73384200Y-20064000I240000J-21D01*
G01*
X70680223Y-13319634D02*
G75*
G03*
X70680253Y-12980196I-169723J169734D01*
G01*
X73794200Y-21623979D02*
G75*
G02*
X73554200Y-21864000I-240000J-21D01*
G01*
X73794200Y-20423979D02*
G75*
G02*
X73554200Y-20664000I-240000J-21D01*
G01*
X71495301Y-14541029D02*
G75*
G02*
X71495278Y-14201594I169699J169729D01*
G01*
X68729272Y-12028131D02*
G75*
G02*
X68729232Y-11236909I395628J395631D01*
G01*
X66899704Y-9407381D02*
G75*
G02*
X66108522Y-9407381I-395591J395592D01*
G01*
X70646793Y-13692479D02*
G75*
G02*
X70646820Y-13353094I169707J169679D01*
G01*
X68729272Y-11236949D02*
G75*
G03*
X68729282Y-11029261I-103872J103849D01*
G01*
X71528752Y-14168163D02*
G75*
G03*
X71528711Y-13828796I-169652J169663D01*
G01*
X67107380Y-9407380D02*
G75*
G03*
X66899662Y-9407338I-103880J-103820D01*
G01*
X67315058Y-9822735D02*
G75*
G03*
X67315054Y-9615061I-103858J103835D01*
G01*
X73144200Y-21023979D02*
G75*
G03*
X73384200Y-21264000I240000J-21D01*
G01*
X68521594Y-10821594D02*
G75*
G03*
X68313962Y-10821638I-103794J-103806D01*
G01*
X67315058Y-10613917D02*
G75*
G02*
X67315032Y-9822709I395542J395617D01*
G01*
X69728132Y-12235809D02*
G75*
G02*
X68936950Y-12235809I-395591J395592D01*
G01*
X65900844Y-9199703D02*
G75*
G02*
X65900832Y-8408509I395556J395603D01*
G01*
X71443901Y-13743901D02*
G75*
G03*
X71104489Y-13743901I-169706J-169701D01*
G01*
X65900844Y-8408521D02*
G75*
G03*
X65900826Y-8200861I-103844J103821D01*
G01*
X71919564Y-14625881D02*
G75*
G02*
X71580196Y-14625841I-169664J169681D01*
G01*
X73384200Y-20663979D02*
G75*
G03*
X73144179Y-20903979I0J-240021D01*
G01*
%TO.N,/HDMI0_D2-*%
X71421105Y-9912859D02*
X71562528Y-10054282D01*
X76433398Y-15666341D02*
X76634287Y-15465451D01*
X73829723Y-10889441D02*
X73542425Y-11176740D01*
X72844229Y-11044229D02*
X72981195Y-10907263D01*
X71562528Y-10054282D02*
X71562528Y-10054281D01*
X73127073Y-10761388D02*
X73414370Y-10474088D01*
X76973698Y-15465451D02*
X77400000Y-15891754D01*
X70500000Y-4800000D02*
X69393700Y-5906300D01*
X75584844Y-14817840D02*
X75785759Y-14616924D01*
X77423910Y-18392585D02*
X76794200Y-19022295D01*
X73542424Y-12034178D02*
X75361496Y-13853250D01*
X69393700Y-5906300D02*
X69393700Y-7885454D01*
X70148315Y-8640069D02*
X70148314Y-8640067D01*
X71708404Y-8768122D02*
X71421106Y-9055421D01*
X75160580Y-14732988D02*
X75245432Y-14817840D01*
X72844230Y-11044229D02*
X72844229Y-11044229D01*
X75361496Y-14192661D02*
X75160580Y-14393576D01*
X77400000Y-15891754D02*
X77400000Y-17886024D01*
X72981195Y-10907263D02*
X73127073Y-10761388D01*
X71005754Y-8640068D02*
X71293053Y-8352770D01*
X71566983Y-8352769D02*
X71708404Y-8494190D01*
X76500000Y-23921000D02*
X76500000Y-24721000D01*
X76210024Y-15041189D02*
X76009134Y-15242078D01*
X76794200Y-23626800D02*
X76500000Y-23921000D01*
X76009134Y-15581489D02*
X76093986Y-15666341D01*
X76125171Y-14616924D02*
X76210024Y-14701778D01*
X71522717Y-11225462D02*
X71664138Y-11366883D01*
X72561387Y-11327072D02*
X72844230Y-11044229D01*
X69393700Y-7885454D02*
X70148315Y-8640069D01*
X77400000Y-17886024D02*
X77423910Y-17909934D01*
X76794200Y-19022295D02*
X76794200Y-23626800D01*
X77423910Y-17909934D02*
X77423910Y-18392585D01*
X73688302Y-10474088D02*
X73829723Y-10615509D01*
X71562528Y-10328213D02*
X71522717Y-10368023D01*
X72521577Y-11366883D02*
X72561387Y-11327072D01*
X73542425Y-11176740D02*
G75*
G03*
X73542383Y-12034219I428675J-428760D01*
G01*
X73829723Y-10615509D02*
G75*
G02*
X73829748Y-10889466I-136923J-136991D01*
G01*
X71664138Y-11366883D02*
G75*
G03*
X72521577Y-11366883I428719J428721D01*
G01*
X71293053Y-8352770D02*
G75*
G02*
X71566964Y-8352787I136947J-136930D01*
G01*
X75160580Y-14393576D02*
G75*
G03*
X75160562Y-14733006I169720J-169724D01*
G01*
X71522717Y-10368023D02*
G75*
G03*
X71522759Y-11225419I428683J-428677D01*
G01*
X76634287Y-15465451D02*
G75*
G02*
X76973698Y-15465450I169706J-169707D01*
G01*
X71421106Y-9055421D02*
G75*
G03*
X71421145Y-9912818I428694J-428679D01*
G01*
X76210024Y-14701778D02*
G75*
G02*
X76210041Y-15041205I-169724J-169722D01*
G01*
X71562528Y-10054281D02*
G75*
G02*
X71562481Y-10328166I-136928J-136919D01*
G01*
X76009134Y-15242078D02*
G75*
G03*
X76009117Y-15581506I169666J-169722D01*
G01*
X75785759Y-14616924D02*
G75*
G02*
X76125171Y-14616924I169706J-169704D01*
G01*
X76093986Y-15666341D02*
G75*
G03*
X76433398Y-15666341I169706J169704D01*
G01*
X73414370Y-10474088D02*
G75*
G02*
X73688302Y-10474088I136966J-136970D01*
G01*
X70148314Y-8640067D02*
G75*
G03*
X71005720Y-8640034I428686J428767D01*
G01*
X71708404Y-8494190D02*
G75*
G02*
X71708448Y-8768166I-137004J-137010D01*
G01*
X75245432Y-14817840D02*
G75*
G03*
X75584844Y-14817840I169706J169704D01*
G01*
X75361496Y-13853250D02*
G75*
G02*
X75361541Y-14192705I-169696J-169750D01*
G01*
%TO.N,/HDMI0_D1-*%
X66130932Y-3781300D02*
X65518700Y-4393532D01*
X68500000Y-2800000D02*
X67518700Y-3781300D01*
X66293700Y-7185454D02*
X67281821Y-8173575D01*
X68554611Y-9446365D02*
X68696034Y-9587788D01*
X74999000Y-23921000D02*
X74999000Y-24721000D01*
X69867216Y-9547977D02*
X70008637Y-9689398D01*
X68488357Y-8098407D02*
X68629778Y-8239828D01*
X75800000Y-18416495D02*
X75293200Y-18923295D01*
X66293700Y-6300000D02*
X66293700Y-7185454D01*
X67518700Y-3781300D02*
X66130932Y-3781300D01*
X75800000Y-16691754D02*
X75800000Y-18416495D01*
X65518700Y-4393532D02*
X65518700Y-5525000D01*
X69968826Y-10860579D02*
X75800000Y-16691754D01*
X68139260Y-8173574D02*
X68214427Y-8098408D01*
X70008637Y-9963330D02*
X69968825Y-10003139D01*
X75293200Y-18923295D02*
X75293200Y-23626800D01*
X68696034Y-9587788D02*
X68696033Y-9587786D01*
X68629778Y-8513760D02*
X68554612Y-8588927D01*
X69553473Y-9587787D02*
X69593284Y-9547977D01*
X67281821Y-8173575D02*
X67281820Y-8173573D01*
X75293200Y-23626800D02*
X74999000Y-23921000D01*
X65518700Y-5525000D02*
X66293700Y-6300000D01*
X68696033Y-9587786D02*
G75*
G03*
X69553520Y-9587834I428767J428686D01*
G01*
X67281820Y-8173573D02*
G75*
G03*
X68139219Y-8173534I428680J428673D01*
G01*
X68214427Y-8098408D02*
G75*
G02*
X68488364Y-8098399I136973J-136992D01*
G01*
X69593284Y-9547977D02*
G75*
G02*
X69867216Y-9547977I136966J-136963D01*
G01*
X68629778Y-8239828D02*
G75*
G02*
X68629784Y-8513766I-136978J-136972D01*
G01*
X70008637Y-9689398D02*
G75*
G02*
X70008673Y-9963366I-136937J-137002D01*
G01*
X68554612Y-8588927D02*
G75*
G03*
X68554657Y-9446318I428688J-428673D01*
G01*
X69968825Y-10003139D02*
G75*
G03*
X69968784Y-10860621I428675J-428761D01*
G01*
%TO.N,/HDMI1_D1-*%
X48672003Y-9963757D02*
X48587152Y-9878906D01*
X50293200Y-11584954D02*
X49435681Y-10727435D01*
X48353095Y-10622076D02*
X48672003Y-10303169D01*
X49096269Y-10727435D02*
X48777360Y-11046341D01*
X47823475Y-9115229D02*
X47738623Y-9030377D01*
X47504512Y-9773604D02*
X47823474Y-9454639D01*
X50293200Y-23626800D02*
X50293200Y-11584954D01*
X47589365Y-10197869D02*
X47504512Y-10113016D01*
X49999000Y-23921000D02*
X50293200Y-23626800D01*
X44018700Y-5310454D02*
X44018700Y-3781300D01*
X46656017Y-8925041D02*
X46974945Y-8606110D01*
X45892344Y-8500771D02*
X45807491Y-8415918D01*
X46740870Y-9349306D02*
X46656017Y-9264453D01*
X44018700Y-5310454D02*
X46126416Y-7418170D01*
X48437948Y-11046341D02*
X48353095Y-10961488D01*
X44018700Y-3781300D02*
X45000000Y-2800000D01*
X48247740Y-9878906D02*
X47928775Y-10197868D01*
X49999000Y-24721000D02*
X49999000Y-23921000D01*
X46974946Y-8266700D02*
X46890094Y-8181848D01*
X47399211Y-9030377D02*
X47080280Y-9349305D01*
X45807491Y-8076506D02*
X46126416Y-7757582D01*
X46550682Y-8181848D02*
X46231756Y-8500771D01*
X47080280Y-9349305D02*
G75*
G02*
X46740896Y-9349281I-169680J169705D01*
G01*
X46231756Y-8500771D02*
G75*
G02*
X45892344Y-8500771I-169706J169701D01*
G01*
X46126416Y-7757582D02*
G75*
G03*
X46126392Y-7418194I-169716J169682D01*
G01*
X46656017Y-9264453D02*
G75*
G02*
X46655970Y-8924994I169683J169753D01*
G01*
X48777360Y-11046341D02*
G75*
G02*
X48437948Y-11046341I-169706J169701D01*
G01*
X45807491Y-8415918D02*
G75*
G02*
X45807479Y-8076494I169709J169718D01*
G01*
X47823474Y-9454639D02*
G75*
G03*
X47823509Y-9115195I-169674J169739D01*
G01*
X48672003Y-10303169D02*
G75*
G03*
X48671966Y-9963794I-169703J169669D01*
G01*
X47928775Y-10197868D02*
G75*
G02*
X47589396Y-10197839I-169675J169668D01*
G01*
X46974945Y-8606110D02*
G75*
G03*
X46974950Y-8266696I-169745J169710D01*
G01*
X49435681Y-10727435D02*
G75*
G03*
X49096269Y-10727435I-169706J-169701D01*
G01*
X48353095Y-10961488D02*
G75*
G02*
X48353113Y-10622094I169705J169688D01*
G01*
X46890094Y-8181848D02*
G75*
G03*
X46550682Y-8181848I-169706J-169701D01*
G01*
X47504512Y-10113016D02*
G75*
G02*
X47504502Y-9773594I169688J169716D01*
G01*
X47738623Y-9030377D02*
G75*
G03*
X47399211Y-9030377I-169706J-169701D01*
G01*
X48587152Y-9878906D02*
G75*
G03*
X48247740Y-9878906I-169706J-169701D01*
G01*
%TO.N,/HDMI1_D2+*%
X47632842Y-6067158D02*
X47795877Y-6230193D01*
X52440500Y-16008748D02*
X52706800Y-16008748D01*
X53353100Y-16655048D02*
X53353100Y-16875048D01*
X51677350Y-18208748D02*
X52706800Y-18208748D01*
X51560500Y-19838198D02*
X51560500Y-20291898D01*
X52206800Y-23626800D02*
X52501000Y-23921000D01*
X53353100Y-18855048D02*
X53353100Y-19075048D01*
X47795877Y-6504123D02*
X52206800Y-10915046D01*
X52206800Y-20938198D02*
X52206800Y-23626800D01*
X51677350Y-19721348D02*
X52706800Y-19721348D01*
X51560500Y-17638198D02*
X51560500Y-18091898D01*
X52206800Y-10915046D02*
X52206800Y-15775048D01*
X51677350Y-17521348D02*
X52706800Y-17521348D01*
X47795877Y-6230193D02*
X47795877Y-6504123D01*
X52501000Y-23921000D02*
X52501000Y-24721000D01*
X53353100Y-16875048D02*
G75*
G02*
X52706800Y-17521300I-646300J48D01*
G01*
X51677350Y-19721348D02*
G75*
G03*
X51560548Y-19838198I50J-116852D01*
G01*
X52706800Y-16008748D02*
G75*
G02*
X53353052Y-16655048I0J-646252D01*
G01*
X53353100Y-19075048D02*
G75*
G02*
X52706800Y-19721300I-646300J48D01*
G01*
X51560500Y-20291898D02*
G75*
G03*
X51677350Y-20408800I116900J-2D01*
G01*
X51560500Y-18091898D02*
G75*
G03*
X51677350Y-18208800I116900J-2D01*
G01*
X52206800Y-15775048D02*
G75*
G03*
X52440500Y-16008700I233700J48D01*
G01*
X51677350Y-17521348D02*
G75*
G03*
X51560548Y-17638198I50J-116852D01*
G01*
X51677350Y-20408748D02*
G75*
G02*
X52206852Y-20938198I50J-529452D01*
G01*
X52706800Y-18208748D02*
G75*
G02*
X53353052Y-18855048I0J-646252D01*
G01*
%TO.N,/HDMI1_CK+*%
X44999253Y-10707500D02*
X47705800Y-13414046D01*
X44150725Y-9858972D02*
X44235579Y-9943825D01*
X47705800Y-13414046D02*
X47705800Y-23626800D01*
X43726463Y-9095298D02*
X43797925Y-9023833D01*
X43373703Y-8599528D02*
X43302196Y-8671032D01*
X43302197Y-9010444D02*
X43387051Y-9095297D01*
X44137337Y-9023834D02*
X44222189Y-9108686D01*
X37000000Y-7100000D02*
X37600000Y-7700000D01*
X47705800Y-23626800D02*
X48000000Y-23921000D01*
X44985859Y-9872368D02*
X45070711Y-9957220D01*
X48000000Y-23921000D02*
X48000000Y-24721000D01*
X41991754Y-7700000D02*
X42538523Y-8246769D01*
X43288851Y-8175264D02*
X43373703Y-8260116D01*
X44574991Y-9943826D02*
X44646447Y-9872367D01*
X44222189Y-9448098D02*
X44150724Y-9519560D01*
X45070711Y-10296632D02*
X44999252Y-10368088D01*
X42877935Y-8246770D02*
X42949439Y-8175263D01*
X37600000Y-7700000D02*
X41991754Y-7700000D01*
X44999252Y-10368088D02*
G75*
G03*
X44999246Y-10707506I169748J-169712D01*
G01*
X44646447Y-9872367D02*
G75*
G02*
X44985906Y-9872320I169753J-169733D01*
G01*
X44235579Y-9943825D02*
G75*
G03*
X44575005Y-9943841I169721J169725D01*
G01*
X43373703Y-8260116D02*
G75*
G02*
X43373681Y-8599506I-169703J-169684D01*
G01*
X44222189Y-9108686D02*
G75*
G02*
X44222197Y-9448106I-169689J-169714D01*
G01*
X43302196Y-8671032D02*
G75*
G03*
X43302234Y-9010406I169704J-169668D01*
G01*
X45070711Y-9957220D02*
G75*
G02*
X45070685Y-10296606I-169711J-169680D01*
G01*
X42538523Y-8246769D02*
G75*
G03*
X42877905Y-8246741I169677J169669D01*
G01*
X43797925Y-9023833D02*
G75*
G02*
X44137306Y-9023864I169675J-169667D01*
G01*
X44150724Y-9519560D02*
G75*
G03*
X44150690Y-9859007I169676J-169740D01*
G01*
X42949439Y-8175263D02*
G75*
G02*
X43288807Y-8175308I169661J-169737D01*
G01*
X43387051Y-9095297D02*
G75*
G03*
X43726505Y-9095341I169749J169697D01*
G01*
%TO.N,/HDMI1_D0+*%
X49598528Y-16484448D02*
X49598528Y-16692720D01*
X49206800Y-23626800D02*
X49501000Y-23921000D01*
X38293700Y-6493700D02*
X42977205Y-6493700D01*
X49598630Y-17684550D02*
X49598630Y-17892720D01*
X49501000Y-23921000D02*
X49501000Y-24721000D01*
X42977205Y-6493700D02*
X49206800Y-12723295D01*
X37000000Y-2800000D02*
X37981300Y-3781300D01*
X37981300Y-6181300D02*
X38293700Y-6493700D01*
X49206800Y-18284550D02*
X49206800Y-23626800D01*
X49206800Y-12723295D02*
X49206800Y-16092720D01*
X49206800Y-17084448D02*
X49206800Y-17292720D01*
X37981300Y-3781300D02*
X37981300Y-6181300D01*
X49402664Y-16888584D02*
G75*
G03*
X49206884Y-17084448I36J-195816D01*
G01*
X49598630Y-17892720D02*
G75*
G02*
X49402715Y-18088630I-195930J20D01*
G01*
X49402664Y-16288584D02*
G75*
G02*
X49598516Y-16484448I36J-195816D01*
G01*
X49598528Y-16692720D02*
G75*
G02*
X49402664Y-16888528I-195828J20D01*
G01*
X49402715Y-17488635D02*
G75*
G02*
X49598565Y-17684550I-15J-195865D01*
G01*
X49206800Y-17292720D02*
G75*
G03*
X49402715Y-17488600I195900J20D01*
G01*
X49206800Y-16092720D02*
G75*
G03*
X49402664Y-16288600I195900J20D01*
G01*
X49402715Y-18088635D02*
G75*
G03*
X49206835Y-18284550I-15J-195865D01*
G01*
%TO.N,/HDMI1_D0-*%
X48794200Y-23626800D02*
X48794200Y-12894200D01*
X42806300Y-6906300D02*
X37718532Y-6906300D01*
X48794200Y-12894200D02*
X42806300Y-6906300D01*
X48500000Y-24721000D02*
X48500000Y-23921000D01*
X48500000Y-23921000D02*
X48794200Y-23626800D01*
X35981300Y-3781300D02*
X35000000Y-2800000D01*
X37718532Y-6906300D02*
X35981300Y-5169068D01*
X35981300Y-5169068D02*
X35981300Y-3781300D01*
%TO.N,/HDMI2_D1-*%
X25706301Y-13335452D02*
X25706301Y-13806301D01*
X25293199Y-21345202D02*
X25293199Y-23626797D01*
X28431300Y-9368700D02*
X28431300Y-10610453D01*
X25293199Y-23626799D02*
X25293200Y-23626800D01*
X25706301Y-13806301D02*
X25900000Y-14000000D01*
X28431300Y-10610453D02*
X25706301Y-13335452D01*
X24667997Y-19265202D02*
X24667997Y-19680000D01*
X25293200Y-23626798D02*
X25293199Y-23626799D01*
X25293199Y-20198902D02*
X25812101Y-20198902D01*
X25918401Y-18225202D02*
X25918401Y-18640000D01*
X25099501Y-16000000D02*
X25293199Y-16193698D01*
X25293200Y-23626800D02*
X24999000Y-23921000D01*
X25918401Y-20305202D02*
X25918401Y-20720000D01*
X24999000Y-23921000D02*
X24999000Y-24721000D01*
X33000000Y-4800000D02*
X28431300Y-9368700D01*
X25186899Y-20198902D02*
X25293199Y-20198902D01*
X25705801Y-18746300D02*
X25186899Y-18746300D01*
X25293199Y-16193698D02*
X25293199Y-17600000D01*
X25812101Y-18746300D02*
X25705801Y-18746300D01*
X25293199Y-23626797D02*
X25293200Y-23626798D01*
X25812101Y-20826300D02*
G75*
G03*
X25293200Y-21345202I-1J-518900D01*
G01*
X25812101Y-20198902D02*
G75*
G02*
X25918398Y-20305202I-1J-106298D01*
G01*
X24667997Y-19680000D02*
G75*
G03*
X25186899Y-20198903I518903J0D01*
G01*
X25918401Y-20720000D02*
G75*
G02*
X25812101Y-20826301I-106301J0D01*
G01*
X25918401Y-18640000D02*
G75*
G02*
X25812101Y-18746301I-106301J0D01*
G01*
X25812101Y-18118902D02*
G75*
G02*
X25918398Y-18225202I-1J-106298D01*
G01*
X25293199Y-17600000D02*
G75*
G03*
X25812101Y-18118901I518901J0D01*
G01*
X25186899Y-18746300D02*
G75*
G03*
X24668000Y-19265202I1J-518900D01*
G01*
%TO.N,/HDMI1_CK-*%
X46999000Y-24721000D02*
X46999000Y-23921000D01*
X41820846Y-8112600D02*
X36924832Y-8112600D01*
X36924832Y-8112600D02*
X33981300Y-5169068D01*
X47293200Y-13584954D02*
X41820846Y-8112600D01*
X33981300Y-3781300D02*
X33000000Y-2800000D01*
X47293200Y-23626800D02*
X47293200Y-13584954D01*
X46999000Y-23921000D02*
X47293200Y-23626800D01*
X33981300Y-5169068D02*
X33981300Y-3781300D01*
%TO.N,/HDMI1_D1+*%
X46045877Y-6480193D02*
X45582842Y-6017158D01*
X51000000Y-23921000D02*
X50705800Y-23626800D01*
X50705800Y-23626800D02*
X50705800Y-11414046D01*
X50705800Y-11414046D02*
X46045877Y-6754123D01*
X51000000Y-24721000D02*
X51000000Y-23921000D01*
X46045877Y-6754123D02*
X46045877Y-6480193D01*
D35*
%TO.N,Net-(C12-Pad1)*%
X61500000Y-31700000D02*
X65530000Y-31700000D01*
D32*
%TO.N,/HDMI0_CEC*%
X70901000Y-23344959D02*
X70901000Y-17886785D01*
X71501000Y-23944959D02*
X70901000Y-23344959D01*
X71501000Y-24721000D02*
X71501000Y-23944959D01*
X60500000Y-8100000D02*
X60500000Y-8000000D01*
X65661520Y-13261520D02*
X60500000Y-8100000D01*
X70901000Y-17886785D02*
X66275735Y-13261520D01*
X66275735Y-13261520D02*
X65661520Y-13261520D01*
%TO.N,/SDA1*%
X45000000Y-20200000D02*
X41800000Y-17000000D01*
X45000000Y-24721000D02*
X45000000Y-20200000D01*
%TO.N,/SCL1*%
X45501000Y-24721000D02*
X45501000Y-15701000D01*
X45501000Y-15701000D02*
X41800000Y-12000000D01*
D37*
%TO.N,/HDMI1_D2-*%
X49957093Y-9248846D02*
X50041947Y-9333701D01*
X47000000Y-6291754D02*
X47496363Y-6788117D01*
X51677350Y-19308748D02*
X52706800Y-19308748D01*
X49577622Y-9288907D02*
X49617682Y-9248846D01*
X50041947Y-9673112D02*
X50001914Y-9713144D01*
X47496363Y-7127528D02*
X47456346Y-7167544D01*
X49108565Y-8400318D02*
X49193419Y-8485173D01*
X52940500Y-18855048D02*
X52940500Y-19075048D01*
X50890475Y-10521640D02*
X50850413Y-10561701D01*
X51147900Y-19838198D02*
X51147900Y-20291898D01*
X52940500Y-16655048D02*
X52940500Y-16875048D01*
X51794200Y-20938198D02*
X51794200Y-23626800D01*
X51794200Y-11085954D02*
X51794200Y-15775048D01*
X47000000Y-4800000D02*
X47000000Y-6291754D01*
X51500000Y-23921000D02*
X51500000Y-24721000D01*
X51677350Y-17108748D02*
X52706800Y-17108748D01*
X48304829Y-8355528D02*
X48389681Y-8440380D01*
X50001914Y-10052556D02*
X50086766Y-10137408D01*
X49193419Y-8824584D02*
X49153358Y-8864644D01*
X51739003Y-11030757D02*
X51794200Y-11085954D01*
X47880610Y-7591807D02*
X47920626Y-7551790D01*
X51677350Y-18621348D02*
X52706800Y-18621348D01*
X50805622Y-10097375D02*
X50890475Y-10182229D01*
X51794200Y-23626800D02*
X51500000Y-23921000D01*
X48260037Y-7551790D02*
X48344891Y-7636645D01*
X48344891Y-7976056D02*
X48304829Y-8016117D01*
X51147900Y-17638198D02*
X51147900Y-18091898D01*
X50426178Y-10137408D02*
X50466210Y-10097375D01*
X51654149Y-10945902D02*
X51739003Y-11030757D01*
X47456346Y-7506955D02*
X47541198Y-7591807D01*
X52440500Y-16421348D02*
X52706800Y-16421348D01*
X50850413Y-10901112D02*
X50935265Y-10985964D01*
X48729093Y-8440380D02*
X48769154Y-8400318D01*
X51274677Y-10985964D02*
X51314738Y-10945902D01*
X49153358Y-9204055D02*
X49238210Y-9288907D01*
X51147900Y-18091898D02*
G75*
G03*
X51677350Y-18621300I529400J-2D01*
G01*
X50041947Y-9333701D02*
G75*
G02*
X50041941Y-9673106I-169747J-169699D01*
G01*
X50086766Y-10137408D02*
G75*
G03*
X50426178Y-10137408I169706J169704D01*
G01*
X52940500Y-19075048D02*
G75*
G02*
X52706800Y-19308700I-233700J48D01*
G01*
X51147900Y-20291898D02*
G75*
G03*
X51677350Y-20821300I529400J-2D01*
G01*
X50890475Y-10182229D02*
G75*
G02*
X50890441Y-10521605I-169675J-169671D01*
G01*
X49193419Y-8485173D02*
G75*
G02*
X49193441Y-8824605I-169719J-169727D01*
G01*
X52706800Y-16421348D02*
G75*
G02*
X52940452Y-16655048I0J-233652D01*
G01*
X47920626Y-7551790D02*
G75*
G02*
X48260037Y-7551790I169705J-169707D01*
G01*
X48769154Y-8400318D02*
G75*
G02*
X49108565Y-8400318I169705J-169707D01*
G01*
X52940500Y-16875048D02*
G75*
G02*
X52706800Y-17108700I-233700J48D01*
G01*
X47496363Y-6788117D02*
G75*
G02*
X47496341Y-7127505I-169663J-169683D01*
G01*
X50001914Y-9713144D02*
G75*
G03*
X50001864Y-10052606I169686J-169756D01*
G01*
X50466210Y-10097375D02*
G75*
G02*
X50805622Y-10097375I169706J-169704D01*
G01*
X51677350Y-19308748D02*
G75*
G03*
X51147848Y-19838198I-50J-529452D01*
G01*
X50935265Y-10985964D02*
G75*
G03*
X51274677Y-10985964I169706J169704D01*
G01*
X52706800Y-18621348D02*
G75*
G02*
X52940452Y-18855048I0J-233652D01*
G01*
X51677350Y-17108748D02*
G75*
G03*
X51147848Y-17638198I-50J-529452D01*
G01*
X49153358Y-8864644D02*
G75*
G03*
X49153407Y-9204006I169742J-169656D01*
G01*
X48389681Y-8440380D02*
G75*
G03*
X48729093Y-8440380I169706J169704D01*
G01*
X50850413Y-10561701D02*
G75*
G03*
X50850419Y-10901105I169687J-169699D01*
G01*
X48304829Y-8016117D02*
G75*
G03*
X48304851Y-8355505I169671J-169683D01*
G01*
X47456346Y-7167544D02*
G75*
G03*
X47456395Y-7506906I169754J-169656D01*
G01*
X49238210Y-9288907D02*
G75*
G03*
X49577622Y-9288907I169706J169704D01*
G01*
X51794200Y-15775048D02*
G75*
G03*
X52440500Y-16421300I646300J48D01*
G01*
X51314738Y-10945902D02*
G75*
G02*
X51654149Y-10945901I169706J-169707D01*
G01*
X48344891Y-7636645D02*
G75*
G02*
X48344941Y-7976105I-169691J-169755D01*
G01*
X49617682Y-9248846D02*
G75*
G02*
X49957093Y-9248845I169706J-169707D01*
G01*
X51677350Y-20821348D02*
G75*
G02*
X51794152Y-20938198I-50J-116852D01*
G01*
X47541198Y-7591807D02*
G75*
G03*
X47880610Y-7591807I169706J169704D01*
G01*
%TO.N,/HDMI2_CK+*%
X20839500Y-19410935D02*
X20839500Y-19680935D01*
X22431300Y-5206468D02*
X21856468Y-5781300D01*
X23372100Y-20554085D02*
X23372100Y-21237785D01*
X22705800Y-23626800D02*
X23000000Y-23921000D01*
X21959500Y-19077235D02*
X21173200Y-19077235D01*
X22431300Y-4393532D02*
X22431300Y-5206468D01*
X22705800Y-21904085D02*
X22705800Y-23626800D01*
X19656301Y-13114547D02*
X22705800Y-16164046D01*
X20468700Y-5781300D02*
X19656301Y-6593699D01*
X22143884Y-4106116D02*
X22431300Y-4393532D01*
X21173200Y-20014635D02*
X22832650Y-20014635D01*
X23450000Y-2800000D02*
X22143884Y-4106116D01*
X19656301Y-6593699D02*
X19656301Y-13114547D01*
X21856468Y-5781300D02*
X20468700Y-5781300D01*
X23000000Y-23921000D02*
X23000000Y-24721000D01*
X22705800Y-16164046D02*
X22705800Y-18330935D01*
X20839500Y-19680935D02*
G75*
G03*
X21173200Y-20014600I333700J35D01*
G01*
X23372100Y-21237785D02*
G75*
G02*
X22832650Y-21777200I-539400J-15D01*
G01*
X21173200Y-19077235D02*
G75*
G03*
X20839535Y-19410935I0J-333665D01*
G01*
X22832650Y-20014635D02*
G75*
G02*
X23372165Y-20554085I50J-539465D01*
G01*
X22832650Y-21777235D02*
G75*
G03*
X22705835Y-21904085I50J-126865D01*
G01*
X22705800Y-18330935D02*
G75*
G02*
X21959500Y-19077200I-746300J35D01*
G01*
%TO.N,/HDMI2_D2+*%
X28066352Y-19707589D02*
X28066352Y-19827589D01*
X27206800Y-14690030D02*
X27206800Y-19227589D01*
X27826352Y-20067589D02*
X27446800Y-20067589D01*
X27206801Y-23626799D02*
X27206800Y-23626800D01*
X27501000Y-23921000D02*
X27501000Y-24721000D01*
X26800000Y-14283230D02*
X27206800Y-14690030D01*
X27446800Y-19467589D02*
X27826352Y-19467589D01*
X27206800Y-23626798D02*
X27206801Y-23626799D01*
X27206800Y-20307589D02*
X27206800Y-23626798D01*
X27206800Y-23626800D02*
X27501000Y-23921000D01*
X27206800Y-19227589D02*
G75*
G03*
X27446800Y-19467600I240000J-11D01*
G01*
X27446800Y-20067589D02*
G75*
G03*
X27206789Y-20307589I0J-240011D01*
G01*
X27826352Y-19467589D02*
G75*
G02*
X28066411Y-19707589I48J-240011D01*
G01*
X28066352Y-19827589D02*
G75*
G02*
X27826352Y-20067552I-239952J-11D01*
G01*
%TO.N,/HDMI2_D2-*%
X26500000Y-23921000D02*
X26794200Y-23626800D01*
X26794200Y-23626798D02*
X26794200Y-16200000D01*
X26500000Y-24721000D02*
X26500000Y-23921000D01*
X26794199Y-23626799D02*
X26794200Y-23626798D01*
X26794200Y-23626800D02*
X26794199Y-23626799D01*
X26600501Y-16006301D02*
X26794200Y-16200000D01*
X26600501Y-16000000D02*
X26600501Y-16006301D01*
D32*
%TO.N,/SDA2*%
X15000000Y-20200000D02*
X15000000Y-19500000D01*
X20000000Y-24721000D02*
X20000000Y-23312000D01*
X16068000Y-21268000D02*
X15000000Y-20200000D01*
X20000000Y-23312000D02*
X17956000Y-21268000D01*
X17956000Y-21268000D02*
X16068000Y-21268000D01*
%TO.N,/SCL2*%
X20501000Y-23247314D02*
X20501000Y-24721000D01*
X18121686Y-20868000D02*
X20501000Y-23247314D01*
X14400000Y-14500000D02*
X14400000Y-18051471D01*
X17216529Y-20868000D02*
X18121686Y-20868000D01*
X14400000Y-18051471D02*
X17216529Y-20868000D01*
D37*
%TO.N,/HDMI2_D0+*%
X24206800Y-15649362D02*
X24206800Y-23626800D01*
X22700000Y-14000000D02*
X22700000Y-14142562D01*
X24206800Y-23626800D02*
X24501000Y-23921000D01*
X22700000Y-14142562D02*
X24206800Y-15649362D01*
X24501000Y-23921000D02*
X24501000Y-24721000D01*
%TO.N,/HDMI2_D0-*%
X23500000Y-23921000D02*
X23500000Y-24721000D01*
X23384200Y-18119200D02*
X23554200Y-18119200D01*
X23794200Y-23626800D02*
X23500000Y-23921000D01*
X23794200Y-18359200D02*
X23794200Y-23626800D01*
X23500000Y-15800000D02*
X23794200Y-16094200D01*
X23554200Y-17519200D02*
X23384200Y-17519200D01*
X23144200Y-17759200D02*
X23144200Y-17879200D01*
X23794200Y-16094200D02*
X23794200Y-17279200D01*
X23794200Y-17279200D02*
G75*
G02*
X23554200Y-17519200I-240000J0D01*
G01*
X23554200Y-18119200D02*
G75*
G02*
X23794200Y-18359200I0J-240000D01*
G01*
X23144200Y-17879200D02*
G75*
G03*
X23384200Y-18119200I240000J0D01*
G01*
X23384200Y-17519200D02*
G75*
G03*
X23144200Y-17759200I0J-240000D01*
G01*
%TO.N,/HDMI2_CK-*%
X18391169Y-8904154D02*
X18391169Y-9024154D01*
X18631169Y-9264154D02*
X19003699Y-9264154D01*
X18391169Y-7704154D02*
X18391169Y-7824154D01*
X20426900Y-19410935D02*
X20426900Y-19680935D01*
X22293200Y-21904085D02*
X22293200Y-23626800D01*
X17450000Y-4800000D02*
X19243699Y-6593699D01*
X18631169Y-8064154D02*
X19003699Y-8064154D01*
X18631169Y-10464154D02*
X19003699Y-10464154D01*
X22959500Y-20554085D02*
X22959500Y-21237785D01*
X19243699Y-6593699D02*
X19243699Y-7224154D01*
X21173200Y-20427235D02*
X22832650Y-20427235D01*
X19243699Y-10704154D02*
X19243699Y-13285453D01*
X19003699Y-7464154D02*
X18631169Y-7464154D01*
X19003699Y-8664154D02*
X18631169Y-8664154D01*
X22293200Y-23626800D02*
X21999000Y-23921000D01*
X19243699Y-9504154D02*
X19243699Y-9624154D01*
X21959500Y-18664635D02*
X21173200Y-18664635D01*
X18391169Y-10104154D02*
X18391169Y-10224154D01*
X19243699Y-8304154D02*
X19243699Y-8424154D01*
X19003699Y-9864154D02*
X18631169Y-9864154D01*
X21999000Y-23921000D02*
X21999000Y-24721000D01*
X19243699Y-13285453D02*
X22293200Y-16334954D01*
X22293200Y-16334954D02*
X22293200Y-18330935D01*
X18391169Y-9024154D02*
G75*
G03*
X18631169Y-9264231I240031J-46D01*
G01*
X22832650Y-20427235D02*
G75*
G02*
X22959465Y-20554085I-50J-126865D01*
G01*
X19243699Y-8424154D02*
G75*
G02*
X19003699Y-8664199I-239999J-46D01*
G01*
X20426900Y-19680935D02*
G75*
G03*
X21173200Y-20427200I746300J35D01*
G01*
X19003699Y-10464154D02*
G75*
G02*
X19243746Y-10704154I1J-240046D01*
G01*
X19243699Y-7224154D02*
G75*
G02*
X19003699Y-7464199I-239999J-46D01*
G01*
X18631169Y-9864154D02*
G75*
G03*
X18391154Y-10104154I31J-240046D01*
G01*
X22293200Y-18330935D02*
G75*
G02*
X21959500Y-18664600I-333700J35D01*
G01*
X19003699Y-9264154D02*
G75*
G02*
X19243746Y-9504154I1J-240046D01*
G01*
X21173200Y-18664635D02*
G75*
G03*
X20426935Y-19410935I0J-746265D01*
G01*
X22832650Y-21364635D02*
G75*
G03*
X22293135Y-21904085I-50J-539465D01*
G01*
X19003699Y-8064154D02*
G75*
G02*
X19243746Y-8304154I1J-240046D01*
G01*
X18391169Y-10224154D02*
G75*
G03*
X18631169Y-10464231I240031J-46D01*
G01*
X18631169Y-8664154D02*
G75*
G03*
X18391154Y-8904154I31J-240046D01*
G01*
X18631169Y-7464154D02*
G75*
G03*
X18391154Y-7704154I31J-240046D01*
G01*
X19243699Y-9624154D02*
G75*
G02*
X19003699Y-9864199I-239999J-46D01*
G01*
X18391169Y-7824154D02*
G75*
G03*
X18631169Y-8064231I240031J-46D01*
G01*
X22959500Y-21237785D02*
G75*
G02*
X22832650Y-21364700I-126900J-15D01*
G01*
%TO.N,/HDMI2_D1+*%
X25547692Y-12571144D02*
X25095363Y-12118815D01*
X25293699Y-14287898D02*
X25705801Y-14700000D01*
X25293699Y-13164548D02*
X25293699Y-14287898D01*
X25705800Y-23626800D02*
X26000000Y-23921000D01*
X25519628Y-11694550D02*
X25971958Y-12146880D01*
X25943941Y-10930924D02*
X26028796Y-10846070D01*
X25080599Y-19265202D02*
X25080599Y-19680000D01*
X26331003Y-18225202D02*
X26331003Y-18640000D01*
X27159899Y-11298351D02*
X27556902Y-10901345D01*
X28018700Y-10439547D02*
X28018700Y-9368700D01*
X25186899Y-19786300D02*
X25293199Y-19786300D01*
X25705801Y-14700000D02*
X25705801Y-17600000D01*
X25705801Y-23626799D02*
X25705800Y-23626800D01*
X25705800Y-23626798D02*
X25705801Y-23626799D01*
X25293199Y-19786300D02*
X25812101Y-19786300D01*
X25705801Y-23626797D02*
X25705800Y-23626798D01*
X26396221Y-12062027D02*
X26396221Y-12062026D01*
X27556902Y-10901345D02*
X28018700Y-10439547D01*
X26311370Y-12146880D02*
X26396221Y-12062027D01*
X25547691Y-12910556D02*
X25293699Y-13164548D01*
X25705801Y-19158902D02*
X25186899Y-19158902D01*
X26331003Y-20305202D02*
X26331003Y-20720000D01*
X25095363Y-11779403D02*
X25180216Y-11694551D01*
X28018700Y-9368700D02*
X23450000Y-4800000D01*
X26000000Y-23921000D02*
X26000000Y-24721000D01*
X26396222Y-11722614D02*
X25943942Y-11270334D01*
X25812101Y-19158902D02*
X25705801Y-19158902D01*
X26368206Y-10846071D02*
X26820487Y-11298352D01*
X25705801Y-21345202D02*
X25705801Y-23626797D01*
X25080599Y-19680000D02*
G75*
G03*
X25186899Y-19786301I106301J0D01*
G01*
X26396221Y-12062026D02*
G75*
G03*
X26396242Y-11722595I-169721J169726D01*
G01*
X25943942Y-11270334D02*
G75*
G02*
X25943912Y-10930895I169658J169734D01*
G01*
X25812101Y-19786300D02*
G75*
G02*
X26331000Y-20305202I-1J-518900D01*
G01*
X26331003Y-18640000D02*
G75*
G02*
X25812101Y-19158903I-518903J0D01*
G01*
X26820487Y-11298352D02*
G75*
G03*
X27159906Y-11298359I169713J169752D01*
G01*
X26331003Y-20720000D02*
G75*
G02*
X25812101Y-21238903I-518903J0D01*
G01*
X25186899Y-19158902D02*
G75*
G03*
X25080602Y-19265202I1J-106298D01*
G01*
X25812101Y-17706300D02*
G75*
G02*
X26331000Y-18225202I-1J-518900D01*
G01*
X25705801Y-17600000D02*
G75*
G03*
X25812101Y-17706299I106299J0D01*
G01*
X25971958Y-12146880D02*
G75*
G03*
X26311370Y-12146880I169706J169701D01*
G01*
X26028796Y-10846070D02*
G75*
G02*
X26368206Y-10846071I169704J-169730D01*
G01*
X25812101Y-21238902D02*
G75*
G03*
X25705802Y-21345202I-1J-106298D01*
G01*
X25547691Y-12910556D02*
G75*
G03*
X25547742Y-12571095I-169691J169756D01*
G01*
X25180216Y-11694551D02*
G75*
G02*
X25519606Y-11694572I169684J-169749D01*
G01*
X25095363Y-12118815D02*
G75*
G02*
X25095354Y-11779394I169737J169715D01*
G01*
D32*
%TO.N,/HDMI1_CEC*%
X46501000Y-24721000D02*
X46501000Y-23001000D01*
X41448529Y-10800000D02*
X41400000Y-10800000D01*
X46500000Y-25498041D02*
X46500000Y-15851471D01*
X46501000Y-23001000D02*
X46500000Y-23000000D01*
X46500000Y-15851471D02*
X41448529Y-10800000D01*
X46500000Y-23000000D02*
X46500000Y-25498041D01*
%TO.N,/HDMI2_CEC*%
X17668000Y-20468000D02*
X15000000Y-17800000D01*
X21501000Y-24721000D02*
X21501000Y-23681628D01*
X14475000Y-3775000D02*
X15450000Y-2800000D01*
X15000000Y-17800000D02*
X15000000Y-8247000D01*
X18287372Y-20468000D02*
X17668000Y-20468000D01*
X15000000Y-8247000D02*
X14253000Y-7500000D01*
X14475000Y-7278000D02*
X14475000Y-3775000D01*
X21501000Y-23681628D02*
X18287372Y-20468000D01*
%TO.N,/PL_KEY3*%
X9500000Y-8651471D02*
X9500000Y-6750000D01*
X8753000Y-11500000D02*
X10100000Y-10153000D01*
X14250000Y-31750000D02*
X14250000Y-21550000D01*
X10100000Y-10153000D02*
X10100000Y-9251471D01*
X10100000Y-9251471D02*
X9500000Y-8651471D01*
X10000000Y-12747000D02*
X8753000Y-11500000D01*
X9500000Y-6750000D02*
X11450000Y-4800000D01*
X14250000Y-21550000D02*
X10000000Y-17300000D01*
X10000000Y-17300000D02*
X10000000Y-12747000D01*
X13000000Y-33000000D02*
X14250000Y-31750000D01*
%TO.N,/PL_KEY2*%
X11450000Y-2800000D02*
X10475000Y-1825000D01*
X6500000Y-12753000D02*
X7247000Y-13500000D01*
X10475000Y-1825000D02*
X8675000Y-1825000D01*
X7247000Y-22247000D02*
X7247000Y-13500000D01*
X8675000Y-1825000D02*
X6500000Y-4000000D01*
X6500000Y-4000000D02*
X6500000Y-12753000D01*
X13000000Y-28000000D02*
X7247000Y-22247000D01*
D35*
%TO.N,/TXD*%
X97840000Y-7960000D02*
X97840000Y-4840000D01*
X97200000Y-8600000D02*
X97840000Y-7960000D01*
X96300000Y-3300000D02*
X92760000Y-3300000D01*
X97840000Y-4840000D02*
X96300000Y-3300000D01*
X92760000Y-3300000D02*
X91460000Y-2000000D01*
D32*
%TO.N,/HPD0*%
X68253000Y-20853000D02*
X67400000Y-20000000D01*
X68253000Y-21800000D02*
X68253000Y-20853000D01*
X68499000Y-24721000D02*
X68499000Y-22046000D01*
X67400000Y-20000000D02*
X66800000Y-20000000D01*
%TO.N,/HPD1*%
X43499000Y-24721000D02*
X43499000Y-21746000D01*
D35*
%TO.N,/HPD2*%
X17500000Y-22247000D02*
X17253000Y-22000000D01*
D32*
X18499000Y-24721000D02*
X18499000Y-23999000D01*
X18499000Y-23999000D02*
X17500000Y-23000000D01*
D35*
X17500000Y-23000000D02*
X17500000Y-22247000D01*
%TD*%
%TA.AperFunction,Conductor*%
%TO.N,GND*%
G36*
X19400000Y-25643598D02*
G01*
X19600000Y-25643598D01*
X19622598Y-25420386D01*
X19500000Y-24720000D01*
X19377402Y-25420386D01*
X19400000Y-25643598D01*
G37*
%TD.AperFunction*%
%TD*%
%TA.AperFunction,Conductor*%
%TO.N,/SDA1*%
G36*
X42153553Y-17494974D02*
G01*
X42294974Y-17353553D01*
X42077164Y-16885195D01*
X41799293Y-16999293D01*
X41685195Y-17277164D01*
X42153553Y-17494974D01*
G37*
%TD.AperFunction*%
%TD*%
%TA.AperFunction,Conductor*%
%TO.N,/HPD2*%
G36*
X18420724Y-23779302D02*
G01*
X18279302Y-23920724D01*
X18374000Y-24728245D01*
X18499707Y-24721707D01*
X18489446Y-23923402D01*
X18420724Y-23779302D01*
G37*
%TD.AperFunction*%
%TD*%
%TA.AperFunction,Conductor*%
%TO.N,GND*%
G36*
X88122268Y-17535000D02*
G01*
X88122268Y-17935000D01*
X88400370Y-18212132D01*
X88613502Y-18000000D01*
X88727307Y-17722836D01*
X88122268Y-17535000D01*
G37*
%TD.AperFunction*%
%TD*%
%TA.AperFunction,Conductor*%
%TO.N,GND*%
G36*
X72600000Y-25900000D02*
G01*
X72400000Y-25900000D01*
X72222836Y-26385195D01*
X72500000Y-26501000D01*
X72777164Y-26385195D01*
X72600000Y-25900000D01*
G37*
%TD.AperFunction*%
%TD*%
%TA.AperFunction,Conductor*%
%TO.N,/PL_KEY0*%
G36*
X10333883Y-3825304D02*
G01*
X10475304Y-3683883D01*
X10073619Y-2541689D01*
X9449293Y-2799293D01*
X9191689Y-3423619D01*
X10333883Y-3825304D01*
G37*
%TD.AperFunction*%
%TD*%
%TA.AperFunction,Conductor*%
%TO.N,GND*%
G36*
X22600000Y-25900000D02*
G01*
X22400000Y-25900000D01*
X22222836Y-26385195D01*
X22500000Y-26501000D01*
X22777164Y-26385195D01*
X22600000Y-25900000D01*
G37*
%TD.AperFunction*%
%TD*%
%TA.AperFunction,Conductor*%
%TO.N,GND*%
G36*
X47600000Y-25900000D02*
G01*
X47400000Y-25900000D01*
X47222836Y-26385195D01*
X47500000Y-26501000D01*
X47777164Y-26385195D01*
X47600000Y-25900000D01*
G37*
%TD.AperFunction*%
%TD*%
%TA.AperFunction,Conductor*%
%TO.N,/HDMI2_D1+*%
G36*
X25399999Y-13924449D02*
G01*
X25187399Y-13924449D01*
X25377164Y-13885195D01*
X25100000Y-14001000D01*
X25400000Y-14000000D01*
X25399999Y-13924449D01*
G37*
%TD.AperFunction*%
%TD*%
%TA.AperFunction,Conductor*%
%TO.N,/HPD1*%
G36*
X43599000Y-23798402D02*
G01*
X43399000Y-23798402D01*
X43376402Y-24021614D01*
X43499000Y-24722000D01*
X43621598Y-24021614D01*
X43599000Y-23798402D01*
G37*
%TD.AperFunction*%
%TD*%
%TA.AperFunction,Conductor*%
%TO.N,GND*%
G36*
X88358578Y-21641421D02*
G01*
X88641421Y-21358578D01*
X88500000Y-20799244D01*
X87999293Y-20902293D01*
X87789824Y-21353000D01*
X88358578Y-21641421D01*
G37*
%TD.AperFunction*%
%TD*%
%TA.AperFunction,Conductor*%
%TO.N,GND*%
G36*
X5141420Y-34466326D02*
G01*
X4858579Y-34183485D01*
X4249693Y-33750000D01*
X4999293Y-33000707D01*
X5749693Y-33750000D01*
X5141420Y-34466326D01*
G37*
%TD.AperFunction*%
%TD*%
%TA.AperFunction,Conductor*%
%TO.N,/AUDIO_L*%
G36*
X55474696Y-3683883D02*
G01*
X55616117Y-3825304D01*
X56758311Y-3423619D01*
X56500707Y-2799293D01*
X55876381Y-2541689D01*
X55474696Y-3683883D01*
G37*
%TD.AperFunction*%
%TD*%
%TA.AperFunction,Conductor*%
%TO.N,+5V*%
G36*
X93500000Y-7800000D02*
G01*
X94500000Y-7800000D01*
X94831492Y-6344415D01*
X94000000Y-5999000D01*
X93168508Y-6344415D01*
X93500000Y-7800000D01*
G37*
%TD.AperFunction*%
%TD*%
%TA.AperFunction,Conductor*%
%TO.N,/HDMI0_D0+*%
G36*
X74300000Y-17875552D02*
G01*
X74512600Y-17875552D01*
X74322836Y-17914805D01*
X74600000Y-17799000D01*
X74300000Y-17800000D01*
X74300000Y-17875552D01*
G37*
%TD.AperFunction*%
%TD*%
%TA.AperFunction,Conductor*%
%TO.N,/HDMI1_CEC*%
G36*
X41772991Y-11265883D02*
G01*
X41914412Y-11124462D01*
X41677164Y-10685195D01*
X41399293Y-10799293D01*
X41285195Y-11077164D01*
X41772991Y-11265883D01*
G37*
%TD.AperFunction*%
%TD*%
%TA.AperFunction,Conductor*%
%TO.N,GND*%
G36*
X4800000Y-17600000D02*
G01*
X5200000Y-17600000D01*
X5300000Y-17000000D01*
X5000000Y-16999000D01*
X4700000Y-17000000D01*
X4800000Y-17600000D01*
G37*
%TD.AperFunction*%
%TD*%
%TA.AperFunction,Conductor*%
%TO.N,/HDMI2_CK-*%
G36*
X20500865Y-14392288D02*
G01*
X20350534Y-14542619D01*
X20456960Y-14380681D01*
X20342862Y-14658552D01*
X20554287Y-14445713D01*
X20500865Y-14392288D01*
G37*
%TD.AperFunction*%
%TD*%
%TA.AperFunction,Conductor*%
%TO.N,/HDMI0_D1+*%
G36*
X75988476Y-23759145D02*
G01*
X75838145Y-23909476D01*
X75875000Y-24720666D01*
X76000707Y-24721707D01*
X76048680Y-23933465D01*
X75988476Y-23759145D01*
G37*
%TD.AperFunction*%
%TD*%
%TA.AperFunction,Conductor*%
%TO.N,+3V3*%
G36*
X59947000Y-19400000D02*
G01*
X59547000Y-19400000D01*
X59447000Y-20000000D01*
X59747000Y-20001000D01*
X60047000Y-20000000D01*
X59947000Y-19400000D01*
G37*
%TD.AperFunction*%
%TD*%
%TA.AperFunction,Conductor*%
%TO.N,+3V3*%
G36*
X89700000Y-14300000D02*
G01*
X90700000Y-14300000D01*
X91200000Y-13300000D01*
X90200000Y-12064000D01*
X89200000Y-13300000D01*
X89700000Y-14300000D01*
G37*
%TD.AperFunction*%
%TD*%
%TA.AperFunction,Conductor*%
%TO.N,GND*%
G36*
X73901000Y-25643598D02*
G01*
X74101000Y-25643598D01*
X74123598Y-25420386D01*
X74001000Y-24720000D01*
X73878402Y-25420386D01*
X73901000Y-25643598D01*
G37*
%TD.AperFunction*%
%TD*%
%TA.AperFunction,Conductor*%
%TO.N,GND*%
G36*
X47400000Y-25643598D02*
G01*
X47600000Y-25643598D01*
X47622598Y-25420386D01*
X47500000Y-24720000D01*
X47377402Y-25420386D01*
X47400000Y-25643598D01*
G37*
%TD.AperFunction*%
%TD*%
%TA.AperFunction,Conductor*%
%TO.N,/HDMI1_D0-*%
G36*
X48661855Y-23909476D02*
G01*
X48511524Y-23759145D01*
X48451319Y-23933464D01*
X48499293Y-24721707D01*
X48625000Y-24720666D01*
X48661855Y-23909476D01*
G37*
%TD.AperFunction*%
%TD*%
%TA.AperFunction,Conductor*%
%TO.N,/HDMI0_CEC*%
G36*
X60793607Y-8535028D02*
G01*
X60935028Y-8393607D01*
X60777164Y-7885195D01*
X60499293Y-7999293D01*
X60385195Y-8277164D01*
X60793607Y-8535028D01*
G37*
%TD.AperFunction*%
%TD*%
%TA.AperFunction,Conductor*%
%TO.N,/PL_KEY2*%
G36*
X10566117Y-1774696D02*
G01*
X10424696Y-1916117D01*
X10826381Y-3058311D01*
X11450707Y-2800707D01*
X11708311Y-2176381D01*
X10566117Y-1774696D01*
G37*
%TD.AperFunction*%
%TD*%
%TA.AperFunction,Conductor*%
%TO.N,GND*%
G36*
X74101000Y-25900199D02*
G01*
X73901000Y-25900199D01*
X73722836Y-26385195D01*
X74000000Y-26501000D01*
X74277164Y-26385195D01*
X74101000Y-25900199D01*
G37*
%TD.AperFunction*%
%TD*%
%TA.AperFunction,Conductor*%
%TO.N,/SDA2*%
G36*
X14900000Y-20100000D02*
G01*
X15100000Y-20100000D01*
X15277164Y-19614805D01*
X15000000Y-19499000D01*
X14722836Y-19614805D01*
X14900000Y-20100000D01*
G37*
%TD.AperFunction*%
%TD*%
%TA.AperFunction,Conductor*%
%TO.N,/HDMI2_D0+*%
G36*
X24489476Y-23759145D02*
G01*
X24339145Y-23909476D01*
X24376000Y-24720666D01*
X24501707Y-24721707D01*
X24549680Y-23933465D01*
X24489476Y-23759145D01*
G37*
%TD.AperFunction*%
%TD*%
%TA.AperFunction,Conductor*%
%TO.N,/HDMI1_D2-*%
G36*
X51661855Y-23909476D02*
G01*
X51511524Y-23759145D01*
X51451319Y-23933464D01*
X51499293Y-24721707D01*
X51625000Y-24720666D01*
X51661855Y-23909476D01*
G37*
%TD.AperFunction*%
%TD*%
%TA.AperFunction,Conductor*%
%TO.N,/HDMI0_CK+*%
G36*
X72988476Y-23759145D02*
G01*
X72838145Y-23909476D01*
X72875000Y-24720666D01*
X73000707Y-24721707D01*
X73048680Y-23933465D01*
X72988476Y-23759145D01*
G37*
%TD.AperFunction*%
%TD*%
%TA.AperFunction,Conductor*%
%TO.N,/SDA1*%
G36*
X45100000Y-23798402D02*
G01*
X44900000Y-23798402D01*
X44877402Y-24021614D01*
X45000000Y-24722000D01*
X45122598Y-24021614D01*
X45100000Y-23798402D01*
G37*
%TD.AperFunction*%
%TD*%
%TA.AperFunction,Conductor*%
%TO.N,Net-(D1-K)*%
G36*
X19100000Y-23798402D02*
G01*
X18900000Y-23798402D01*
X18877402Y-24021614D01*
X19000000Y-24722000D01*
X19122598Y-24021614D01*
X19100000Y-23798402D01*
G37*
%TD.AperFunction*%
%TD*%
%TA.AperFunction,Conductor*%
%TO.N,/HDMI1_CK+*%
G36*
X37349098Y-7599429D02*
G01*
X37499429Y-7449098D01*
X37277164Y-6985195D01*
X36999293Y-7099293D01*
X36885195Y-7377164D01*
X37349098Y-7599429D01*
G37*
%TD.AperFunction*%
%TD*%
%TA.AperFunction,Conductor*%
%TO.N,/HDMI0_D0-*%
G36*
X73687900Y-17801154D02*
G01*
X73900500Y-17801154D01*
X73522836Y-17914805D01*
X73800000Y-17799000D01*
X73522836Y-17914805D01*
X73687900Y-17801154D01*
G37*
%TD.AperFunction*%
%TD*%
%TA.AperFunction,Conductor*%
%TO.N,GND*%
G36*
X69600000Y-25900000D02*
G01*
X69400000Y-25900000D01*
X69222836Y-26385195D01*
X69500000Y-26501000D01*
X69777164Y-26385195D01*
X69600000Y-25900000D01*
G37*
%TD.AperFunction*%
%TD*%
%TA.AperFunction,Conductor*%
%TO.N,GND*%
G36*
X22400000Y-25643598D02*
G01*
X22600000Y-25643598D01*
X22622598Y-25420386D01*
X22500000Y-24720000D01*
X22377402Y-25420386D01*
X22400000Y-25643598D01*
G37*
%TD.AperFunction*%
%TD*%
%TA.AperFunction,Conductor*%
%TO.N,+3V3*%
G36*
X13600000Y-8400000D02*
G01*
X13400000Y-8400000D01*
X13222836Y-8885195D01*
X13500000Y-9001000D01*
X13777164Y-8885195D01*
X13600000Y-8400000D01*
G37*
%TD.AperFunction*%
%TD*%
%TA.AperFunction,Conductor*%
%TO.N,/HDMI1_D1-*%
G36*
X50160855Y-23909476D02*
G01*
X50010524Y-23759145D01*
X49950319Y-23933464D01*
X49998293Y-24721707D01*
X50124000Y-24720666D01*
X50160855Y-23909476D01*
G37*
%TD.AperFunction*%
%TD*%
%TA.AperFunction,Conductor*%
%TO.N,/AUDIO_R*%
G36*
X36232000Y-24893635D02*
G01*
X36032000Y-24893635D01*
X35822836Y-25014805D01*
X36100000Y-24901000D01*
X35822836Y-25014805D01*
X36232000Y-24893635D01*
G37*
%TD.AperFunction*%
%TD*%
%TA.AperFunction,Conductor*%
%TO.N,GND*%
G36*
X88447000Y-26002310D02*
G01*
X88047000Y-26002310D01*
X87787868Y-26287868D01*
X88000000Y-26501000D01*
X88277164Y-26614805D01*
X88447000Y-26002310D01*
G37*
%TD.AperFunction*%
%TD*%
%TA.AperFunction,Conductor*%
%TO.N,/HDMI0_D2-*%
G36*
X76661855Y-23909476D02*
G01*
X76511524Y-23759145D01*
X76451319Y-23933464D01*
X76499293Y-24721707D01*
X76625000Y-24720666D01*
X76661855Y-23909476D01*
G37*
%TD.AperFunction*%
%TD*%
%TA.AperFunction,Conductor*%
%TO.N,GND*%
G36*
X33100000Y-22131738D02*
G01*
X33500000Y-22131738D01*
X33277164Y-21541197D01*
X33000000Y-21655002D01*
X32787868Y-21868134D01*
X33100000Y-22131738D01*
G37*
%TD.AperFunction*%
%TD*%
%TA.AperFunction,Conductor*%
%TO.N,GND*%
G36*
X5200000Y-33724913D02*
G01*
X4800000Y-33724913D01*
X4699993Y-34324912D01*
X4999993Y-34325912D01*
X5299993Y-34324912D01*
X5200000Y-33724913D01*
G37*
%TD.AperFunction*%
%TD*%
%TA.AperFunction,Conductor*%
%TO.N,/HDMI1_D2+*%
G36*
X52313100Y-13187530D02*
G01*
X52100500Y-13187530D01*
X52197429Y-13057004D01*
X52409561Y-13270136D01*
X52109561Y-13269136D01*
X52313100Y-13187530D01*
G37*
%TD.AperFunction*%
%TD*%
%TA.AperFunction,Conductor*%
%TO.N,GND*%
G36*
X4800000Y-22600000D02*
G01*
X5200000Y-22600000D01*
X5300000Y-22000000D01*
X5000000Y-21999000D01*
X4700000Y-22000000D01*
X4800000Y-22600000D01*
G37*
%TD.AperFunction*%
%TD*%
%TA.AperFunction,Conductor*%
%TO.N,GND*%
G36*
X48901000Y-25643598D02*
G01*
X49101000Y-25643598D01*
X49123598Y-25420386D01*
X49001000Y-24720000D01*
X48878402Y-25420386D01*
X48901000Y-25643598D01*
G37*
%TD.AperFunction*%
%TD*%
%TA.AperFunction,Conductor*%
%TO.N,/SCL2*%
G36*
X20601000Y-23798402D02*
G01*
X20401000Y-23798402D01*
X20378402Y-24021614D01*
X20501000Y-24722000D01*
X20623598Y-24021614D01*
X20601000Y-23798402D01*
G37*
%TD.AperFunction*%
%TD*%
%TA.AperFunction,Conductor*%
%TO.N,/HDMI2_D1-*%
G36*
X31970241Y-5679428D02*
G01*
X32120572Y-5829759D01*
X33258311Y-5423619D01*
X33000707Y-4799293D01*
X32376381Y-4541689D01*
X31970241Y-5679428D01*
G37*
%TD.AperFunction*%
%TD*%
%TA.AperFunction,Conductor*%
%TO.N,/HDMI0_D2+*%
G36*
X78006300Y-17508921D02*
G01*
X77793700Y-17508921D01*
X77941821Y-18114805D01*
X78218985Y-18001000D01*
X78333790Y-17722836D01*
X78006300Y-17508921D01*
G37*
%TD.AperFunction*%
%TD*%
%TA.AperFunction,Conductor*%
%TO.N,/HPD1*%
G36*
X43399000Y-22519891D02*
G01*
X43599000Y-22519891D01*
X43121836Y-22614805D01*
X43399000Y-22499000D01*
X43121836Y-22614805D01*
X43399000Y-22519891D01*
G37*
%TD.AperFunction*%
%TD*%
%TA.AperFunction,Conductor*%
%TO.N,/HDMI2_D0+*%
G36*
X22963638Y-14556531D02*
G01*
X23113969Y-14406200D01*
X22977164Y-13885195D01*
X22699293Y-13999293D01*
X22487868Y-14212132D01*
X22963638Y-14556531D01*
G37*
%TD.AperFunction*%
%TD*%
%TA.AperFunction,Conductor*%
%TO.N,GND*%
G36*
X88447000Y-30502310D02*
G01*
X88047000Y-30502310D01*
X87787868Y-30787868D01*
X88000000Y-31001000D01*
X88277164Y-31114805D01*
X88447000Y-30502310D01*
G37*
%TD.AperFunction*%
%TD*%
%TA.AperFunction,Conductor*%
%TO.N,/HDMI2_D1+*%
G36*
X25988476Y-23759145D02*
G01*
X25838145Y-23909476D01*
X25875000Y-24720666D01*
X26000707Y-24721707D01*
X26048680Y-23933465D01*
X25988476Y-23759145D01*
G37*
%TD.AperFunction*%
%TD*%
%TA.AperFunction,Conductor*%
%TO.N,+3V3*%
G36*
X87400000Y-11350000D02*
G01*
X87400000Y-12350000D01*
X88400000Y-12929699D01*
X90201000Y-12065000D01*
X88400000Y-10923816D01*
X87400000Y-11350000D01*
G37*
%TD.AperFunction*%
%TD*%
%TA.AperFunction,Conductor*%
%TO.N,/HDMI0_D0-*%
G36*
X73661855Y-23909476D02*
G01*
X73511524Y-23759145D01*
X73451319Y-23933464D01*
X73499293Y-24721707D01*
X73625000Y-24720666D01*
X73661855Y-23909476D01*
G37*
%TD.AperFunction*%
%TD*%
%TA.AperFunction,Conductor*%
%TO.N,/HDMI1_D1+*%
G36*
X50599500Y-13787629D02*
G01*
X50812100Y-13787629D01*
X50622336Y-13826882D01*
X50899500Y-13711077D01*
X50599500Y-13712077D01*
X50599500Y-13787629D01*
G37*
%TD.AperFunction*%
%TD*%
%TA.AperFunction,Conductor*%
%TO.N,+3V3*%
G36*
X90500000Y-9830000D02*
G01*
X89900000Y-9830000D01*
X89200000Y-10830000D01*
X90200000Y-12066000D01*
X91200000Y-10830000D01*
X90500000Y-9830000D01*
G37*
%TD.AperFunction*%
%TD*%
%TA.AperFunction,Conductor*%
%TO.N,GND*%
G36*
X19600000Y-25900000D02*
G01*
X19400000Y-25900000D01*
X19222836Y-26385195D01*
X19500000Y-26501000D01*
X19777164Y-26385195D01*
X19600000Y-25900000D01*
G37*
%TD.AperFunction*%
%TD*%
%TA.AperFunction,Conductor*%
%TO.N,/HDMI1_D1-*%
G36*
X50186900Y-13875552D02*
G01*
X50399500Y-13875552D01*
X50399500Y-13800000D01*
X50099500Y-13799000D01*
X50376664Y-13914805D01*
X50186900Y-13875552D01*
G37*
%TD.AperFunction*%
%TD*%
%TA.AperFunction,Conductor*%
%TO.N,Net-(D1-K)*%
G36*
X69100000Y-23798402D02*
G01*
X68900000Y-23798402D01*
X68877402Y-24021614D01*
X69000000Y-24722000D01*
X69122598Y-24021614D01*
X69100000Y-23798402D01*
G37*
%TD.AperFunction*%
%TD*%
%TA.AperFunction,Conductor*%
%TO.N,GND*%
G36*
X77101000Y-25899000D02*
G01*
X76901000Y-25899000D01*
X76723836Y-26384195D01*
X77001000Y-26500000D01*
X77278164Y-26384195D01*
X77101000Y-25899000D01*
G37*
%TD.AperFunction*%
%TD*%
%TA.AperFunction,Conductor*%
%TO.N,GND*%
G36*
X75599000Y-25900199D02*
G01*
X75399000Y-25900199D01*
X75222836Y-26385195D01*
X75500000Y-26501000D01*
X75777164Y-26385195D01*
X75599000Y-25900199D01*
G37*
%TD.AperFunction*%
%TD*%
%TA.AperFunction,Conductor*%
%TO.N,/SCL1*%
G36*
X45601000Y-23798402D02*
G01*
X45401000Y-23798402D01*
X45378402Y-24021614D01*
X45501000Y-24722000D01*
X45623598Y-24021614D01*
X45601000Y-23798402D01*
G37*
%TD.AperFunction*%
%TD*%
%TA.AperFunction,Conductor*%
%TO.N,/HDMI2_CK+*%
G36*
X22420241Y-3679428D02*
G01*
X22570572Y-3829759D01*
X23708311Y-3423619D01*
X23450707Y-2799293D01*
X22826381Y-2541689D01*
X22420241Y-3679428D01*
G37*
%TD.AperFunction*%
%TD*%
%TA.AperFunction,Conductor*%
%TO.N,/HDMI0_CEC*%
G36*
X71461766Y-23764303D02*
G01*
X71320344Y-23905725D01*
X71376000Y-24723810D01*
X71501707Y-24721707D01*
X71528200Y-23924567D01*
X71461766Y-23764303D01*
G37*
%TD.AperFunction*%
%TD*%
%TA.AperFunction,Conductor*%
%TO.N,/HPD0*%
G36*
X67400000Y-20100000D02*
G01*
X67400000Y-19900000D01*
X66914805Y-19722836D01*
X66799000Y-20000000D01*
X66914805Y-20277164D01*
X67400000Y-20100000D01*
G37*
%TD.AperFunction*%
%TD*%
%TA.AperFunction,Conductor*%
%TO.N,/HDMI1_D0+*%
G36*
X37879428Y-3829759D02*
G01*
X38029759Y-3679428D01*
X37623619Y-2541689D01*
X36999293Y-2799293D01*
X36741689Y-3423619D01*
X37879428Y-3829759D01*
G37*
%TD.AperFunction*%
%TD*%
%TA.AperFunction,Conductor*%
%TO.N,/HDMI0_D2+*%
G36*
X77489476Y-23759145D02*
G01*
X77339145Y-23909476D01*
X77376000Y-24720666D01*
X77501707Y-24721707D01*
X77549680Y-23933465D01*
X77489476Y-23759145D01*
G37*
%TD.AperFunction*%
%TD*%
%TA.AperFunction,Conductor*%
%TO.N,GND*%
G36*
X44600000Y-25900000D02*
G01*
X44400000Y-25900000D01*
X44222836Y-26385195D01*
X44500000Y-26501000D01*
X44777164Y-26385195D01*
X44600000Y-25900000D01*
G37*
%TD.AperFunction*%
%TD*%
%TA.AperFunction,Conductor*%
%TO.N,/HDMI1_D0-*%
G36*
X48687900Y-14275886D02*
G01*
X48900500Y-14275886D01*
X48900000Y-14200000D01*
X48600000Y-14199000D01*
X48877164Y-14314805D01*
X48687900Y-14275886D01*
G37*
%TD.AperFunction*%
%TD*%
%TA.AperFunction,Conductor*%
%TO.N,/HDMI0_CK+*%
G36*
X59542382Y-6500959D02*
G01*
X59692713Y-6350628D01*
X59460006Y-5902353D01*
X59182135Y-6016451D01*
X59068037Y-6294322D01*
X59542382Y-6500959D01*
G37*
%TD.AperFunction*%
%TD*%
%TA.AperFunction,Conductor*%
%TO.N,+5V*%
G36*
X93053639Y-18854325D02*
G01*
X93619325Y-18288639D01*
X92990000Y-17532036D01*
X92499293Y-17734293D01*
X92990000Y-18917964D01*
X93053639Y-18854325D01*
G37*
%TD.AperFunction*%
%TD*%
%TA.AperFunction,Conductor*%
%TO.N,/HDMI1_CK-*%
G36*
X46997435Y-13138858D02*
G01*
X46847104Y-13289189D01*
X46797858Y-13718886D01*
X47098565Y-13719593D01*
X47309990Y-13506754D01*
X46997435Y-13138858D01*
G37*
%TD.AperFunction*%
%TD*%
%TA.AperFunction,Conductor*%
%TO.N,/HDMI2_D1+*%
G36*
X24329428Y-5829759D02*
G01*
X24479759Y-5679428D01*
X24073619Y-4541689D01*
X23449293Y-4799293D01*
X23191689Y-5423619D01*
X24329428Y-5829759D01*
G37*
%TD.AperFunction*%
%TD*%
%TA.AperFunction,Conductor*%
%TO.N,Net-(C11-Pad1)*%
G36*
X56749000Y-31900000D02*
G01*
X56749000Y-31500000D01*
X55994251Y-30830788D01*
X55248000Y-31479000D01*
X55937654Y-32338627D01*
X56749000Y-31900000D01*
G37*
%TD.AperFunction*%
%TD*%
%TA.AperFunction,Conductor*%
%TO.N,/AUDIO_L*%
G36*
X55082842Y-4358579D02*
G01*
X54941421Y-4217158D01*
X54500000Y-4200000D01*
X54499293Y-4500707D01*
X54712132Y-4712132D01*
X55082842Y-4358579D01*
G37*
%TD.AperFunction*%
%TD*%
%TA.AperFunction,Conductor*%
%TO.N,/SCL2*%
G36*
X14300000Y-15100000D02*
G01*
X14500000Y-15100000D01*
X14677164Y-14614805D01*
X14400000Y-14499000D01*
X14122836Y-14614805D01*
X14300000Y-15100000D01*
G37*
%TD.AperFunction*%
%TD*%
%TA.AperFunction,Conductor*%
%TO.N,/HDMI2_D2-*%
G36*
X26687900Y-16524449D02*
G01*
X26900500Y-16524449D01*
X26900501Y-16000000D01*
X26600501Y-15999000D01*
X26388369Y-16212132D01*
X26687900Y-16524449D01*
G37*
%TD.AperFunction*%
%TD*%
%TA.AperFunction,Conductor*%
%TO.N,/AUDIO_L*%
G36*
X35600000Y-24919891D02*
G01*
X35400000Y-24919891D01*
X35122836Y-25385195D01*
X35400000Y-25501000D01*
X35700000Y-25500000D01*
X35600000Y-24919891D01*
G37*
%TD.AperFunction*%
%TD*%
%TA.AperFunction,Conductor*%
%TO.N,/SCL0*%
G36*
X66200000Y-14100000D02*
G01*
X66200000Y-13900000D01*
X65714805Y-13722836D01*
X65599000Y-14000000D01*
X65714805Y-14277164D01*
X66200000Y-14100000D01*
G37*
%TD.AperFunction*%
%TD*%
%TA.AperFunction,Conductor*%
%TO.N,/HDMI0_D1-*%
G36*
X75906300Y-17800000D02*
G01*
X75693700Y-17800000D01*
X75522836Y-17914805D01*
X75800000Y-17801000D01*
X75522836Y-17914805D01*
X75906300Y-17800000D01*
G37*
%TD.AperFunction*%
%TD*%
%TA.AperFunction,Conductor*%
%TO.N,/HDMI1_CK-*%
G36*
X47186900Y-14242237D02*
G01*
X47399500Y-14242237D01*
X47397858Y-13718886D01*
X47097858Y-13717886D01*
X46885726Y-13931018D01*
X47186900Y-14242237D01*
G37*
%TD.AperFunction*%
%TD*%
%TA.AperFunction,Conductor*%
%TO.N,/HDMI1_D0-*%
G36*
X35879428Y-3829759D02*
G01*
X36029759Y-3679428D01*
X35623619Y-2541689D01*
X34999293Y-2799293D01*
X34741689Y-3423619D01*
X35879428Y-3829759D01*
G37*
%TD.AperFunction*%
%TD*%
%TA.AperFunction,Conductor*%
%TO.N,Net-(C12-Pad1)*%
G36*
X64251000Y-31500000D02*
G01*
X64251000Y-31900000D01*
X65062345Y-32338627D01*
X65752000Y-31479000D01*
X65005748Y-30830788D01*
X64251000Y-31500000D01*
G37*
%TD.AperFunction*%
%TD*%
%TA.AperFunction,Conductor*%
%TO.N,GND*%
G36*
X27101000Y-25900199D02*
G01*
X26901000Y-25900199D01*
X26722836Y-26385195D01*
X27000000Y-26501000D01*
X27277164Y-26385195D01*
X27101000Y-25900199D01*
G37*
%TD.AperFunction*%
%TD*%
%TA.AperFunction,Conductor*%
%TO.N,/HDMI1_CEC*%
G36*
X46601000Y-23798402D02*
G01*
X46401000Y-23798402D01*
X46378402Y-24021614D01*
X46501000Y-24722000D01*
X46623598Y-24021614D01*
X46601000Y-23798402D01*
G37*
%TD.AperFunction*%
%TD*%
%TA.AperFunction,Conductor*%
%TO.N,/D+*%
G36*
X90426051Y-27784630D02*
G01*
X90621496Y-27589185D01*
X90552271Y-27186585D01*
X90251564Y-27185878D01*
X90040139Y-27398717D01*
X90426051Y-27784630D01*
G37*
%TD.AperFunction*%
%TD*%
%TA.AperFunction,Conductor*%
%TO.N,Net-(D1-K)*%
G36*
X43900000Y-25643598D02*
G01*
X44100000Y-25643598D01*
X44122598Y-25420386D01*
X44000000Y-24720000D01*
X43877402Y-25420386D01*
X43900000Y-25643598D01*
G37*
%TD.AperFunction*%
%TD*%
%TA.AperFunction,Conductor*%
%TO.N,/AUDIO_R*%
G36*
X24994974Y-29646447D02*
G01*
X24853553Y-29505026D01*
X24385195Y-29722836D01*
X24499293Y-30000707D01*
X24777164Y-30114805D01*
X24994974Y-29646447D01*
G37*
%TD.AperFunction*%
%TD*%
%TA.AperFunction,Conductor*%
%TO.N,/HDMI2_D0-*%
G36*
X23661855Y-23909476D02*
G01*
X23511524Y-23759145D01*
X23451319Y-23933464D01*
X23499293Y-24721707D01*
X23625000Y-24720666D01*
X23661855Y-23909476D01*
G37*
%TD.AperFunction*%
%TD*%
%TA.AperFunction,Conductor*%
%TO.N,/HDMI2_D2+*%
G36*
X27100500Y-14714728D02*
G01*
X27313100Y-14714728D01*
X27077164Y-14168425D01*
X26800000Y-14282230D01*
X26685195Y-14560394D01*
X27100500Y-14714728D01*
G37*
%TD.AperFunction*%
%TD*%
%TA.AperFunction,Conductor*%
%TO.N,+5V*%
G36*
X94943039Y-29619685D02*
G01*
X94988794Y-29672489D01*
X95000000Y-29724000D01*
X95000000Y-30576000D01*
X94980315Y-30643039D01*
X94927511Y-30688794D01*
X94876000Y-30700000D01*
X94376793Y-30700000D01*
X94309754Y-30680315D01*
X94269406Y-30638000D01*
X94202022Y-30521287D01*
X94202018Y-30521282D01*
X94090217Y-30409481D01*
X94090209Y-30409475D01*
X93953290Y-30330426D01*
X93953286Y-30330424D01*
X93953284Y-30330423D01*
X93800557Y-30289500D01*
X93800556Y-30289500D01*
X93792497Y-30288439D01*
X93792692Y-30286954D01*
X93734323Y-30269815D01*
X93688568Y-30217011D01*
X93678624Y-30147853D01*
X93691500Y-30119658D01*
X93691500Y-30052172D01*
X93691499Y-30052155D01*
X93685098Y-29992627D01*
X93685096Y-29992620D01*
X93634854Y-29857913D01*
X93634850Y-29857906D01*
X93590237Y-29798311D01*
X93565819Y-29732847D01*
X93580670Y-29664574D01*
X93630075Y-29615168D01*
X93689503Y-29600000D01*
X94876000Y-29600000D01*
X94943039Y-29619685D01*
G37*
%TD.AperFunction*%
%TD*%
%TA.AperFunction,Conductor*%
%TO.N,GND*%
G36*
X60500000Y-30047000D02*
G01*
X60500000Y-30447000D01*
X60222836Y-30361805D01*
X60501000Y-30247000D01*
X60222836Y-30361805D01*
X60500000Y-30047000D01*
G37*
%TD.AperFunction*%
%TD*%
%TA.AperFunction,Conductor*%
%TO.N,GND*%
G36*
X25599000Y-25900199D02*
G01*
X25399000Y-25900199D01*
X25222836Y-26385195D01*
X25500000Y-26501000D01*
X25777164Y-26385195D01*
X25599000Y-25900199D01*
G37*
%TD.AperFunction*%
%TD*%
%TA.AperFunction,Conductor*%
%TO.N,+5V*%
G36*
X26509835Y-1435571D02*
G01*
X26085571Y-1859835D01*
X26775000Y-3079594D01*
X27450707Y-2800707D01*
X27729594Y-2125000D01*
X26509835Y-1435571D01*
G37*
%TD.AperFunction*%
%TD*%
%TA.AperFunction,Conductor*%
%TO.N,Net-(D4-A)*%
G36*
X88950000Y-22803000D02*
G01*
X88950000Y-22403000D01*
X88500000Y-22153000D01*
X87999000Y-22603000D01*
X88500000Y-23053000D01*
X88950000Y-22803000D01*
G37*
%TD.AperFunction*%
%TD*%
%TA.AperFunction,Conductor*%
%TO.N,/SDA2*%
G36*
X20100000Y-23798402D02*
G01*
X19900000Y-23798402D01*
X19877402Y-24021614D01*
X20000000Y-24722000D01*
X20122598Y-24021614D01*
X20100000Y-23798402D01*
G37*
%TD.AperFunction*%
%TD*%
%TA.AperFunction,Conductor*%
%TO.N,+3V3*%
G36*
X11700000Y-9600000D02*
G01*
X11700000Y-9400000D01*
X11214805Y-9222836D01*
X11099000Y-9500000D01*
X11214805Y-9777164D01*
X11700000Y-9600000D01*
G37*
%TD.AperFunction*%
%TD*%
%TA.AperFunction,Conductor*%
%TO.N,/HDMI1_D0+*%
G36*
X49489476Y-23759145D02*
G01*
X49339145Y-23909476D01*
X49376000Y-24720666D01*
X49501707Y-24721707D01*
X49549680Y-23933465D01*
X49489476Y-23759145D01*
G37*
%TD.AperFunction*%
%TD*%
%TA.AperFunction,Conductor*%
%TO.N,/PL_KEY0*%
G36*
X13100000Y-16500000D02*
G01*
X12900000Y-16500000D01*
X12250000Y-17250000D01*
X13000000Y-18001000D01*
X13750000Y-17250000D01*
X13100000Y-16500000D01*
G37*
%TD.AperFunction*%
%TD*%
%TA.AperFunction,Conductor*%
%TO.N,/HDMI0_D2+*%
G36*
X69700000Y-6778346D02*
G01*
X69912600Y-6778346D01*
X70214805Y-6577164D01*
X70100000Y-6299000D01*
X69822836Y-6185195D01*
X69700000Y-6778346D01*
G37*
%TD.AperFunction*%
%TD*%
%TA.AperFunction,Conductor*%
%TO.N,/HDMI2_D1-*%
G36*
X25186899Y-16524449D02*
G01*
X25399499Y-16524449D01*
X25399501Y-16000000D01*
X25099501Y-15999000D01*
X24887369Y-16212132D01*
X25186899Y-16524449D01*
G37*
%TD.AperFunction*%
%TD*%
%TA.AperFunction,Conductor*%
%TO.N,/HDMI0_D1+*%
G36*
X66600000Y-6108965D02*
G01*
X66812600Y-6108965D01*
X67123619Y-5058311D01*
X66500000Y-4799000D01*
X66022703Y-5277297D01*
X66600000Y-6108965D01*
G37*
%TD.AperFunction*%
%TD*%
%TA.AperFunction,Conductor*%
%TO.N,/HDMI1_D2+*%
G36*
X47797059Y-6655636D02*
G01*
X47947390Y-6505305D01*
X47932842Y-6067158D01*
X47632135Y-6066451D01*
X47420710Y-6279290D01*
X47797059Y-6655636D01*
G37*
%TD.AperFunction*%
%TD*%
%TA.AperFunction,Conductor*%
%TO.N,/PL_KEY3*%
G36*
X14350000Y-31707106D02*
G01*
X14150000Y-31707106D01*
X12682699Y-32250000D01*
X13000000Y-33001000D01*
X13950000Y-33097084D01*
X14350000Y-31707106D01*
G37*
%TD.AperFunction*%
%TD*%
%TA.AperFunction,Conductor*%
%TO.N,/HDMI1_CK+*%
G36*
X47988476Y-23759145D02*
G01*
X47838145Y-23909476D01*
X47875000Y-24720666D01*
X48000707Y-24721707D01*
X48048680Y-23933465D01*
X47988476Y-23759145D01*
G37*
%TD.AperFunction*%
%TD*%
%TA.AperFunction,Conductor*%
%TO.N,Net-(D1-K)*%
G36*
X68900000Y-25643598D02*
G01*
X69100000Y-25643598D01*
X69122598Y-25420386D01*
X69000000Y-24720000D01*
X68877402Y-25420386D01*
X68900000Y-25643598D01*
G37*
%TD.AperFunction*%
%TD*%
%TA.AperFunction,Conductor*%
%TO.N,GND*%
G36*
X72400000Y-25643598D02*
G01*
X72600000Y-25643598D01*
X72622598Y-25420386D01*
X72500000Y-24720000D01*
X72377402Y-25420386D01*
X72400000Y-25643598D01*
G37*
%TD.AperFunction*%
%TD*%
%TA.AperFunction,Conductor*%
%TO.N,/HDMI1_D2-*%
G36*
X46893700Y-6150000D02*
G01*
X47106300Y-6150000D01*
X47623619Y-5058311D01*
X47000000Y-4799000D01*
X46376381Y-5058311D01*
X46893700Y-6150000D01*
G37*
%TD.AperFunction*%
%TD*%
%TA.AperFunction,Conductor*%
%TO.N,Net-(D1-K)*%
G36*
X18900000Y-25643598D02*
G01*
X19100000Y-25643598D01*
X19122598Y-25420386D01*
X19000000Y-24720000D01*
X18877402Y-25420386D01*
X18900000Y-25643598D01*
G37*
%TD.AperFunction*%
%TD*%
%TA.AperFunction,Conductor*%
%TO.N,/HDMI1_D2+*%
G36*
X52489476Y-23759145D02*
G01*
X52339145Y-23909476D01*
X52376000Y-24720666D01*
X52501707Y-24721707D01*
X52549680Y-23933465D01*
X52489476Y-23759145D01*
G37*
%TD.AperFunction*%
%TD*%
%TA.AperFunction,Conductor*%
%TO.N,GND*%
G36*
X44400000Y-25643598D02*
G01*
X44600000Y-25643598D01*
X44622598Y-25420386D01*
X44500000Y-24720000D01*
X44377402Y-25420386D01*
X44400000Y-25643598D01*
G37*
%TD.AperFunction*%
%TD*%
%TA.AperFunction,Conductor*%
%TO.N,/HDMI0_D0-*%
G36*
X63379428Y-5829759D02*
G01*
X63529759Y-5679428D01*
X63123619Y-4541689D01*
X62499293Y-4799293D01*
X62241689Y-5423619D01*
X63379428Y-5829759D01*
G37*
%TD.AperFunction*%
%TD*%
%TA.AperFunction,Conductor*%
%TO.N,+3V3*%
G36*
X60241974Y-10146447D02*
G01*
X60100553Y-10005026D01*
X59632195Y-10222836D01*
X59746293Y-10500707D01*
X60024164Y-10614805D01*
X60241974Y-10146447D01*
G37*
%TD.AperFunction*%
%TD*%
%TA.AperFunction,Conductor*%
%TO.N,+3V3*%
G36*
X59547000Y-15600000D02*
G01*
X59947000Y-15600000D01*
X60047000Y-15000000D01*
X59747000Y-14999000D01*
X59447000Y-15000000D01*
X59547000Y-15600000D01*
G37*
%TD.AperFunction*%
%TD*%
%TA.AperFunction,Conductor*%
%TO.N,Net-(D1-K)*%
G36*
X43900000Y-23580308D02*
G01*
X44100000Y-23580308D01*
X44376164Y-23114805D01*
X44099000Y-22999000D01*
X43799000Y-23000000D01*
X43900000Y-23580308D01*
G37*
%TD.AperFunction*%
%TD*%
%TA.AperFunction,Conductor*%
%TO.N,GND*%
G36*
X24101000Y-25900199D02*
G01*
X23901000Y-25900199D01*
X23722836Y-26385195D01*
X24000000Y-26501000D01*
X24277164Y-26385195D01*
X24101000Y-25900199D01*
G37*
%TD.AperFunction*%
%TD*%
%TA.AperFunction,Conductor*%
%TO.N,/HDMI1_D1+*%
G36*
X45931940Y-6516587D02*
G01*
X46082271Y-6366256D01*
X45860006Y-5902353D01*
X45582135Y-6016451D01*
X45468037Y-6294322D01*
X45931940Y-6516587D01*
G37*
%TD.AperFunction*%
%TD*%
%TA.AperFunction,Conductor*%
%TO.N,GND*%
G36*
X50399000Y-25643598D02*
G01*
X50599000Y-25643598D01*
X50621598Y-25420386D01*
X50499000Y-24720000D01*
X50376402Y-25420386D01*
X50399000Y-25643598D01*
G37*
%TD.AperFunction*%
%TD*%
%TA.AperFunction,Conductor*%
%TO.N,GND*%
G36*
X49101000Y-25900199D02*
G01*
X48901000Y-25900199D01*
X48722836Y-26385195D01*
X49000000Y-26501000D01*
X49277164Y-26385195D01*
X49101000Y-25900199D01*
G37*
%TD.AperFunction*%
%TD*%
%TA.AperFunction,Conductor*%
%TO.N,/PL_KEY1*%
G36*
X11790381Y-21648960D02*
G01*
X11648960Y-21790381D01*
X12050000Y-23110660D01*
X13000707Y-23000707D01*
X13310660Y-22250000D01*
X11790381Y-21648960D01*
G37*
%TD.AperFunction*%
%TD*%
%TA.AperFunction,Conductor*%
%TO.N,Net-(D1-K)*%
G36*
X68900000Y-23580308D02*
G01*
X69100000Y-23580308D01*
X69376164Y-23114805D01*
X69099000Y-22999000D01*
X68799000Y-23000000D01*
X68900000Y-23580308D01*
G37*
%TD.AperFunction*%
%TD*%
%TA.AperFunction,Conductor*%
%TO.N,/HDMI0_D2-*%
G36*
X69470241Y-5679428D02*
G01*
X69620572Y-5829759D01*
X70758311Y-5423619D01*
X70500707Y-4799293D01*
X69876381Y-4541689D01*
X69470241Y-5679428D01*
G37*
%TD.AperFunction*%
%TD*%
%TA.AperFunction,Conductor*%
%TO.N,+5V*%
G36*
X3484924Y-19099340D02*
G01*
X3060660Y-18675076D01*
X1655585Y-19328508D01*
X1999293Y-20160707D01*
X2831492Y-20504415D01*
X3484924Y-19099340D01*
G37*
%TD.AperFunction*%
%TD*%
%TA.AperFunction,Conductor*%
%TO.N,/HDMI1_CK-*%
G36*
X47160855Y-23909476D02*
G01*
X47010524Y-23759145D01*
X46950319Y-23933464D01*
X46998293Y-24721707D01*
X47124000Y-24720666D01*
X47160855Y-23909476D01*
G37*
%TD.AperFunction*%
%TD*%
%TA.AperFunction,Conductor*%
%TO.N,/PL_KEY3*%
G36*
X10424696Y-5683883D02*
G01*
X10566117Y-5825304D01*
X11708311Y-5423619D01*
X11450707Y-4799293D01*
X10826381Y-4541689D01*
X10424696Y-5683883D01*
G37*
%TD.AperFunction*%
%TD*%
%TA.AperFunction,Conductor*%
%TO.N,+3V3*%
G36*
X13005026Y-9353553D02*
G01*
X13146447Y-9494974D01*
X13614805Y-9277164D01*
X13500707Y-8999293D01*
X13222836Y-8885195D01*
X13005026Y-9353553D01*
G37*
%TD.AperFunction*%
%TD*%
%TA.AperFunction,Conductor*%
%TO.N,/HDMI1_CK-*%
G36*
X33879428Y-3829759D02*
G01*
X34029759Y-3679428D01*
X33623619Y-2541689D01*
X32999293Y-2799293D01*
X32741689Y-3423619D01*
X33879428Y-3829759D01*
G37*
%TD.AperFunction*%
%TD*%
%TA.AperFunction,Conductor*%
%TO.N,/PL_KEY0*%
G36*
X8424696Y-3683883D02*
G01*
X8566117Y-3825304D01*
X9708311Y-3423619D01*
X9450707Y-2799293D01*
X8826381Y-2541689D01*
X8424696Y-3683883D01*
G37*
%TD.AperFunction*%
%TD*%
%TA.AperFunction,Conductor*%
%TO.N,/HDMI1_D1-*%
G36*
X43970241Y-3679428D02*
G01*
X44120572Y-3829759D01*
X45258311Y-3423619D01*
X45000707Y-2799293D01*
X44376381Y-2541689D01*
X43970241Y-3679428D01*
G37*
%TD.AperFunction*%
%TD*%
%TA.AperFunction,Conductor*%
%TO.N,/HDMI2_CK-*%
G36*
X18329428Y-5829759D02*
G01*
X18479759Y-5679428D01*
X18073619Y-4541689D01*
X17449293Y-4799293D01*
X17191689Y-5423619D01*
X18329428Y-5829759D01*
G37*
%TD.AperFunction*%
%TD*%
%TA.AperFunction,Conductor*%
%TO.N,/HDMI2_CK-*%
G36*
X22160855Y-23909476D02*
G01*
X22010524Y-23759145D01*
X21950319Y-23933464D01*
X21998293Y-24721707D01*
X22124000Y-24720666D01*
X22160855Y-23909476D01*
G37*
%TD.AperFunction*%
%TD*%
%TA.AperFunction,Conductor*%
%TO.N,+3V3*%
G36*
X89900000Y-7379285D02*
G01*
X90500000Y-7379285D01*
X91703789Y-6900000D01*
X91460000Y-5999000D01*
X90672500Y-5693615D01*
X89900000Y-7379285D01*
G37*
%TD.AperFunction*%
%TD*%
%TA.AperFunction,Conductor*%
%TO.N,GND*%
G36*
X4800000Y-27600000D02*
G01*
X5200000Y-27600000D01*
X5300000Y-27000000D01*
X5000000Y-26999000D01*
X4700000Y-27000000D01*
X4800000Y-27600000D01*
G37*
%TD.AperFunction*%
%TD*%
%TA.AperFunction,Conductor*%
%TO.N,GND*%
G36*
X69400000Y-25643598D02*
G01*
X69600000Y-25643598D01*
X69622598Y-25420386D01*
X69500000Y-24720000D01*
X69377402Y-25420386D01*
X69400000Y-25643598D01*
G37*
%TD.AperFunction*%
%TD*%
%TA.AperFunction,Conductor*%
%TO.N,GND*%
G36*
X25399000Y-25643598D02*
G01*
X25599000Y-25643598D01*
X25621598Y-25420386D01*
X25499000Y-24720000D01*
X25376402Y-25420386D01*
X25399000Y-25643598D01*
G37*
%TD.AperFunction*%
%TD*%
%TA.AperFunction,Conductor*%
%TO.N,/HDMI2_CEC*%
G36*
X21601000Y-23798402D02*
G01*
X21401000Y-23798402D01*
X21378402Y-24021614D01*
X21501000Y-24722000D01*
X21623598Y-24021614D01*
X21601000Y-23798402D01*
G37*
%TD.AperFunction*%
%TD*%
%TA.AperFunction,Conductor*%
%TO.N,+3V3*%
G36*
X93000000Y-20800000D02*
G01*
X93000000Y-21200000D01*
X93600000Y-21300000D01*
X93601000Y-21000000D01*
X93600000Y-20700000D01*
X93000000Y-20800000D01*
G37*
%TD.AperFunction*%
%TD*%
%TA.AperFunction,Conductor*%
%TO.N,/HDMI2_D1-*%
G36*
X25160855Y-23909476D02*
G01*
X25010524Y-23759145D01*
X24950319Y-23933464D01*
X24998293Y-24721707D01*
X25124000Y-24720666D01*
X25160855Y-23909476D01*
G37*
%TD.AperFunction*%
%TD*%
%TA.AperFunction,Conductor*%
%TO.N,GND*%
G36*
X41947000Y-22002310D02*
G01*
X41547000Y-22002310D01*
X41287868Y-22287868D01*
X41500000Y-22501000D01*
X41777164Y-22614805D01*
X41947000Y-22002310D01*
G37*
%TD.AperFunction*%
%TD*%
%TA.AperFunction,Conductor*%
%TO.N,/SDA0*%
G36*
X67038574Y-15297152D02*
G01*
X67179995Y-15155731D01*
X66812132Y-14787868D01*
X66599293Y-14999293D01*
X66600000Y-15300000D01*
X67038574Y-15297152D01*
G37*
%TD.AperFunction*%
%TD*%
%TA.AperFunction,Conductor*%
%TO.N,/D-*%
G36*
X90089185Y-28121496D02*
G01*
X90284630Y-27926051D01*
X89898717Y-27540139D01*
X89685878Y-27751564D01*
X89686585Y-28052271D01*
X90089185Y-28121496D01*
G37*
%TD.AperFunction*%
%TD*%
%TA.AperFunction,Conductor*%
%TO.N,/HDMI0_D2-*%
G36*
X77265767Y-18400397D02*
G01*
X77416098Y-18550728D01*
X77701074Y-18024739D01*
X77424617Y-17909227D01*
X77146746Y-18024739D01*
X77265767Y-18400397D01*
G37*
%TD.AperFunction*%
%TD*%
%TA.AperFunction,Conductor*%
%TO.N,Net-(D1-K)*%
G36*
X44100000Y-23798402D02*
G01*
X43900000Y-23798402D01*
X43877402Y-24021614D01*
X44000000Y-24722000D01*
X44122598Y-24021614D01*
X44100000Y-23798402D01*
G37*
%TD.AperFunction*%
%TD*%
%TA.AperFunction,Conductor*%
%TO.N,/PL_KEY1*%
G36*
X8424696Y-5683883D02*
G01*
X8566117Y-5825304D01*
X9708311Y-5423619D01*
X9450707Y-4799293D01*
X8826381Y-4541689D01*
X8424696Y-5683883D01*
G37*
%TD.AperFunction*%
%TD*%
%TA.AperFunction,Conductor*%
%TO.N,+3V3*%
G36*
X89800000Y-19460000D02*
G01*
X90200000Y-19460000D01*
X90550057Y-18970000D01*
X90200000Y-17734000D01*
X89710000Y-18970000D01*
X89800000Y-19460000D01*
G37*
%TD.AperFunction*%
%TD*%
%TA.AperFunction,Conductor*%
%TO.N,GND*%
G36*
X76901000Y-25643598D02*
G01*
X77101000Y-25643598D01*
X77123598Y-25420386D01*
X77001000Y-24720000D01*
X76878402Y-25420386D01*
X76901000Y-25643598D01*
G37*
%TD.AperFunction*%
%TD*%
%TA.AperFunction,Conductor*%
%TO.N,/HDMI1_D2-*%
G36*
X51900500Y-13183074D02*
G01*
X51687900Y-13183074D01*
X51786497Y-13070338D01*
X51574365Y-13283470D01*
X51851529Y-13397275D01*
X51900500Y-13183074D01*
G37*
%TD.AperFunction*%
%TD*%
%TA.AperFunction,Conductor*%
%TO.N,GND*%
G36*
X32000000Y-19447000D02*
G01*
X32000000Y-19047000D01*
X31722836Y-19361805D01*
X31999000Y-19247000D01*
X31722836Y-19361805D01*
X32000000Y-19447000D01*
G37*
%TD.AperFunction*%
%TD*%
%TA.AperFunction,Conductor*%
%TO.N,/HDMI0_CK-*%
G36*
X72160855Y-23909476D02*
G01*
X72010524Y-23759145D01*
X71950319Y-23933464D01*
X71998293Y-24721707D01*
X72124000Y-24720666D01*
X72160855Y-23909476D01*
G37*
%TD.AperFunction*%
%TD*%
%TA.AperFunction,Conductor*%
%TO.N,/AUDIO_L*%
G36*
X24100000Y-29100000D02*
G01*
X24100000Y-28900000D01*
X23614805Y-28722836D01*
X23499000Y-29000000D01*
X23614805Y-29277164D01*
X24100000Y-29100000D01*
G37*
%TD.AperFunction*%
%TD*%
%TA.AperFunction,Conductor*%
%TO.N,GND*%
G36*
X51901000Y-25643598D02*
G01*
X52101000Y-25643598D01*
X52123598Y-25420386D01*
X52001000Y-24720000D01*
X51878402Y-25420386D01*
X51901000Y-25643598D01*
G37*
%TD.AperFunction*%
%TD*%
%TA.AperFunction,Conductor*%
%TO.N,+5V*%
G36*
X94943039Y-25319685D02*
G01*
X94988794Y-25372489D01*
X95000000Y-25424000D01*
X95000000Y-26276000D01*
X94980315Y-26343039D01*
X94927511Y-26388794D01*
X94876000Y-26400000D01*
X93689503Y-26400000D01*
X93622464Y-26380315D01*
X93576709Y-26327511D01*
X93566765Y-26258353D01*
X93590237Y-26201689D01*
X93634850Y-26142093D01*
X93634854Y-26142086D01*
X93685096Y-26007379D01*
X93685098Y-26007372D01*
X93691499Y-25947844D01*
X93691500Y-25947827D01*
X93691500Y-25881559D01*
X93680196Y-25860858D01*
X93685180Y-25791166D01*
X93727052Y-25735233D01*
X93792516Y-25710816D01*
X93800254Y-25710539D01*
X93800548Y-25710500D01*
X93800557Y-25710500D01*
X93953284Y-25669577D01*
X94090216Y-25590520D01*
X94202020Y-25478716D01*
X94263350Y-25372489D01*
X94269406Y-25362000D01*
X94319973Y-25313785D01*
X94376793Y-25300000D01*
X94876000Y-25300000D01*
X94943039Y-25319685D01*
G37*
%TD.AperFunction*%
%TD*%
%TA.AperFunction,Conductor*%
%TO.N,GND*%
G36*
X50599000Y-25900199D02*
G01*
X50399000Y-25900199D01*
X50222836Y-26385195D01*
X50500000Y-26501000D01*
X50777164Y-26385195D01*
X50599000Y-25900199D01*
G37*
%TD.AperFunction*%
%TD*%
%TA.AperFunction,Conductor*%
%TO.N,/SCL1*%
G36*
X42153553Y-12494974D02*
G01*
X42294974Y-12353553D01*
X42077164Y-11885195D01*
X41799293Y-11999293D01*
X41685195Y-12277164D01*
X42153553Y-12494974D01*
G37*
%TD.AperFunction*%
%TD*%
%TA.AperFunction,Conductor*%
%TO.N,/TXD*%
G36*
X97765685Y-8317158D02*
G01*
X97482842Y-8034315D01*
X96987868Y-8387868D01*
X97199293Y-8600707D01*
X97412132Y-8812132D01*
X97765685Y-8317158D01*
G37*
%TD.AperFunction*%
%TD*%
%TA.AperFunction,Conductor*%
%TO.N,/HDMI2_CK+*%
G36*
X20792621Y-14100536D02*
G01*
X20642290Y-14250867D01*
X20695710Y-14304290D01*
X20908549Y-14092865D01*
X20630678Y-14206963D01*
X20792621Y-14100536D01*
G37*
%TD.AperFunction*%
%TD*%
%TA.AperFunction,Conductor*%
%TO.N,GND*%
G36*
X83800000Y-12400000D02*
G01*
X83400000Y-12400000D01*
X83300000Y-13000000D01*
X83600000Y-13001000D01*
X83900000Y-13000000D01*
X83800000Y-12400000D01*
G37*
%TD.AperFunction*%
%TD*%
%TA.AperFunction,Conductor*%
%TO.N,/SDA0*%
G36*
X70100000Y-23798402D02*
G01*
X69900000Y-23798402D01*
X69877402Y-24021614D01*
X70000000Y-24722000D01*
X70122598Y-24021614D01*
X70100000Y-23798402D01*
G37*
%TD.AperFunction*%
%TD*%
%TA.AperFunction,Conductor*%
%TO.N,GND*%
G36*
X5200000Y-22000000D02*
G01*
X4800000Y-22000000D01*
X4250000Y-22250000D01*
X5000000Y-23001000D01*
X5750000Y-22250000D01*
X5200000Y-22000000D01*
G37*
%TD.AperFunction*%
%TD*%
%TA.AperFunction,Conductor*%
%TO.N,GND*%
G36*
X88217158Y-20934315D02*
G01*
X87934315Y-21217158D01*
X88287868Y-21712132D01*
X88500707Y-21500707D01*
X88712132Y-21287868D01*
X88217158Y-20934315D01*
G37*
%TD.AperFunction*%
%TD*%
%TA.AperFunction,Conductor*%
%TO.N,/HDMI0_D1-*%
G36*
X67470241Y-3679428D02*
G01*
X67620572Y-3829759D01*
X68758311Y-3423619D01*
X68500707Y-2799293D01*
X67876381Y-2541689D01*
X67470241Y-3679428D01*
G37*
%TD.AperFunction*%
%TD*%
%TA.AperFunction,Conductor*%
%TO.N,/HDMI2_CK+*%
G36*
X22988476Y-23759145D02*
G01*
X22838145Y-23909476D01*
X22875000Y-24720666D01*
X23000707Y-24721707D01*
X23048680Y-23933465D01*
X22988476Y-23759145D01*
G37*
%TD.AperFunction*%
%TD*%
%TA.AperFunction,Conductor*%
%TO.N,/HDMI1_CEC*%
G36*
X46600000Y-23798402D02*
G01*
X46400000Y-23798402D01*
X46376000Y-24046000D01*
X46501000Y-24722000D01*
X46623598Y-24021614D01*
X46600000Y-23798402D01*
G37*
%TD.AperFunction*%
%TD*%
%TA.AperFunction,Conductor*%
%TO.N,/HDMI0_D2-*%
G36*
X77506300Y-17314690D02*
G01*
X77293700Y-17314690D01*
X77146746Y-17795129D01*
X77423910Y-17910934D01*
X77701074Y-17795129D01*
X77506300Y-17314690D01*
G37*
%TD.AperFunction*%
%TD*%
%TA.AperFunction,Conductor*%
%TO.N,/SCL0*%
G36*
X70601000Y-23798402D02*
G01*
X70401000Y-23798402D01*
X70378402Y-24021614D01*
X70501000Y-24722000D01*
X70623598Y-24021614D01*
X70601000Y-23798402D01*
G37*
%TD.AperFunction*%
%TD*%
%TA.AperFunction,Conductor*%
%TO.N,/HDMI1_CK+*%
G36*
X47812100Y-13672246D02*
G01*
X47599500Y-13672246D01*
X47599500Y-13747798D01*
X47899500Y-13748798D01*
X47622336Y-13632993D01*
X47812100Y-13672246D01*
G37*
%TD.AperFunction*%
%TD*%
%TA.AperFunction,Conductor*%
%TO.N,/PL_KEY2*%
G36*
X11790381Y-26648960D02*
G01*
X11648960Y-26790381D01*
X12050000Y-28110660D01*
X13000707Y-28000707D01*
X13310660Y-27250000D01*
X11790381Y-26648960D01*
G37*
%TD.AperFunction*%
%TD*%
%TA.AperFunction,Conductor*%
%TO.N,+3V3*%
G36*
X6284735Y-21045452D02*
G01*
X6684735Y-21045452D01*
X6924164Y-20614805D01*
X6647000Y-20499000D01*
X6347000Y-20500000D01*
X6284735Y-21045452D01*
G37*
%TD.AperFunction*%
%TD*%
%TA.AperFunction,Conductor*%
%TO.N,GND*%
G36*
X5200000Y-27000000D02*
G01*
X4800000Y-27000000D01*
X4250000Y-27250000D01*
X5000000Y-28001000D01*
X5750000Y-27250000D01*
X5200000Y-27000000D01*
G37*
%TD.AperFunction*%
%TD*%
%TA.AperFunction,Conductor*%
%TO.N,Net-(C10-Pad1)*%
G36*
X30449000Y-23094411D02*
G01*
X30049000Y-23094411D01*
X29513411Y-24433682D01*
X30249000Y-25481000D01*
X30984589Y-24433682D01*
X30449000Y-23094411D01*
G37*
%TD.AperFunction*%
%TD*%
%TA.AperFunction,Conductor*%
%TO.N,/HDMI0_CK+*%
G36*
X72700000Y-17875552D02*
G01*
X72912600Y-17875552D01*
X72722836Y-17914805D01*
X73000000Y-17799000D01*
X72700000Y-17800000D01*
X72700000Y-17875552D01*
G37*
%TD.AperFunction*%
%TD*%
%TA.AperFunction,Conductor*%
%TO.N,Net-(D1-K)*%
G36*
X18853553Y-23494974D02*
G01*
X18994974Y-23353553D01*
X18777164Y-22885195D01*
X18499293Y-22999293D01*
X18385195Y-23277164D01*
X18853553Y-23494974D01*
G37*
%TD.AperFunction*%
%TD*%
%TA.AperFunction,Conductor*%
%TO.N,/HDMI0_D0+*%
G36*
X74489476Y-23759145D02*
G01*
X74339145Y-23909476D01*
X74376000Y-24720666D01*
X74501707Y-24721707D01*
X74549680Y-23933465D01*
X74489476Y-23759145D01*
G37*
%TD.AperFunction*%
%TD*%
%TA.AperFunction,Conductor*%
%TO.N,/HDMI2_D0-*%
G36*
X23687900Y-16278139D02*
G01*
X23900500Y-16278139D01*
X23777164Y-15685195D01*
X23500000Y-15799000D01*
X23385195Y-16077164D01*
X23687900Y-16278139D01*
G37*
%TD.AperFunction*%
%TD*%
%TA.AperFunction,Conductor*%
%TO.N,/AUDIO_L*%
G36*
X34964972Y-25893607D02*
G01*
X35106393Y-26035028D01*
X35514805Y-25777164D01*
X35400707Y-25499293D01*
X35122836Y-25385195D01*
X34964972Y-25893607D01*
G37*
%TD.AperFunction*%
%TD*%
%TA.AperFunction,Conductor*%
%TO.N,GND*%
G36*
X88471080Y-18141421D02*
G01*
X88753923Y-17858578D01*
X88390000Y-17394206D01*
X87899293Y-17734293D01*
X88390000Y-18440006D01*
X88471080Y-18141421D01*
G37*
%TD.AperFunction*%
%TD*%
%TA.AperFunction,Conductor*%
%TO.N,/HDMI2_D1-*%
G36*
X25812601Y-13475551D02*
G01*
X25600001Y-13475551D01*
X25600000Y-14000000D01*
X25900000Y-14001000D01*
X26112132Y-13787868D01*
X25812601Y-13475551D01*
G37*
%TD.AperFunction*%
%TD*%
%TA.AperFunction,Conductor*%
%TO.N,/HDMI0_D2+*%
G36*
X77832444Y-18417225D02*
G01*
X77982775Y-18567556D01*
X78431117Y-18212132D01*
X78219692Y-17999293D01*
X77941821Y-17885195D01*
X77832444Y-18417225D01*
G37*
%TD.AperFunction*%
%TD*%
%TA.AperFunction,Conductor*%
%TO.N,/HDMI0_D0+*%
G36*
X61561951Y-3428776D02*
G01*
X61712282Y-3278445D01*
X60977297Y-2322703D01*
X60499293Y-2799293D01*
X60500000Y-3475000D01*
X61561951Y-3428776D01*
G37*
%TD.AperFunction*%
%TD*%
%TA.AperFunction,Conductor*%
%TO.N,/HPD0*%
G36*
X68599000Y-23798402D02*
G01*
X68399000Y-23798402D01*
X68376402Y-24021614D01*
X68499000Y-24722000D01*
X68621598Y-24021614D01*
X68599000Y-23798402D01*
G37*
%TD.AperFunction*%
%TD*%
%TA.AperFunction,Conductor*%
%TO.N,GND*%
G36*
X26901000Y-25643598D02*
G01*
X27101000Y-25643598D01*
X27123598Y-25420386D01*
X27001000Y-24720000D01*
X26878402Y-25420386D01*
X26901000Y-25643598D01*
G37*
%TD.AperFunction*%
%TD*%
%TA.AperFunction,Conductor*%
%TO.N,/HDMI2_D2+*%
G36*
X27489476Y-23759145D02*
G01*
X27339145Y-23909476D01*
X27376000Y-24720666D01*
X27501707Y-24721707D01*
X27549680Y-23933465D01*
X27489476Y-23759145D01*
G37*
%TD.AperFunction*%
%TD*%
%TA.AperFunction,Conductor*%
%TO.N,GND*%
G36*
X23901000Y-25643598D02*
G01*
X24101000Y-25643598D01*
X24123598Y-25420386D01*
X24001000Y-24720000D01*
X23878402Y-25420386D01*
X23901000Y-25643598D01*
G37*
%TD.AperFunction*%
%TD*%
%TA.AperFunction,Conductor*%
%TO.N,/HDMI2_CEC*%
G36*
X14424696Y-3683883D02*
G01*
X14566117Y-3825304D01*
X15708311Y-3423619D01*
X15450707Y-2799293D01*
X14826381Y-2541689D01*
X14424696Y-3683883D01*
G37*
%TD.AperFunction*%
%TD*%
%TA.AperFunction,Conductor*%
%TO.N,/HDMI2_D2-*%
G36*
X26661855Y-23909476D02*
G01*
X26511524Y-23759145D01*
X26451319Y-23933464D01*
X26499293Y-24721707D01*
X26625000Y-24720666D01*
X26661855Y-23909476D01*
G37*
%TD.AperFunction*%
%TD*%
%TA.AperFunction,Conductor*%
%TO.N,GND*%
G36*
X52101000Y-25900199D02*
G01*
X51901000Y-25900199D01*
X51722836Y-26385195D01*
X52000000Y-26501000D01*
X52277164Y-26385195D01*
X52101000Y-25900199D01*
G37*
%TD.AperFunction*%
%TD*%
%TA.AperFunction,Conductor*%
%TO.N,/TXD*%
G36*
X92822716Y-3500000D02*
G01*
X92822716Y-3100000D01*
X92247500Y-1663672D01*
X91459000Y-2000000D01*
X91261799Y-2900000D01*
X92822716Y-3500000D01*
G37*
%TD.AperFunction*%
%TD*%
%TA.AperFunction,Conductor*%
%TO.N,GND*%
G36*
X75399000Y-25643598D02*
G01*
X75599000Y-25643598D01*
X75621598Y-25420386D01*
X75499000Y-24720000D01*
X75376402Y-25420386D01*
X75399000Y-25643598D01*
G37*
%TD.AperFunction*%
%TD*%
%TA.AperFunction,Conductor*%
%TO.N,/HDMI0_D1+*%
G36*
X76311516Y-18338153D02*
G01*
X76461847Y-18488484D01*
X76808078Y-18112132D01*
X76596653Y-17899293D01*
X76295946Y-17900000D01*
X76311516Y-18338153D01*
G37*
%TD.AperFunction*%
%TD*%
%TA.AperFunction,Conductor*%
%TO.N,/HDMI0_CK-*%
G36*
X72399500Y-17781461D02*
G01*
X72186900Y-17781461D01*
X71922836Y-17914805D01*
X72200000Y-17801000D01*
X71922836Y-17914805D01*
X72399500Y-17781461D01*
G37*
%TD.AperFunction*%
%TD*%
%TA.AperFunction,Conductor*%
%TO.N,/HPD2*%
G36*
X17853553Y-23494974D02*
G01*
X17994974Y-23353553D01*
X17777164Y-22885195D01*
X17499293Y-22999293D01*
X17385195Y-23277164D01*
X17853553Y-23494974D01*
G37*
%TD.AperFunction*%
%TD*%
%TA.AperFunction,Conductor*%
%TO.N,/HDMI1_CEC*%
G36*
X46600000Y-23798402D02*
G01*
X46400000Y-23798402D01*
X46376000Y-24046000D01*
X46501000Y-24722000D01*
X46623598Y-24021614D01*
X46600000Y-23798402D01*
G37*
%TD.AperFunction*%
%TD*%
%TA.AperFunction,Conductor*%
%TO.N,/HDMI1_D0+*%
G36*
X49313100Y-14124448D02*
G01*
X49100500Y-14124448D01*
X49100500Y-14200000D01*
X49400500Y-14201000D01*
X49123336Y-14085195D01*
X49313100Y-14124448D01*
G37*
%TD.AperFunction*%
%TD*%
%TA.AperFunction,Conductor*%
%TO.N,+3V3*%
G36*
X6684735Y-31915265D02*
G01*
X6284735Y-31915265D01*
X6184735Y-32515265D01*
X6484735Y-32516265D01*
X6784735Y-32515265D01*
X6684735Y-31915265D01*
G37*
%TD.AperFunction*%
%TD*%
%TA.AperFunction,Conductor*%
%TO.N,/HDMI0_D1+*%
G36*
X76406300Y-17397998D02*
G01*
X76193700Y-17397998D01*
X76318782Y-18014805D01*
X76595946Y-17901000D01*
X76808078Y-17687868D01*
X76406300Y-17397998D01*
G37*
%TD.AperFunction*%
%TD*%
%TA.AperFunction,Conductor*%
%TO.N,/HDMI0_D1-*%
G36*
X75160855Y-23909476D02*
G01*
X75010524Y-23759145D01*
X74950319Y-23933464D01*
X74998293Y-24721707D01*
X75124000Y-24720666D01*
X75160855Y-23909476D01*
G37*
%TD.AperFunction*%
%TD*%
%TA.AperFunction,Conductor*%
%TO.N,/HDMI0_CK-*%
G36*
X58393700Y-6150000D02*
G01*
X58606300Y-6150000D01*
X59123619Y-5058311D01*
X58500000Y-4799000D01*
X57876381Y-5058311D01*
X58393700Y-6150000D01*
G37*
%TD.AperFunction*%
%TD*%
%TA.AperFunction,Conductor*%
%TO.N,/HDMI1_D1+*%
G36*
X50988476Y-23759145D02*
G01*
X50838145Y-23909476D01*
X50875000Y-24720666D01*
X51000707Y-24721707D01*
X51048680Y-23933465D01*
X50988476Y-23759145D01*
G37*
%TD.AperFunction*%
%TD*%
%TA.AperFunction,Conductor*%
%TO.N,GND*%
G36*
X5200000Y-17000000D02*
G01*
X4800000Y-17000000D01*
X4250000Y-17250000D01*
X5000000Y-18001000D01*
X5750000Y-17250000D01*
X5200000Y-17000000D01*
G37*
%TD.AperFunction*%
%TD*%
%TA.AperFunction,Conductor*%
%TO.N,GND*%
G36*
X31850000Y-19447000D02*
G01*
X31850000Y-19047000D01*
X31450000Y-18900000D01*
X30999000Y-19300000D01*
X31450000Y-19672686D01*
X31850000Y-19447000D01*
G37*
%TD.AperFunction*%
%TD*%
%TA.AperFunction,Conductor*%
%TO.N,GND*%
G36*
X32165000Y-19047000D02*
G01*
X32165000Y-19447000D01*
X32568000Y-19650000D01*
X33001000Y-19247000D01*
X32568000Y-18844000D01*
X32165000Y-19047000D01*
G37*
%TD.AperFunction*%
%TD*%
%TA.AperFunction,Conductor*%
%TO.N,GND*%
G36*
X33500000Y-22150000D02*
G01*
X33100000Y-22150000D01*
X32900000Y-22550000D01*
X33300000Y-23001000D01*
X33700000Y-22550000D01*
X33500000Y-22150000D01*
G37*
%TD.AperFunction*%
%TD*%
%TA.AperFunction,Conductor*%
%TO.N,GND*%
G36*
X41547596Y-22169562D02*
G01*
X41830438Y-22452404D01*
X42120472Y-21932000D01*
X41747707Y-21499293D01*
X41344000Y-21932000D01*
X41547596Y-22169562D01*
G37*
%TD.AperFunction*%
%TD*%
%TA.AperFunction,Conductor*%
%TO.N,GND*%
G36*
X88047596Y-30669562D02*
G01*
X88330438Y-30952404D01*
X88620472Y-30432000D01*
X88247707Y-29999293D01*
X87844000Y-30432000D01*
X88047596Y-30669562D01*
G37*
%TD.AperFunction*%
%TD*%
%TA.AperFunction,Conductor*%
%TO.N,GND*%
G36*
X96600000Y-12650000D02*
G01*
X97000000Y-12650000D01*
X97200000Y-12250000D01*
X96800000Y-11799000D01*
X96400000Y-12250000D01*
X96600000Y-12650000D01*
G37*
%TD.AperFunction*%
%TD*%
%TA.AperFunction,Conductor*%
%TO.N,GND*%
G36*
X97000000Y-12850000D02*
G01*
X96600000Y-12850000D01*
X96400000Y-13250000D01*
X96800000Y-13701000D01*
X97200000Y-13250000D01*
X97000000Y-12850000D01*
G37*
%TD.AperFunction*%
%TD*%
%TA.AperFunction,Conductor*%
%TO.N,GND*%
G36*
X88047596Y-26169562D02*
G01*
X88330438Y-26452404D01*
X88620472Y-25932000D01*
X88247707Y-25499293D01*
X87844000Y-25932000D01*
X88047596Y-26169562D01*
G37*
%TD.AperFunction*%
%TD*%
%TA.AperFunction,Conductor*%
%TO.N,GND*%
G36*
X58835000Y-30447000D02*
G01*
X58835000Y-30047000D01*
X58432000Y-29844000D01*
X57999000Y-30247000D01*
X58432000Y-30650000D01*
X58835000Y-30447000D01*
G37*
%TD.AperFunction*%
%TD*%
%TA.AperFunction,Conductor*%
%TO.N,GND*%
G36*
X62415000Y-30047000D02*
G01*
X62415000Y-30447000D01*
X62818000Y-30650000D01*
X63251000Y-30247000D01*
X62818000Y-29844000D01*
X62415000Y-30047000D01*
G37*
%TD.AperFunction*%
%TD*%
%TA.AperFunction,Conductor*%
%TO.N,GND*%
G36*
X92341500Y-24650000D02*
G01*
X92741500Y-24650000D01*
X93511208Y-24280000D01*
X93191500Y-23679000D01*
X92274669Y-23970009D01*
X92341500Y-24650000D01*
G37*
%TD.AperFunction*%
%TD*%
%TA.AperFunction,Conductor*%
%TO.N,GND*%
G36*
X97118198Y-11164645D02*
G01*
X96835355Y-10881802D01*
X96491890Y-11350000D01*
X96799293Y-11800707D01*
X97200000Y-11350000D01*
X97118198Y-11164645D01*
G37*
%TD.AperFunction*%
%TD*%
%TA.AperFunction,Conductor*%
%TO.N,GND*%
G36*
X15129747Y-21488326D02*
G01*
X14988326Y-21629747D01*
X15344000Y-22220553D01*
X15747707Y-22000707D01*
X15819512Y-21568000D01*
X15129747Y-21488326D01*
G37*
%TD.AperFunction*%
%TD*%
%TA.AperFunction,Conductor*%
%TO.N,GND*%
G36*
X92741500Y-31350000D02*
G01*
X92341500Y-31350000D01*
X92274669Y-32029990D01*
X93191500Y-32321000D01*
X93511208Y-31720000D01*
X92741500Y-31350000D01*
G37*
%TD.AperFunction*%
%TD*%
%TA.AperFunction,Conductor*%
%TO.N,GND*%
G36*
X37811092Y-23606066D02*
G01*
X38093934Y-23888908D01*
X38472630Y-23450000D01*
X38200707Y-22999293D01*
X37800000Y-23450000D01*
X37811092Y-23606066D01*
G37*
%TD.AperFunction*%
%TD*%
%TA.AperFunction,Conductor*%
%TO.N,GND*%
G36*
X83400000Y-12750000D02*
G01*
X83800000Y-12750000D01*
X84000000Y-12350000D01*
X83600000Y-11899000D01*
X83200000Y-12350000D01*
X83400000Y-12750000D01*
G37*
%TD.AperFunction*%
%TD*%
%TA.AperFunction,Conductor*%
%TO.N,GND*%
G36*
X66358580Y-22358578D02*
G01*
X66641422Y-22641420D01*
X67022181Y-22232000D01*
X66747707Y-21799293D01*
X66344000Y-22232000D01*
X66358580Y-22358578D01*
G37*
%TD.AperFunction*%
%TD*%
%TA.AperFunction,Conductor*%
%TO.N,GND*%
G36*
X83800000Y-12950000D02*
G01*
X83400000Y-12950000D01*
X83200000Y-13350000D01*
X83600000Y-13801000D01*
X84000000Y-13350000D01*
X83800000Y-12950000D01*
G37*
%TD.AperFunction*%
%TD*%
%TA.AperFunction,Conductor*%
%TO.N,Net-(C1-Pad1)*%
G36*
X37100000Y-22150000D02*
G01*
X36700000Y-22150000D01*
X36450244Y-22550000D01*
X36800000Y-23001000D01*
X37200000Y-22550000D01*
X37100000Y-22150000D01*
G37*
%TD.AperFunction*%
%TD*%
%TA.AperFunction,Conductor*%
%TO.N,Net-(C1-Pad1)*%
G36*
X36700000Y-21559000D02*
G01*
X37100000Y-21559000D01*
X37481782Y-21156000D01*
X37203000Y-20752000D01*
X36771000Y-20756075D01*
X36700000Y-21559000D01*
G37*
%TD.AperFunction*%
%TD*%
%TA.AperFunction,Conductor*%
%TO.N,Net-(C1-Pad1)*%
G36*
X38076000Y-29424029D02*
G01*
X37676000Y-29424029D01*
X37287529Y-30495446D01*
X37876000Y-30913500D01*
X38464471Y-30495446D01*
X38076000Y-29424029D01*
G37*
%TD.AperFunction*%
%TD*%
%TA.AperFunction,Conductor*%
%TO.N,Net-(C1-Pad1)*%
G36*
X36800000Y-23850000D02*
G01*
X37200000Y-23850000D01*
X37200000Y-22952628D01*
X36800000Y-22999000D01*
X36495094Y-23450000D01*
X36800000Y-23850000D01*
G37*
%TD.AperFunction*%
%TD*%
%TA.AperFunction,Conductor*%
%TO.N,/PL_KEY1*%
G36*
X7864253Y-10258674D02*
G01*
X8005674Y-10117253D01*
X7650000Y-9333072D01*
X7246293Y-9499293D01*
X7109072Y-9932000D01*
X7864253Y-10258674D01*
G37*
%TD.AperFunction*%
%TD*%
%TA.AperFunction,Conductor*%
%TO.N,/PL_KEY1*%
G36*
X8005674Y-8882747D02*
G01*
X7864253Y-8741326D01*
X7109072Y-9068000D01*
X7246293Y-9500707D01*
X7650000Y-9666928D01*
X8005674Y-8882747D01*
G37*
%TD.AperFunction*%
%TD*%
%TA.AperFunction,Conductor*%
%TO.N,/PL_KEY0*%
G36*
X7347000Y-6665000D02*
G01*
X7147000Y-6665000D01*
X6844000Y-7068000D01*
X7247000Y-7501000D01*
X7650000Y-7068000D01*
X7347000Y-6665000D01*
G37*
%TD.AperFunction*%
%TD*%
%TA.AperFunction,Conductor*%
%TO.N,/AUDIO_L*%
G36*
X35617253Y-20005674D02*
G01*
X35758674Y-19864253D01*
X35432000Y-19109072D01*
X34999293Y-19246293D01*
X34833072Y-19650000D01*
X35617253Y-20005674D01*
G37*
%TD.AperFunction*%
%TD*%
%TA.AperFunction,Conductor*%
%TO.N,/AUDIO_R*%
G36*
X36415326Y-19864253D02*
G01*
X36556747Y-20005674D01*
X37365052Y-19650000D01*
X37203707Y-19246293D01*
X36771000Y-19102983D01*
X36415326Y-19864253D01*
G37*
%TD.AperFunction*%
%TD*%
%TA.AperFunction,Conductor*%
%TO.N,+3V3*%
G36*
X90200000Y-20194000D02*
G01*
X89800000Y-20194000D01*
X89597000Y-20597000D01*
X90000000Y-21001000D01*
X90403000Y-20597000D01*
X90200000Y-20194000D01*
G37*
%TD.AperFunction*%
%TD*%
%TA.AperFunction,Conductor*%
%TO.N,+3V3*%
G36*
X8853000Y-12665000D02*
G01*
X8653000Y-12665000D01*
X8350000Y-13068000D01*
X8753000Y-13501000D01*
X9156000Y-13068000D01*
X8853000Y-12665000D01*
G37*
%TD.AperFunction*%
%TD*%
%TA.AperFunction,Conductor*%
%TO.N,+3V3*%
G36*
X13364253Y-8258674D02*
G01*
X13505674Y-8117253D01*
X13150000Y-7333072D01*
X12746293Y-7499293D01*
X12609072Y-7932000D01*
X13364253Y-8258674D01*
G37*
%TD.AperFunction*%
%TD*%
%TA.AperFunction,Conductor*%
%TO.N,+3V3*%
G36*
X9053000Y-8665000D02*
G01*
X8453000Y-8665000D01*
X8350000Y-9068000D01*
X8753000Y-9501000D01*
X9156000Y-9068000D01*
X9053000Y-8665000D01*
G37*
%TD.AperFunction*%
%TD*%
%TA.AperFunction,Conductor*%
%TO.N,+3V3*%
G36*
X8453000Y-8335000D02*
G01*
X9053000Y-8335000D01*
X9156000Y-7932000D01*
X8753000Y-7499000D01*
X8350000Y-7932000D01*
X8453000Y-8335000D01*
G37*
%TD.AperFunction*%
%TD*%
%TA.AperFunction,Conductor*%
%TO.N,+3V3*%
G36*
X7147000Y-12335000D02*
G01*
X7347000Y-12335000D01*
X7650000Y-11932000D01*
X7247000Y-11499000D01*
X6844000Y-11932000D01*
X7147000Y-12335000D01*
G37*
%TD.AperFunction*%
%TD*%
%TA.AperFunction,Conductor*%
%TO.N,+3V3*%
G36*
X84700000Y-14650000D02*
G01*
X85300000Y-14650000D01*
X85400000Y-14250000D01*
X85000000Y-13799000D01*
X84600000Y-14250000D01*
X84700000Y-14650000D01*
G37*
%TD.AperFunction*%
%TD*%
%TA.AperFunction,Conductor*%
%TO.N,+3V3*%
G36*
X9500000Y-9600000D02*
G01*
X9500000Y-9400000D01*
X9156000Y-9097000D01*
X8752000Y-9500000D01*
X9156000Y-9903000D01*
X9500000Y-9600000D01*
G37*
%TD.AperFunction*%
%TD*%
%TA.AperFunction,Conductor*%
%TO.N,+3V3*%
G36*
X84700000Y-12750000D02*
G01*
X85300000Y-12750000D01*
X85400000Y-12350000D01*
X85000000Y-11899000D01*
X84600000Y-12350000D01*
X84700000Y-12750000D01*
G37*
%TD.AperFunction*%
%TD*%
%TA.AperFunction,Conductor*%
%TO.N,+3V3*%
G36*
X85300000Y-12950000D02*
G01*
X84700000Y-12950000D01*
X84600000Y-13350000D01*
X85000000Y-13801000D01*
X85400000Y-13350000D01*
X85300000Y-12950000D01*
G37*
%TD.AperFunction*%
%TD*%
%TA.AperFunction,Conductor*%
%TO.N,+3V3*%
G36*
X90835000Y-21200000D02*
G01*
X90835000Y-20800000D01*
X90432000Y-20597000D01*
X89999000Y-21000000D01*
X90432000Y-21403000D01*
X90835000Y-21200000D01*
G37*
%TD.AperFunction*%
%TD*%
%TA.AperFunction,Conductor*%
%TO.N,+3V3*%
G36*
X59959326Y-10146253D02*
G01*
X60100747Y-10287674D01*
X60662160Y-9932000D01*
X60447707Y-9499293D01*
X60044000Y-9391775D01*
X59959326Y-10146253D01*
G37*
%TD.AperFunction*%
%TD*%
%TA.AperFunction,Conductor*%
%TO.N,Net-(D4-A)*%
G36*
X89165000Y-22403000D02*
G01*
X89165000Y-22803000D01*
X89568000Y-22909000D01*
X90001000Y-22506000D01*
X89568000Y-22150537D01*
X89165000Y-22403000D01*
G37*
%TD.AperFunction*%
%TD*%
%TA.AperFunction,Conductor*%
%TO.N,/D+*%
G36*
X91814700Y-28173279D02*
G01*
X91673279Y-28314700D01*
X91891500Y-28395236D01*
X92542207Y-28250707D01*
X91891500Y-28100000D01*
X91814700Y-28173279D01*
G37*
%TD.AperFunction*%
%TD*%
%TA.AperFunction,Conductor*%
%TO.N,/D+*%
G36*
X91741500Y-27150000D02*
G01*
X91741500Y-27350000D01*
X91891500Y-27400000D01*
X92542500Y-27250000D01*
X91891500Y-27100000D01*
X91741500Y-27150000D01*
G37*
%TD.AperFunction*%
%TD*%
%TA.AperFunction,Conductor*%
%TO.N,/D-*%
G36*
X93341500Y-28850000D02*
G01*
X93341500Y-28650000D01*
X93191500Y-28600000D01*
X92540500Y-28750000D01*
X93191500Y-28900000D01*
X93341500Y-28850000D01*
G37*
%TD.AperFunction*%
%TD*%
%TA.AperFunction,Conductor*%
%TO.N,/D-*%
G36*
X93341500Y-27850000D02*
G01*
X93341500Y-27650000D01*
X93191500Y-27600000D01*
X92540500Y-27750000D01*
X93191500Y-27900000D01*
X93341500Y-27850000D01*
G37*
%TD.AperFunction*%
%TD*%
%TA.AperFunction,Conductor*%
%TO.N,Net-(C10-Pad1)*%
G36*
X31850000Y-20900000D02*
G01*
X31850000Y-20500000D01*
X31450000Y-20300000D01*
X30999000Y-20700000D01*
X31450000Y-21100000D01*
X31850000Y-20900000D01*
G37*
%TD.AperFunction*%
%TD*%
%TA.AperFunction,Conductor*%
%TO.N,Net-(C10-Pad1)*%
G36*
X32165000Y-20500000D02*
G01*
X32165000Y-20900000D01*
X32568000Y-21129358D01*
X33001000Y-20753000D01*
X32568000Y-20350000D01*
X32165000Y-20500000D01*
G37*
%TD.AperFunction*%
%TD*%
%TA.AperFunction,Conductor*%
%TO.N,Net-(C10-Pad1)*%
G36*
X30175736Y-21241421D02*
G01*
X30458579Y-21524264D01*
X31165685Y-21100000D01*
X31000707Y-20699293D01*
X30550000Y-20584314D01*
X30175736Y-21241421D01*
G37*
%TD.AperFunction*%
%TD*%
%TA.AperFunction,Conductor*%
%TO.N,Net-(C11-Pad1)*%
G36*
X58900000Y-31500000D02*
G01*
X58900000Y-31900000D01*
X59300000Y-32100000D01*
X59751000Y-31700000D01*
X59300000Y-31300000D01*
X58900000Y-31500000D01*
G37*
%TD.AperFunction*%
%TD*%
%TA.AperFunction,Conductor*%
%TO.N,Net-(J5-CC1)*%
G36*
X91741500Y-29150000D02*
G01*
X91741500Y-29350000D01*
X91891500Y-29400000D01*
X92542500Y-29250000D01*
X91891500Y-29100000D01*
X91741500Y-29150000D01*
G37*
%TD.AperFunction*%
%TD*%
%TA.AperFunction,Conductor*%
%TO.N,Net-(J5-CC1)*%
G36*
X90511674Y-29382747D02*
G01*
X90370253Y-29241326D01*
X89615072Y-29568000D01*
X89752293Y-30000707D01*
X90156000Y-30166928D01*
X90511674Y-29382747D01*
G37*
%TD.AperFunction*%
%TD*%
%TA.AperFunction,Conductor*%
%TO.N,Net-(J5-CC2)*%
G36*
X90370253Y-26258674D02*
G01*
X90511674Y-26117253D01*
X90156000Y-25333072D01*
X89752293Y-25499293D01*
X89615072Y-25932000D01*
X90370253Y-26258674D01*
G37*
%TD.AperFunction*%
%TD*%
%TA.AperFunction,Conductor*%
%TO.N,Net-(J5-CC2)*%
G36*
X91741500Y-26150000D02*
G01*
X91741500Y-26350000D01*
X91891500Y-26400000D01*
X92542500Y-26250000D01*
X91891500Y-26100000D01*
X91741500Y-26150000D01*
G37*
%TD.AperFunction*%
%TD*%
%TA.AperFunction,Conductor*%
%TO.N,Net-(C2-Pad1)*%
G36*
X34179949Y-25091394D02*
G01*
X33897106Y-24808551D01*
X33115943Y-25024029D01*
X33075293Y-25913207D01*
X33676000Y-26161028D01*
X34179949Y-25091394D01*
G37*
%TD.AperFunction*%
%TD*%
%TA.AperFunction,Conductor*%
%TO.N,Net-(C2-Pad1)*%
G36*
X34897000Y-22150000D02*
G01*
X34497000Y-22150000D01*
X34300000Y-22550000D01*
X34700000Y-23001000D01*
X35098413Y-22550000D01*
X34897000Y-22150000D01*
G37*
%TD.AperFunction*%
%TD*%
%TA.AperFunction,Conductor*%
%TO.N,Net-(C2-Pad1)*%
G36*
X34497000Y-21559000D02*
G01*
X34897000Y-21559000D01*
X35278782Y-21156000D01*
X35000000Y-20752000D01*
X34568000Y-20756075D01*
X34497000Y-21559000D01*
G37*
%TD.AperFunction*%
%TD*%
%TA.AperFunction,Conductor*%
%TO.N,Net-(C2-Pad1)*%
G36*
X34300000Y-23850000D02*
G01*
X34700000Y-23850000D01*
X35004906Y-23450000D01*
X34700000Y-22999000D01*
X34300000Y-22952628D01*
X34300000Y-23850000D01*
G37*
%TD.AperFunction*%
%TD*%
%TA.AperFunction,Conductor*%
%TO.N,Net-(C12-Pad1)*%
G36*
X62350000Y-31900000D02*
G01*
X62350000Y-31500000D01*
X61950000Y-31300000D01*
X61499000Y-31700000D01*
X61950000Y-32100000D01*
X62350000Y-31900000D01*
G37*
%TD.AperFunction*%
%TD*%
%TA.AperFunction,Conductor*%
%TO.N,/HDMI2_CEC*%
G36*
X14870253Y-8258674D02*
G01*
X15011674Y-8117253D01*
X14656000Y-7333072D01*
X14252293Y-7499293D01*
X14115072Y-7932000D01*
X14870253Y-8258674D01*
G37*
%TD.AperFunction*%
%TD*%
%TA.AperFunction,Conductor*%
%TO.N,/HDMI2_CEC*%
G36*
X14575000Y-6665000D02*
G01*
X14375000Y-6665000D01*
X13951016Y-7068000D01*
X14253000Y-7501000D01*
X14656000Y-7068000D01*
X14575000Y-6665000D01*
G37*
%TD.AperFunction*%
%TD*%
%TA.AperFunction,Conductor*%
%TO.N,/PL_KEY3*%
G36*
X9511674Y-10882747D02*
G01*
X9370253Y-10741326D01*
X8615072Y-11068000D01*
X8752293Y-11500707D01*
X9156000Y-11666928D01*
X9511674Y-10882747D01*
G37*
%TD.AperFunction*%
%TD*%
%TA.AperFunction,Conductor*%
%TO.N,/PL_KEY3*%
G36*
X9370253Y-12258674D02*
G01*
X9511674Y-12117253D01*
X9156000Y-11333072D01*
X8752293Y-11499293D01*
X8615072Y-11932000D01*
X9370253Y-12258674D01*
G37*
%TD.AperFunction*%
%TD*%
%TA.AperFunction,Conductor*%
%TO.N,/PL_KEY2*%
G36*
X6629747Y-12741326D02*
G01*
X6488326Y-12882747D01*
X6844000Y-13666928D01*
X7247707Y-13500707D01*
X7384928Y-13068000D01*
X6629747Y-12741326D01*
G37*
%TD.AperFunction*%
%TD*%
%TA.AperFunction,Conductor*%
%TO.N,/PL_KEY2*%
G36*
X7147000Y-14335000D02*
G01*
X7347000Y-14335000D01*
X7650000Y-13932000D01*
X7247000Y-13499000D01*
X6844000Y-13932000D01*
X7147000Y-14335000D01*
G37*
%TD.AperFunction*%
%TD*%
%TA.AperFunction,Conductor*%
%TO.N,/HPD0*%
G36*
X68353000Y-20965000D02*
G01*
X68153000Y-20965000D01*
X67850000Y-21368000D01*
X68253000Y-21801000D01*
X68656000Y-21368000D01*
X68353000Y-20965000D01*
G37*
%TD.AperFunction*%
%TD*%
%TA.AperFunction,Conductor*%
%TO.N,/HPD0*%
G36*
X68399000Y-22635000D02*
G01*
X68599000Y-22635000D01*
X68656000Y-22232000D01*
X68253000Y-21799000D01*
X67960329Y-22232000D01*
X68399000Y-22635000D01*
G37*
%TD.AperFunction*%
%TD*%
%TA.AperFunction,Conductor*%
%TO.N,/HPD1*%
G36*
X43399000Y-22335000D02*
G01*
X43599000Y-22335000D01*
X43656000Y-21932000D01*
X43253000Y-21499000D01*
X42960329Y-21932000D01*
X43399000Y-22335000D01*
G37*
%TD.AperFunction*%
%TD*%
%TA.AperFunction,Conductor*%
%TO.N,/HPD2*%
G36*
X17300000Y-22835000D02*
G01*
X17700000Y-22835000D01*
X17656000Y-21940712D01*
X17253000Y-21999000D01*
X16960710Y-22432000D01*
X17300000Y-22835000D01*
G37*
%TD.AperFunction*%
%TD*%
M02*
